<svg width="113" height="104" viewBox="0 0 113 104" fill="none" xmlns="http://www.w3.org/2000/svg">
<path d="M15.0853 104C13.3287 104 11.888 102.719 11.8266 101.104L11.7842 99.9804C11.1171 82.3576 10.4276 64.1357 12.3998 46.6042C13.7068 35.0452 16.6002 20.4947 27.4663 10.4752C34.6901 3.81753 45.0429 0 55.8701 0C59.7914 0 63.6402 0.503547 67.3103 1.49602C80.6851 5.10941 92.007 15.1688 96.8556 27.7491C99.1138 33.5979 99.9606 39.6382 100.635 45.3239C102.606 61.9062 101.86 79.2208 101.14 95.9658C101.065 97.6889 100.992 99.4053 100.921 101.113C100.854 102.725 99.4155 104 97.6629 104H15.0853V104Z" fill="white"/>
<path d="M97.6631 100.999H15.0852C14.4134 83.2245 13.6518 64.6105 15.6429 46.9132C17.0464 34.4984 20.1954 21.4269 29.7739 12.5946C39.0944 4.00551 53.7412 0.95274 66.3905 4.3754C79.0399 7.79237 89.3741 17.3145 93.7824 28.7522C95.8756 34.173 96.7154 39.9304 97.3931 45.6492C99.5404 63.7108 98.4128 82.8436 97.6631 100.999Z" fill="#FFC150"/>
<path d="M35.6408 28.3578C33.9024 28.3578 32.1458 27.8997 30.5969 26.9428C26.4428 24.3763 25.3322 19.1779 28.121 15.3547C30.9096 11.5319 36.5579 10.5094 40.7119 13.0763C44.8656 15.6427 45.9761 20.8411 43.1876 24.6643C41.4387 27.062 38.5649 28.3578 35.6408 28.3578ZM35.6675 11.8646C32.8143 11.8646 30.0109 13.1287 28.3044 15.4679C25.5836 19.1982 26.6673 24.2701 30.7198 26.774C34.7737 29.2787 40.2838 28.2808 43.0042 24.5512C45.725 20.821 44.6416 15.7492 40.589 13.2451C39.0778 12.3115 37.3636 11.8646 35.6675 11.8646Z" fill="white"/>
<path d="M35.642 27.4128C34.1 27.4128 32.5425 27.0066 31.169 26.1579C27.4855 23.8823 26.5007 19.2724 28.9735 15.8818C31.4471 12.4917 36.4553 11.5853 40.1391 13.8611C43.8226 16.1376 44.8074 20.7475 42.3342 24.1374C40.7835 26.2635 38.2351 27.4128 35.642 27.4128ZM35.6661 12.7866C33.1357 12.7866 30.6497 13.9078 29.1362 15.982C26.7234 19.29 27.6841 23.7878 31.2781 26.0082C34.8722 28.2298 39.7595 27.345 42.1722 24.0373C44.5849 20.7294 43.6242 16.2316 40.0303 14.0108C38.6902 13.1831 37.17 12.7866 35.6661 12.7866Z" fill="white"/>
<path d="M38.34 21.6411C38.3442 22.0177 38.2488 22.3411 38.0553 22.6115C37.861 22.8818 37.6022 23.0986 37.2779 23.2619C36.9542 23.4254 36.5991 23.5298 36.213 23.5751L36.2175 23.9724C36.2183 24.0421 36.1888 24.1071 36.1287 24.167C36.0685 24.2267 35.9972 24.2572 35.914 24.2578C35.8303 24.2586 35.758 24.2296 35.697 24.1709C35.6357 24.1121 35.6048 24.0476 35.6039 23.9781L35.5997 23.5911C35.251 23.5666 34.9129 23.493 34.586 23.3705C34.2587 23.2481 33.9687 23.073 33.7165 22.8453C33.6088 22.7486 33.515 22.6395 33.4342 22.5182C33.3532 22.3972 33.3119 22.2702 33.3106 22.1376C33.3095 22.047 33.3353 21.9562 33.3874 21.865C33.4988 21.6757 33.6719 21.58 33.9069 21.5778C34.0813 21.5761 34.2258 21.6308 34.3404 21.7411C34.4554 21.8518 34.5136 21.9801 34.5154 22.1264C34.5165 22.2243 34.4907 22.3186 34.4388 22.4098C34.5693 22.541 34.735 22.6442 34.9369 22.7189C35.1382 22.7939 35.3565 22.8404 35.5918 22.8593L35.564 20.3385C35.2446 20.2369 34.94 20.1195 34.6511 19.9863C34.3616 19.853 34.1228 19.6757 33.9349 19.4541C33.7467 19.2329 33.6507 18.9479 33.6469 18.5991C33.6425 18.2089 33.7279 17.8837 33.9032 17.6239C34.0784 17.3645 34.309 17.1618 34.5955 17.0162C34.8815 16.8707 35.1914 16.7789 35.5245 16.7407L35.5176 16.1131C35.5167 16.0365 35.5463 15.9699 35.6066 15.9136C35.6664 15.8574 35.7381 15.8287 35.8217 15.8279C35.9049 15.8271 35.9769 15.8545 36.0382 15.9096C36.0996 15.9648 36.1307 16.0308 36.1314 16.1074L36.138 16.7141C36.3806 16.7259 36.6161 16.7604 36.8438 16.8175C37.0718 16.8748 37.2808 16.9512 37.4717 17.0471C37.6465 17.1362 37.8067 17.2496 37.9524 17.3877C38.0979 17.5258 38.1718 17.6855 38.1738 17.8669C38.1755 18.0202 38.1184 18.1533 38.0023 18.2658C37.8858 18.3785 37.7445 18.4358 37.5777 18.4372C37.4035 18.4389 37.2572 18.3826 37.1385 18.2686C37.0195 18.1547 36.9595 18.0243 36.9577 17.8782C36.957 17.8155 36.9681 17.7525 36.9897 17.6897C36.9281 17.6207 36.822 17.5622 36.6695 17.5149C36.5176 17.4675 36.343 17.4377 36.1457 17.4255L36.1716 19.7789C36.4298 19.8532 36.6865 19.9345 36.9414 20.0228C37.1958 20.1112 37.4282 20.2239 37.6386 20.3614C37.8485 20.499 38.0166 20.67 38.144 20.8745C38.2713 21.0787 38.3367 21.3344 38.34 21.6411ZM34.4763 18.5705C34.4794 18.8425 34.5838 19.0543 34.79 19.2057C34.9965 19.3572 35.2514 19.4837 35.5558 19.5855L35.5324 17.4624C35.2525 17.5138 35.006 17.6241 34.7917 17.7933C34.5776 17.9627 34.4726 18.2219 34.4763 18.5705ZM37.5103 21.6489C37.507 21.3421 37.3737 21.1098 37.1106 20.9519C36.8476 20.7941 36.5373 20.6539 36.1797 20.5317L36.2051 22.843C36.5529 22.7912 36.8586 22.6677 37.1219 22.4737C37.385 22.2796 37.5143 22.0043 37.5103 21.6489Z" fill="white"/>
<path d="M28.7185 96.9161C26.6375 96.9161 24.6368 96.2637 23.0023 95.037C21.1239 93.6277 19.9542 91.6294 19.7087 89.4103C19.4631 87.1911 20.1713 85.0167 21.7026 83.2879C23.2338 81.5591 25.4051 80.4827 27.8165 80.2564C30.2277 80.0316 32.5903 80.6826 34.4685 82.0919C36.3471 83.5012 37.5168 85.4995 37.7623 87.7186C38.269 92.2997 34.6318 96.4061 29.6543 96.8725C29.3411 96.9017 29.0288 96.9161 28.7185 96.9161ZM28.7518 80.4157C28.4488 80.4157 28.1442 80.4301 27.8386 80.4589C25.4861 80.6793 23.3678 81.7297 21.8738 83.4164C20.3799 85.1032 19.6889 87.2244 19.9283 89.3895C20.1678 91.5547 21.3091 93.5047 23.1418 94.8798C24.9747 96.2548 27.2789 96.892 29.6322 96.6702C31.9847 96.4498 34.103 95.3994 35.5974 93.7127C37.0913 92.0259 37.7823 89.9047 37.5429 87.7396C37.3032 85.5745 36.1622 83.6245 34.3292 82.2493C32.7342 81.0529 30.7819 80.4157 28.7518 80.4157Z" fill="white"/>
<path d="M28.7301 95.97C24.6562 95.97 21.1518 93.1232 20.7305 89.3142C20.2812 85.2521 23.5067 81.6103 27.9206 81.1965C30.0572 80.9974 32.1537 81.5737 33.8195 82.8241C35.4852 84.0742 36.5227 85.8462 36.7401 87.8141C37.1895 91.8762 33.9643 95.518 29.5503 95.9318C29.2753 95.9576 29.0011 95.97 28.7301 95.97ZM28.7504 81.3379C28.4816 81.3379 28.2115 81.3503 27.9407 81.3761C23.6341 81.7795 20.4871 85.3325 20.9254 89.2963C21.3639 93.2591 25.2249 96.155 29.5308 95.7522C33.8374 95.3488 36.9842 91.7958 36.5459 87.832C36.3334 85.9121 35.3214 84.1833 33.6962 82.9635C32.2817 81.9026 30.5505 81.3379 28.7504 81.3379Z" fill="white"/>
<path d="M31.9343 88.2413C32.1989 88.5287 32.3499 88.8336 32.3885 89.1554C32.4267 89.4775 32.3779 89.7964 32.2417 90.1127C32.106 90.4287 31.9052 90.7178 31.6399 90.9796L31.9188 91.2827C31.9676 91.3359 31.9901 91.4031 31.9855 91.4846C31.9806 91.5658 31.9469 91.6312 31.8833 91.6806C31.8195 91.7304 31.7436 91.7505 31.656 91.7413C31.5679 91.7322 31.4995 91.7009 31.4505 91.6477L31.1786 91.3524C30.8932 91.5384 30.582 91.6804 30.2455 91.7785C29.9085 91.8766 29.5639 91.9124 29.2119 91.8854C29.0621 91.8742 28.9142 91.8455 28.7679 91.7994C28.6215 91.7539 28.5017 91.6804 28.4086 91.5792C28.345 91.5102 28.3017 91.4251 28.2786 91.3243C28.2329 91.1131 28.2998 90.9378 28.479 90.7978C28.612 90.6942 28.7612 90.6512 28.9259 90.6686C29.0912 90.6861 29.2252 90.7507 29.3278 90.8624C29.3964 90.937 29.4421 91.0247 29.4653 91.1255C29.6566 91.1498 29.8559 91.1318 30.063 91.0706C30.27 91.0099 30.4702 90.9175 30.6644 90.7938L28.8939 88.8704C28.5776 88.9799 28.2618 89.0684 27.9468 89.1359C27.6317 89.2035 27.3247 89.2074 27.0265 89.1472C26.7281 89.0877 26.4567 88.9248 26.2117 88.6585C25.9376 88.3607 25.7776 88.0605 25.7321 87.7575C25.6871 87.4548 25.7237 87.1631 25.8433 86.8828C25.9625 86.6027 26.1373 86.35 26.3671 86.1249L25.9263 85.646C25.8725 85.5875 25.8491 85.519 25.8563 85.4402C25.8632 85.3618 25.8985 85.2976 25.9623 85.2478C26.0258 85.1983 26.1 85.1772 26.1856 85.1835C26.2713 85.1898 26.3408 85.2225 26.3946 85.281L26.8206 85.7439C27.0155 85.6104 27.2205 85.4987 27.4355 85.4085C27.6507 85.3185 27.8645 85.2545 28.0779 85.2162C28.2742 85.182 28.4763 85.1749 28.6842 85.1958C28.8921 85.2166 29.0596 85.2962 29.187 85.4345C29.2947 85.5515 29.343 85.6876 29.3318 85.8424C29.3203 85.9976 29.2512 86.1247 29.1239 86.2239C28.991 86.3275 28.8394 86.3703 28.669 86.3522C28.4984 86.3344 28.3618 86.2696 28.2589 86.1578C28.2148 86.1099 28.1797 86.0551 28.1528 85.9939C28.0574 85.9769 27.9352 85.9945 27.7851 86.0475C27.6352 86.1004 27.4803 86.18 27.3201 86.2864L28.9729 88.0823C29.2232 87.9876 29.477 87.8992 29.7345 87.8174C29.9917 87.7357 30.2488 87.686 30.5059 87.6681C30.7628 87.6506 31.0111 87.6833 31.251 87.7658C31.4911 87.8489 31.7189 88.0073 31.9343 88.2413ZM26.8305 88.1493C27.0214 88.3567 27.249 88.4584 27.5125 88.4538C27.7765 88.4489 28.0605 88.3965 28.3653 88.2959L26.8742 86.676C26.6946 86.88 26.5814 87.1099 26.5339 87.366C26.4867 87.6222 26.5856 87.8832 26.8305 88.1493ZM31.3011 88.7349C31.0857 88.5009 30.822 88.4003 30.5099 88.4335C30.1978 88.4666 29.8619 88.5411 29.5019 88.6573L31.1252 90.421C31.3569 90.1767 31.5066 89.902 31.5743 89.598C31.6423 89.2939 31.5509 89.0063 31.3011 88.7349Z" fill="white"/>
<path d="M82.9511 61.4413C76.1557 61.4413 70.6271 56.353 70.6271 50.0988C70.6271 43.8444 76.1557 38.7561 82.9511 38.7561C89.7468 38.7561 95.2754 43.8444 95.2754 50.0988C95.2754 56.353 89.7468 61.4413 82.9511 61.4413ZM82.9511 39.0319C76.321 39.0319 70.927 43.9963 70.927 50.0988C70.927 56.2013 76.321 61.1653 82.9511 61.1653C89.5815 61.1653 94.9757 56.2011 94.9757 50.0988C94.9757 43.9965 89.5815 39.0319 82.9511 39.0319Z" fill="white"/>
<path d="M82.9514 60.1579C76.9251 60.1579 72.0226 55.6452 72.0226 50.0991C72.0226 44.5528 76.9253 40.0408 82.9514 40.0408C88.9774 40.0408 93.8801 44.553 93.8801 50.0991C93.8801 55.6452 88.9777 60.1579 82.9514 60.1579ZM82.9514 40.2853C77.0718 40.2853 72.2883 44.6879 72.2883 50.0991C72.2883 55.5108 77.0718 59.9127 82.9514 59.9127C88.8309 59.9127 93.6144 55.5108 93.6144 50.0991C93.6144 44.6879 88.8309 40.2853 82.9514 40.2853Z" fill="white"/>
<path d="M87.322 50.0671C87.6365 50.489 87.7952 50.92 87.7992 51.3598C87.8027 51.8 87.6888 52.2247 87.4577 52.6348C87.2271 53.0449 86.9126 53.4099 86.5149 53.7301L86.8466 54.1751C86.9046 54.2531 86.9249 54.347 86.9064 54.4565C86.8876 54.5657 86.8325 54.6496 86.7391 54.7085C86.6453 54.7676 86.5398 54.7853 86.4228 54.7617C86.3052 54.7382 86.2174 54.6872 86.1593 54.6092L85.8362 54.1757C85.4228 54.391 84.981 54.5436 84.5116 54.6334C84.0415 54.7234 83.5705 54.7278 83.0988 54.647C82.898 54.6129 82.7025 54.5554 82.5115 54.4747C82.3204 54.3947 82.1697 54.2801 82.0591 54.1317C81.9836 54.0303 81.9377 53.9098 81.9214 53.7707C81.8912 53.4796 82.0077 53.2511 82.271 53.0847C82.4661 52.9617 82.6742 52.9225 82.8942 52.9669C83.1149 53.0116 83.2864 53.1158 83.4085 53.2795C83.4901 53.389 83.5387 53.5133 83.555 53.6525C83.8099 53.7096 84.0819 53.7104 84.371 53.6541C84.6597 53.5982 84.9441 53.4987 85.2249 53.3561L83.12 50.5329C82.6764 50.6408 82.2363 50.7206 81.8007 50.7718C81.3645 50.8232 80.9494 50.7896 80.5554 50.6706C80.1611 50.5522 79.8185 50.2977 79.5274 49.9071C79.2014 49.4699 79.0302 49.044 79.0141 48.6288C78.9982 48.214 79.0915 47.8248 79.295 47.461C79.4978 47.0976 79.772 46.7781 80.116 46.5033L79.5921 45.8003C79.5281 45.7146 79.5067 45.6189 79.5281 45.5135C79.549 45.4085 79.6064 45.326 79.7 45.2669C79.7931 45.208 79.8967 45.1889 80.0114 45.2082C80.1262 45.2277 80.2151 45.2805 80.2791 45.3662L80.7856 46.0457C81.0688 45.8901 81.3628 45.7649 81.6667 45.6705C81.9708 45.5762 82.2694 45.5167 82.5636 45.4917C82.834 45.4704 83.1081 45.4865 83.386 45.5409C83.6638 45.5953 83.8784 45.7239 84.0298 45.927C84.1578 46.0989 84.2028 46.2888 84.1644 46.4964C84.1258 46.7048 84.0134 46.8677 83.8265 46.9857C83.6314 47.109 83.4202 47.1476 83.1926 47.1017C82.9646 47.056 82.7898 46.951 82.6676 46.7873C82.6151 46.7168 82.5758 46.6384 82.5486 46.5523C82.4224 46.5173 82.2544 46.5254 82.0437 46.5783C81.8333 46.6307 81.612 46.7186 81.3796 46.8423L83.3447 49.4783C83.6972 49.3822 84.0534 49.2948 84.4136 49.2168C84.7733 49.139 85.1282 49.1043 85.4782 49.1128C85.8281 49.1218 86.1587 49.1973 86.4703 49.3391C86.7819 49.4807 87.0658 49.7234 87.322 50.0671ZM80.4391 49.2965C80.6662 49.601 80.9585 49.7671 81.3151 49.7941C81.6727 49.8211 82.0644 49.7862 82.4912 49.6889L80.7186 47.3111C80.4453 47.564 80.2577 47.8604 80.1555 48.2004C80.0534 48.5408 80.148 48.9061 80.4391 49.2965ZM86.3928 50.654C86.1368 50.3105 85.7954 50.1413 85.3688 50.1463C84.9422 50.1514 84.4769 50.2097 83.9733 50.3212L85.9033 52.9101C86.2529 52.6092 86.4961 52.257 86.6332 51.8548C86.77 51.4524 86.6897 51.0521 86.3928 50.654Z" fill="white"/>
<path d="M73.5546 89.7658L59.8065 89.4404L46.4743 75.5367L38.8064 77.1638C38.8064 77.1638 38.9243 81.9431 38.6885 83.2447C38.4528 84.5528 38.0922 86.8307 34.7923 87.6986C33.6413 87.9984 32.8649 87.437 32.338 86.5693L33.0277 83.5878L31.2495 82.2687C31.2495 82.2687 29.5996 83.1364 26.9997 82.0518C26.2371 81.7326 25.9666 80.9159 25.9597 79.9206L27.8865 76.8314L27.4779 74.1268C26.9511 73.8077 26.764 73.0931 26.8055 72.1551L29.5353 68.9841L29.0449 64.6448C30.2998 61.7096 31.6033 59.2465 31.6033 59.2465C31.6033 59.2465 28.8926 57.7216 29.3641 54.4672C29.3919 54.2886 29.502 54.1753 29.6892 53.9902C30.3958 53.2622 35.0383 53.0898 35.0383 53.0898C35.0383 53.0898 37.3615 50.8316 39.6069 50.2389C40.0697 50.1169 40.4107 50.0055 40.7755 49.9176C49.2545 47.8821 59.6887 46.3125 61.8171 46.7527C65.4709 47.512 73.8527 65.0019 76.4458 71.8421C79.0454 78.6823 73.5546 89.7658 73.5546 89.7658Z" fill="#CA6140"/>
<path d="M33.5917 59.6309C32.2544 59.6309 31.5945 59.3784 31.5504 59.3605C31.4802 59.3327 31.4484 59.2583 31.4785 59.1937C31.5089 59.1291 31.5901 59.0995 31.6597 59.1273C31.6771 59.1342 33.4438 59.8017 37.1163 58.9041C40.8398 57.9935 44.2631 56.6959 44.2971 56.6825L46.5384 55.8141C46.6092 55.7869 46.6895 55.8176 46.7193 55.8822C46.7489 55.9468 46.7158 56.0211 46.6458 56.0483L44.4037 56.9173C44.3684 56.9307 40.929 58.2344 37.1869 59.1492C35.6756 59.5187 34.4833 59.6309 33.5917 59.6309Z" fill="#371005"/>
<path d="M39.6297 50.2292C38.6785 52.3044 36.7451 53.8999 34.5317 54.6856C33.6489 54.9974 32.6976 55.1955 31.7713 55.0695C30.9693 54.9675 30.186 54.5897 29.6824 53.9899C30.7766 52.8083 34.855 51.4348 39.6297 50.2292Z" fill="#FFECDC"/>
<path d="M30.9374 66.6735C30.8403 67.8731 30.5145 69.0535 29.9875 70.151C29.6617 70.8209 29.2318 71.491 28.5662 71.8993C28.164 72.1481 27.3044 72.4225 26.8052 72.1546C26.8813 70.1957 27.9422 67.2349 29.0444 64.6445C29.5852 64.5488 30.1815 64.6763 30.549 65.0592C30.9513 65.4866 30.9791 66.112 30.9374 66.6735Z" fill="#FFECDC"/>
<path d="M29.121 74.3882C29.128 75.2177 29.0932 76.0408 29.0309 76.8639C28.9685 77.5594 28.8784 78.274 28.5317 78.8929C28.185 79.5118 27.5264 80.0288 26.7639 80.0541C26.4864 80.0606 26.2231 80.0095 25.9596 79.9201C25.9528 77.7761 27.1799 74.809 27.4363 74.2285C27.9561 74.4392 28.5871 74.4903 29.121 74.3882Z" fill="#FFECDC"/>
<path d="M34.9655 84.9931C34.9584 85.1653 34.9308 85.3441 34.8337 85.4907C34.7227 85.6567 34.5494 85.7651 34.376 85.8608C33.9184 86.1224 33.447 86.365 32.927 86.486C32.6982 86.537 32.4971 86.5626 32.3378 86.5689C31.4781 85.1588 31.291 82.9445 31.2561 82.3959C32.3029 82.2171 33.2327 81.3843 33.8703 80.606C34.1897 81.9844 35.0487 83.5828 34.9655 84.9931Z" fill="#FFECDC"/>
<path d="M29.2249 74.631C28.0598 74.631 27.4195 74.362 27.3772 74.3431C27.3085 74.3133 27.2789 74.2379 27.3114 74.1743C27.3438 74.1114 27.4259 74.0845 27.495 74.1132C27.5109 74.1207 29.1205 74.788 31.9164 73.9485C34.7195 73.1059 38.6405 65.8318 38.68 65.7583C38.6959 65.7284 38.7237 65.7056 38.7577 65.6947L45.2482 63.5769C45.3179 63.5525 45.3987 63.5872 45.4245 63.6539C45.4499 63.7203 45.4124 63.7928 45.3404 63.8162L38.9027 65.9171C38.5315 66.6035 34.8266 73.3411 32.0022 74.1896C30.8839 74.5263 29.9521 74.631 29.2249 74.631Z" fill="#371005"/>
<path d="M29.4199 82.6638C27.7024 82.6638 26.686 81.9784 26.6247 81.9358C26.5638 81.8935 26.5516 81.8141 26.5975 81.758C26.643 81.7024 26.7297 81.6916 26.7906 81.7326C26.8116 81.7475 28.9268 83.1637 32.1983 81.8269C34.5426 80.8698 39.7503 71.7665 39.8031 71.6747C39.8225 71.6404 39.8576 71.6166 39.8984 71.6093L43.7925 70.9032C43.866 70.8909 43.9397 70.9339 43.9545 71.0034C43.9693 71.0718 43.9205 71.1389 43.8459 71.1523L40.0165 71.847C39.5391 72.6802 34.6709 81.0956 32.3104 82.0593C31.2071 82.5094 30.2345 82.6638 29.4199 82.6638Z" fill="#371005"/>
<path d="M82.6958 22.6063L55.723 56.5615C55.2991 57.0953 54.5023 57.2426 53.8872 56.9009L36.5113 47.2505L35.0021 43.8816L31.5194 44.4811L28.8694 43.0074C28.1808 42.6245 27.9897 41.7842 28.4536 41.1793L55.9455 5.32709C56.3858 4.75286 57.2476 4.61432 57.8733 5.01732L60.7352 6.86007L61.1755 9.98515L64.6039 9.35506L82.3718 20.8081C83.0081 21.2182 83.1542 22.0292 82.6958 22.6063Z" fill="#D4DEE7"/>
<path d="M64.6038 9.35509C62.3021 11.601 57.3935 16.7123 50.724 25.4666C43.479 34.9612 38.4596 43.6966 36.5114 47.2507L31.5198 44.4815C34.3761 40.0597 41.0873 29.978 48.1244 21.4467C54.6762 13.509 58.8428 8.89562 60.7356 6.86011L64.6038 9.35509Z" fill="#371005"/>
<path d="M37.9772 48.3004C37.9635 48.3004 37.9496 48.2974 37.9368 48.2911C37.8945 48.2705 37.8784 48.2224 37.9006 48.1834C38.0468 47.9291 52.663 22.615 65.8832 10.2057C65.9165 10.1747 65.9712 10.1736 66.0059 10.2045C66.0401 10.2356 66.0407 10.286 66.0072 10.3175C52.8047 22.7101 38.1999 48.0038 38.0538 48.2579C38.0386 48.2848 38.0084 48.3004 37.9772 48.3004Z" fill="#371005"/>
<path d="M53.0405 31.3156L43.1676 44.6406L45.8001 46.2928L55.673 32.9677L53.0405 31.3156Z" fill="white"/>
<path d="M65.4097 14.6222L55.5367 27.9473L58.1693 29.5994L68.0422 16.2744L65.4097 14.6222Z" fill="white"/>
<path d="M73.558 89.7658C73.558 89.7658 71.9087 94.9878 70.2292 100.999H36.5095C36.4016 97.1848 36.7673 92.7576 38.5068 88.4575C41.1939 81.8224 42.3193 77.6506 42.7452 76.2539C42.8591 75.9007 42.8662 75.7071 42.8662 75.7071C42.8662 75.7071 43.197 74.8449 43.365 73.3324C43.4369 72.681 43.527 71.9193 43.6289 71.0637C43.8807 69.0599 44.7492 66.7321 45.1871 64.0658C45.5949 61.5375 45.8739 59.3192 46.4557 56.7359C46.6956 55.6871 46.9611 54.0376 47.231 53.0384C47.6868 51.3325 47.8633 49.712 48.4151 48.2989C49.6925 44.9812 51.258 42.9477 53.0512 42.9035C53.5191 42.8925 53.9091 42.8118 54.2929 43.0989C55.1865 43.7503 55.9843 44.8813 56.5001 46.7691C56.7281 47.5971 56.812 48.7845 56.9799 49.7837C57.2139 51.1583 56.9614 52.7012 57.1053 54.302C57.5551 59.3308 58.0475 65.1794 58.0775 70.1805C58.1194 75.3362 58.1254 79.5537 58.5094 80.9669C58.5873 81.2539 58.7193 81.5409 58.8872 81.8279C61.4063 85.9844 73.216 89.661 73.5519 89.7658C73.558 89.7658 73.558 89.7658 73.558 89.7658Z" fill="#CA6140"/>
<path d="M59.1007 85.0025C59.0287 85.0025 58.968 84.951 58.9632 84.8839C58.9453 84.6349 57.1828 59.9353 57.1338 57.4541C57.128 57.1677 57.1267 56.8041 57.1252 56.3794C57.1106 52.3955 57.0766 43.0656 53.315 42.9709C53.2909 42.9701 53.2666 42.9699 53.2428 42.9699C48.817 42.9699 47.1384 53.2903 45.9104 60.8374C45.7435 61.8632 45.5855 62.8341 45.4303 63.7169C44.1465 71.0219 42.2617 78.7445 42.2425 78.8215C42.2259 78.8899 42.1538 78.9326 42.0774 78.9177C42.0033 78.9023 41.9565 78.8345 41.9735 78.7658C41.9922 78.6884 43.8753 70.9735 45.158 63.676C45.3127 62.7947 45.4707 61.8242 45.6374 60.7994C46.8801 53.1615 48.5802 42.7156 53.2434 42.7156C53.2702 42.7156 53.296 42.7158 53.3227 42.7166C57.3518 42.8182 57.3867 52.3205 57.4015 56.3782C57.403 56.8015 57.4044 57.1643 57.4101 57.449C57.4591 59.9247 59.2212 84.6178 59.2388 84.8669C59.2437 84.9367 59.1863 84.9973 59.1102 85.0017C59.1069 85.0025 59.104 85.0025 59.1007 85.0025Z" fill="#371005"/>
<path d="M49.3442 48.4339C49.4727 47.8709 49.6214 47.3125 49.8245 46.7724C50.353 45.3655 52.2979 42.8724 54.2509 43.9567C55.1637 44.4634 55.3076 45.6964 55.4842 46.5729C55.7391 47.84 55.8422 49.1319 55.8759 50.4189C55.885 50.7634 55.8841 51.1178 55.7563 51.4369C55.4394 52.2293 54.4665 52.8125 53.6137 52.9445C52.5206 53.1137 50.2096 53.2519 49.2182 52.5696C48.5298 52.0957 48.8156 50.8956 48.958 50.2535C49.0913 49.6523 49.2058 49.0403 49.3442 48.4339Z" fill="#FFECDC"/>
<path d="M96.2064 66.9621L90.8378 71.686L96.8621 75.6916L89.7272 73.7776L88.9671 80.5815L87.2037 73.9368L80.4274 76.7353L85.796 72.0116L79.7717 68.0058L86.9066 69.92L87.6667 63.116L89.4299 69.7608L96.2064 66.9621Z" fill="#94862E"/>
<path d="M29.4932 38.734L26.1844 41.6456L29.8975 44.1144L25.5 42.9346L25.0315 47.1281L23.9447 43.0327L19.7681 44.7577L23.0771 41.8463L19.364 39.3773L23.7615 40.557L24.2299 36.3635L25.3168 40.4589L29.4932 38.734Z" fill="#94862E"/>
<path d="M87.2048 21.1022L83.8958 24.0138L87.6089 26.4825L83.2114 25.3028L82.7429 29.4963L81.6561 25.4009L77.4795 27.1258L80.7885 24.2144L77.0754 21.7455L81.4729 22.9252L81.9413 18.7317L83.0282 22.8271L87.2048 21.1022Z" fill="#94862E"/>
<path d="M70.1843 8.94176L71.5682 9.29662L70.481 9.49223C69.2457 9.71425 68.2569 10.5664 67.9347 11.6862L67.5611 12.9848L67.3452 11.8968C67.0945 10.6344 66.0053 9.65493 64.6281 9.45364L63.5542 9.29682L64.8343 9.02748C66.0901 8.76321 67.0623 7.84814 67.3209 6.68687L67.5611 5.60889L67.8809 6.77137C68.1704 7.82254 69.0493 8.65089 70.1843 8.94176Z" fill="white"/>
<path d="M85.1916 90.2164L86.5754 90.5712L85.4883 90.7669C84.253 90.9889 83.2642 91.841 82.942 92.9608L82.5684 94.2594L82.3523 93.1714C82.1016 91.909 81.0124 90.9296 79.6352 90.7283L78.5613 90.5712L79.8414 90.3019C81.0972 90.0376 82.0693 89.1226 82.328 87.9613L82.5681 86.8833L82.8879 88.0458C83.1775 89.0972 84.0563 89.9253 85.1916 90.2164Z" fill="white"/>
<path d="M24.9583 68.9818L26.3421 69.3367L25.2549 69.5323C24.0196 69.7543 23.0309 70.6064 22.7086 71.7262L22.335 73.0248L22.1191 71.9369C21.8684 70.6744 20.7793 69.695 19.4021 69.4937L18.3281 69.3369L19.6084 69.0675C20.8642 68.8033 21.8364 67.8882 22.0951 66.7269L22.3352 65.6489L22.655 66.8114C22.9444 67.8624 23.8232 68.6907 24.9583 68.9818Z" fill="white"/>
</svg>
