<svg width="113" height="104" viewBox="0 0 113 104" fill="none" xmlns="http://www.w3.org/2000/svg">
<g clip-path="url(#clip0)">
<path d="M42.9297 9.46503H41.0908H39.2542C39.2542 9.46503 6.16443 7.784 6.16443 53.1611C6.16443 65.034 7.17103 78.0922 16.9012 86.5954C20.3918 89.6434 24.5029 91.9938 28.4722 94.4728C32.4434 96.9517 35.9464 100.219 41.0908 100.219C46.2373 100.219 49.7382 96.9517 53.7117 94.4728C57.681 91.994 61.7921 89.6437 65.2827 86.5954C75.0128 78.0922 76.0175 65.0338 76.0175 53.1611C76.0175 7.7842 42.9297 9.46503 42.9297 9.46503Z" fill="#FDD7AD"/>
<path d="M53.7098 94.4722C49.7386 96.9511 46.2376 100.219 41.0912 100.219C35.9467 100.219 32.4438 96.9511 28.4725 94.4722C26.5372 93.2639 24.571 92.086 22.6582 90.8437V104H59.6393V90.772C57.6894 92.0405 55.6822 93.2411 53.7098 94.4722Z" fill="#DBB38D"/>
<path d="M42.8805 9.50296H41.0416H39.2028C39.2028 9.50296 7.2059 7.9109 6.16443 51.0568C6.67601 50.6615 14.5839 44.7034 28.6838 43.6786C33.5304 43.3268 38.3359 42.4969 42.8332 40.7969C46.7738 39.3089 49.4714 35.2869 52.6415 30.8339C55.9266 26.2184 62.8894 25.0496 67.551 28.5175C69.7944 30.1853 72.0546 32.5677 73.9138 35.9675H73.9857C66.8627 8.30596 42.8805 9.50296 42.8805 9.50296Z" fill="#F0C419"/>
<path d="M101.204 30.6296C102.246 28.8616 102.889 26.5869 102.726 24.5845C100.66 -0.815533 76.018 0.00324763 76.018 0.00324763C57.0035 0.00324763 52.4673 8.39497 51.5695 10.7357C61.3735 13.6156 76.018 22.9658 76.018 53.1611C76.018 59.868 75.6956 66.953 73.6614 73.384L73.9633 73.747C97.3333 89.4639 106.835 68.0745 106.835 68.0745C79.6134 61.2201 98.8292 34.6627 101.204 30.6296Z" fill="#C49A13"/>
</g>
<defs>
<clipPath id="clip0">
<rect width="113" height="104" fill="white"/>
</clipPath>
</defs>
</svg>
