<svg width="113" height="104" viewBox="0 0 113 104" fill="none" xmlns="http://www.w3.org/2000/svg">
<g clip-path="url(#clip0)">
<path fill-rule="evenodd" clip-rule="evenodd" d="M45.9086 33.0203C67.5287 38.2195 74.3851 38.5707 94.3909 40.7586L93.0085 29.0646C92.6019 25.5756 92.7957 24.4815 94.6849 22.7657C97.6752 20.0597 102.192 17.9752 102.73 9.85694C93.0021 12.1427 91.0001 13.5707 82.6049 8.80333C57.5132 -5.43532 44.4136 6.31607 35.7806 12.189C27.8732 9.53479 20.8542 14.734 19.7156 21.7814C18.6209 28.5869 18.6145 30.8268 18.6145 40.7588C24.4512 35.5078 28.6426 33.6768 35.0485 32.0185C39.5903 30.8497 41.5045 31.961 45.9086 33.0203Z" fill="#FFCD69"/>
<path fill-rule="evenodd" clip-rule="evenodd" d="M65.9397 86.9067C80.1841 82.0357 92.0765 68.4877 94.0908 56.5982C94.2848 55.4294 94.3912 54.2779 94.3912 53.155V40.7587C74.3851 38.5708 67.5287 38.2196 45.9089 33.0204C41.5048 31.9609 39.5906 30.8498 35.0487 32.0186C28.6428 33.6769 24.4515 35.5077 18.6147 40.7589V53.1552C18.6147 54.2779 18.7149 55.4296 18.9087 56.5984C19.9659 62.8166 23.7194 69.4899 29.0995 75.1382C41.1293 65.5976 56.8127 61.124 62.5742 64.0431C68.3482 66.9738 63.4437 76.7332 56.2808 88.6631H56.4998C59.5027 88.6627 62.5115 88.0754 65.9397 86.9067Z" fill="#FFDCD5"/>
<path fill-rule="evenodd" clip-rule="evenodd" d="M94.0908 56.598H97.3625C107.134 56.598 107.928 40.7585 99.3144 40.7585H94.3912V53.1548C94.3912 54.2777 94.2848 55.4292 94.0908 56.598Z" fill="#FFDCD5"/>
<path fill-rule="evenodd" clip-rule="evenodd" d="M13.6853 40.7588C5.07109 40.7588 5.86562 56.5983 15.6372 56.5983H18.909C18.715 55.4295 18.615 54.278 18.615 53.1551V40.7588H13.6853Z" fill="#FFDCD5"/>
<path fill-rule="evenodd" clip-rule="evenodd" d="M41.1106 95.4856C42.4556 95.4856 44.1634 96.3262 44.9016 97.3627L48.1859 101.969C50.9198 97.3972 53.741 92.8946 56.2809 88.6627C63.4438 76.7327 68.3483 66.9734 62.5742 64.0427C56.8125 61.1236 41.1294 65.5972 29.0995 75.1378C24.8143 78.5349 20.9982 82.5825 18.252 87.16L24.2387 87.1427C25.5899 87.1427 27.2979 87.9832 28.0359 89.0198L31.3264 93.6258C32.0647 94.6622 33.7725 95.5086 35.1174 95.5029L41.1106 95.4856Z" fill="#FAF7F5"/>
<path d="M105.596 41.745C104.116 39.7993 101.885 38.7276 99.3145 38.7276H96.371L95.203 28.8484C94.8263 25.6157 95.0616 25.2775 96.2324 24.2143C96.6837 23.8058 97.1934 23.3974 97.7327 22.9647C100.558 20.6984 104.428 17.5947 104.933 9.98115C104.976 9.33338 104.68 8.70573 104.136 8.29216C103.593 7.8786 102.868 7.7291 102.184 7.88957C101.006 8.16643 99.9243 8.43455 98.9705 8.67119C91.9993 10.4 90.3432 10.8109 83.7633 7.07483C72.9946 0.963819 63.3432 -1.15701 54.2573 0.590881C46.5424 2.07532 40.9313 6.02326 36.4227 9.19566C36.0608 9.45018 35.7099 9.69718 35.3676 9.93585C31.7004 9.00188 27.9837 9.43271 24.7848 11.1843C20.9462 13.2864 18.235 17.1364 17.5328 21.4839C16.4893 27.9717 16.4138 30.474 16.4085 38.7278H13.6852C11.1143 38.7278 8.88385 39.7995 7.40381 41.7452C6.18973 43.3418 5.521 45.4898 5.521 47.7939C5.521 53.0467 9.06637 58.6296 15.6369 58.6296H17.0801C18.3668 64.0595 21.4677 69.7403 26.0413 74.9466C22.034 78.3794 18.7034 82.1984 16.3191 86.1798C15.9417 86.8101 15.9547 87.5769 16.3533 88.1961C16.751 88.8131 17.4725 89.1916 18.2518 89.1916H18.2587L24.2386 89.1743C24.8431 89.1743 25.8645 89.6764 26.1918 90.1361L29.4807 94.7399C30.6176 96.3361 33.0316 97.5345 35.1014 97.5345H35.1243L41.1105 97.5173C41.7119 97.5173 42.73 98.0194 43.0564 98.4774L46.3407 103.083C46.7494 103.657 47.444 104 48.1856 104C48.214 104 48.2427 104 48.2714 103.999C49.045 103.971 49.7461 103.572 50.1194 102.948C51.5597 100.54 53.0384 98.1285 54.4681 95.7966C55.5476 94.0363 56.595 92.3272 57.5977 90.6697C60.4439 90.5476 63.3699 89.9492 66.7098 88.8107C69.5278 87.8455 72.3314 86.5345 75.0427 84.9142C76.0652 84.3032 76.3557 83.0454 75.6918 82.1045C75.0284 81.1637 73.6615 80.8963 72.6393 81.5071C70.1985 82.9656 67.6856 84.1419 65.1733 85.0025C63.3827 85.6131 61.7447 86.0433 60.1914 86.3084C65.2269 77.6478 68.396 70.7238 66.9828 66.1428C66.4536 64.4264 65.3285 63.1215 63.6383 62.2641C58.9965 59.9125 50.0922 61.2548 40.3998 65.7662C36.4483 67.6055 32.7366 69.814 29.3845 72.2879C23.9945 66.0975 20.8217 59.0612 20.8217 53.1556V41.624C26.0791 37.0356 29.8632 35.4713 35.6432 33.9751C38.6805 33.1935 40.1034 33.582 42.9368 34.3559C43.6468 34.5499 44.4513 34.7697 45.3508 34.986C64.5997 39.6151 72.2963 40.4373 87.6301 42.0757C89.0735 42.2299 90.5873 42.3918 92.1843 42.5646V53.1558C92.1843 58.1006 89.9867 63.8393 85.9962 69.3148C85.3173 70.2463 85.5875 71.5081 86.5996 72.1329C86.977 72.3659 87.4041 72.4774 87.8269 72.4774C88.5376 72.4774 89.2357 72.1618 89.6616 71.5776C92.763 67.3225 94.8972 62.8729 95.915 58.63H97.3626C103.933 58.63 107.479 53.0471 107.479 47.7943C107.479 45.4898 106.81 43.3416 105.596 41.745ZM42.3919 69.3905C51.3432 65.2238 58.785 64.4416 61.509 65.8216C62.1543 66.1491 62.533 66.59 62.7372 67.2516C64.1316 71.772 57.2648 82.9703 50.6243 93.7999C49.7704 95.1921 48.8995 96.6125 48.0284 98.0458L46.7475 96.2491C45.6128 94.656 43.1895 93.4546 41.1039 93.4546L35.1074 93.4718C35.1058 93.4718 35.1045 93.4718 35.1027 93.4718C34.5075 93.4718 33.4991 92.9711 33.1707 92.51L29.8818 87.906C28.7471 86.3129 26.3212 85.1114 24.232 85.1114L22.2198 85.1173C26.882 78.8907 34.05 73.2735 42.3919 69.3905ZM15.6371 54.5671C11.4535 54.5671 9.93506 50.5164 9.93506 47.7937C9.93506 46.3369 10.3306 44.9812 11.0203 44.0745C11.6775 43.2102 12.5493 42.7899 13.6855 42.7899H16.4081V53.1552C16.4081 53.6219 16.424 54.0928 16.4551 54.5671H15.6371ZM88.139 38.0402C73.01 36.4238 65.4161 35.6123 46.4667 31.0556C45.6375 30.8561 44.903 30.6554 44.1926 30.4612C42.2831 29.9396 40.6245 29.4864 38.6097 29.4864C37.3967 29.4864 36.0546 29.6508 34.4514 30.0633C29.228 31.4153 25.3209 32.8841 20.8276 36.2133C20.8548 29.9774 21.0099 27.6059 21.8989 22.0801C22.4079 18.9282 24.3306 16.16 27.0415 14.6754C28.7244 13.7538 31.4748 12.9055 35.0246 14.0973C35.7211 14.3311 36.4969 14.2279 37.0926 13.8224C37.7423 13.3804 38.4033 12.9153 39.1032 12.4229C47.7091 6.36796 59.4946 -1.92462 81.4464 10.5322C89.6458 15.1885 92.9276 14.377 100.111 12.5954C99.1967 16.4027 97.0656 18.1116 94.8332 19.9022C94.2682 20.3554 93.684 20.8238 93.1353 21.3204C90.4877 23.725 90.3953 25.6833 90.8148 29.2847L91.8976 38.443C90.5908 38.3021 89.3412 38.1686 88.139 38.0402ZM97.3626 54.5671H96.548C96.5802 54.0918 96.5981 53.6205 96.5981 53.1552V42.7899H99.3145C100.451 42.7899 101.322 43.2102 101.98 44.0745C102.669 44.9812 103.065 46.3369 103.065 47.7937C103.065 50.5164 101.546 54.5671 97.3626 54.5671Z" fill="black"/>
<path d="M80.3561 58.7563C80.922 57.763 80.506 56.5353 79.4265 56.0143L73.92 53.3566L79.4265 50.6989C80.5058 50.1779 80.922 48.9502 80.3561 47.9569C79.79 46.9637 78.4563 46.5804 77.3766 47.1014L68.1433 51.5579C67.4165 51.9085 66.9614 52.6014 66.9614 53.3566C66.9614 54.1118 67.4165 54.8047 68.1433 55.1553L77.3766 59.6118C77.7037 59.7699 78.0542 59.8446 78.3996 59.8446C79.1939 59.8446 79.9615 59.4487 80.3561 58.7563Z" fill="black"/>
<path d="M32.6439 58.7562C33.0385 59.4486 33.8059 59.8445 34.6004 59.8445C34.9456 59.8445 35.2963 59.7696 35.6234 59.6117L44.8567 55.1552C45.5835 54.8046 46.0386 54.1117 46.0386 53.3565C46.0386 52.6013 45.5835 51.9084 44.8567 51.5578L35.6234 47.1013C34.5442 46.58 33.2102 46.9633 32.6439 47.9568C32.078 48.9501 32.4941 50.1778 33.5735 50.6988L39.0801 53.3565L33.5735 56.0142C32.4943 56.5352 32.078 57.7629 32.6439 58.7562Z" fill="black"/>
<path d="M41.6071 79.4723C42.0062 79.4723 42.4098 79.3728 42.7733 79.1642C46.8177 76.8414 51.0813 75.136 55.1031 74.2323C56.2872 73.9662 57.0127 72.8671 56.7235 71.7773C56.4346 70.6876 55.2411 70.0203 54.0561 70.2858C49.584 71.2906 44.8744 73.1689 40.4368 75.7177C39.4028 76.3117 39.0876 77.5645 39.7329 78.5162C40.1514 79.1335 40.8709 79.4723 41.6071 79.4723Z" fill="black"/>
<path d="M79.8872 76.0969L79.8811 76.1025C79.0192 76.8957 79.0225 78.1791 79.8844 78.9723C80.3145 79.3682 80.8789 79.5658 81.4432 79.5658C82.0098 79.5658 82.5767 79.3668 83.0084 78.9695C83.8703 78.1762 83.8703 76.8901 83.0084 76.0969C82.1464 75.3037 80.7493 75.3037 79.8872 76.0969Z" fill="black"/>
</g>
<defs>
<clipPath id="clip0">
<rect width="113" height="104" fill="white"/>
</clipPath>
</defs>
</svg>
