<svg id="Layer_5" enable-background="new 0 0 64 64" height="512" viewBox="0 0 64 64" width="512" xmlns="http://www.w3.org/2000/svg"><path d="m34 31c0-.152-.012-.302-.023-.451l3.782-2.183-1-1.732-3.294 1.902c-.289-.638-.684-1.217-1.166-1.712l2.068-3.581-1.732-1-1.96 3.395c-.52-.26-1.082-.446-1.674-.546v-4.092h-2v4.09c-.592.1-1.154.286-1.674.546l-1.96-3.395-1.732 1 2.068 3.581c-.482.496-.877 1.075-1.166 1.712l-3.294-1.902-1 1.732 3.782 2.183c-.013.151-.025.301-.025.453v2h-4v2h4v2c0 .152.012.302.023.451l-3.782 2.183 1 1.732 3.294-1.902c.289.638.684 1.217 1.166 1.712l-2.068 3.581 1.732 1 1.96-3.395c.52.26 1.082.446 1.674.546v4.092h2v-4.09c.592-.1 1.154-.286 1.674-.546l1.96 3.395 1.732-1-2.068-3.581c.482-.496.877-1.075 1.166-1.712l3.294 1.902 1-1.732-3.782-2.183c.013-.151.025-.301.025-.453v-2h4v-2h-4zm-2 6c0 2.206-1.794 4-4 4s-4-1.794-4-4v-6c0-2.206 1.794-4 4-4s4 1.794 4 4z"/><path d="m25.793 31.5h1.414v2h-1.414z" transform="matrix(.707 -.707 .707 .707 -15.219 28.257)"/><path d="m27.5 29.793h2v1.414h-2z" transform="matrix(.707 -.707 .707 .707 -13.219 29.086)"/><path d="m28.793 35.5h1.414v2h-1.414z" transform="matrix(.707 -.707 .707 .707 -17.169 31.55)"/><path d="m25.5 36.793h2v1.414h-2z" transform="matrix(.707 -.707 .707 .707 -18.755 29.722)"/><path d="m29.793 31.5h1.414v2h-1.414z" transform="matrix(.707 -.707 .707 .707 -14.048 31.086)"/><circle cx="6" cy="58" r="1"/><path d="m55.223 15.782c2.263-1.415 3.777-3.922 3.777-6.782 0-4.411-3.589-8-8-8s-8 3.589-8 8c0 2.86 1.514 5.367 3.777 6.782-1.69.638-3.198 1.641-4.427 2.922-3.904-3.672-8.948-5.704-14.35-5.704-11.579 0-21 9.42-21 21 0 4.797 1.635 9.21 4.352 12.75l-8.552 7.259c-1.144.971-1.8 2.389-1.8 3.889 0 2.813 2.288 5.102 5.102 5.102 1.5 0 2.917-.655 3.887-1.797l7.621-8.978c3.067 1.756 6.609 2.775 10.39 2.775 6.258 0 12.039-2.725 16-7.405v11.405c0 2.206 1.794 4 4 4 1.201 0 2.266-.542 3-1.382.734.84 1.799 1.382 3 1.382 2.206 0 4-1.794 4-4v-20c2.757 0 5-2.243 5-5v-7c0-5.129-3.24-9.504-7.777-11.218zm-10.223-6.782c0-3.309 2.691-6 6-6s6 2.691 6 6-2.691 6-6 6-6-2.691-6-6zm7.958 8.195c-.192.515-1.063 1.213-1.958 1.691-.825-.442-1.762-1.144-1.958-1.691.634-.126 1.288-.195 1.958-.195s1.325.069 1.958.195zm-44.495 42.714c-.589.693-1.449 1.091-2.361 1.091-1.71 0-3.102-1.392-3.102-3.102 0-.912.398-1.774 1.095-2.365l8.549-7.257c.988 1.061 2.077 2.023 3.264 2.863zm35.537-15.67c-3.516 5.488-9.474 8.761-16 8.761-10.477 0-19-8.523-19-19s8.523-19 19-19c4.934 0 9.538 1.872 13.083 5.254-.387.567-.719 1.173-1.005 1.804-3.185-3.224-7.501-5.058-12.078-5.058-9.374 0-17 7.626-17 17s7.626 17 17 17c7.24 0 13.604-4.556 16-11.256zm-1.749-5.572c-2 6.129-7.72 10.333-14.251 10.333-8.271 0-15-6.729-15-15s6.729-15 15-15c4.378 0 8.485 1.9 11.342 5.206-.216.898-.342 1.831-.342 2.794v7c0 2.139 1.358 3.955 3.251 4.667zm13.749 20.333c0 1.103-.897 2-2 2s-2-.897-2-2v-19h2v-2h-6v2h2v19c0 1.103-.897 2-2 2s-2-.897-2-2v-25h10zm5-25c0 1.654-1.346 3-3 3v-13h-2v8h-10v-8h-2v13c-1.654 0-3-1.346-3-3v-7c0-4.142 2.532-7.703 6.128-9.219.577 1.754 2.937 2.896 3.464 3.132l.408.183.408-.183c.526-.235 2.886-1.378 3.464-3.132 3.596 1.516 6.128 5.077 6.128 9.219z"/><path d="m50 28h2v2h-2z"/><path d="m50 24h2v2h-2z"/></svg>