<svg id="Capa_1" enable-background="new 0 0 511.963 511.963" height="512" viewBox="0 0 511.963 511.963" width="512" xmlns="http://www.w3.org/2000/svg"><g><g><path d="m253.014 428.608c-58.501-58.501-57.511-153.964 2.968-211.215 58.17-55.064 148.73-53.748 205.365 2.894 47.764 47.77 55.858 120.178 24.295 176.306-1.294 2.301-1.628 5.02-.945 7.57l12.943 48.303c2.024 7.553-4.888 14.465-12.441 12.441l-48.301-12.942c-2.535-.679-5.244-.366-7.531.921-56.136 31.591-128.572 23.504-176.353-24.278z" fill="#ffe177"/><path d="m323.402 180.876c-24.463 5.78-47.787 17.933-67.42 36.518-36.918 34.947-51.666 84.132-44.251 130.457 25.804-6.045 50.294-19.125 70.413-39.244 34.779-34.779 48.53-82.621 41.258-127.731z" fill="#ffd15b"/><path d="m258.95 292.213c58.501-58.501 57.511-153.964-2.968-211.215-58.17-55.064-148.73-53.748-205.365 2.894-47.765 47.77-55.858 120.178-24.295 176.306 1.294 2.301 1.628 5.02.945 7.57l-12.943 48.303c-2.024 7.553 4.888 14.465 12.441 12.441l48.301-12.942c2.535-.679 5.244-.366 7.531.921 56.135 31.591 128.571 23.503 176.353-24.278z" fill="#faf7f7"/><path d="m255.982 80.998c-7.904-7.482-16.41-13.915-25.344-19.317.114.107.23.21.344.317 60.479 57.251 61.469 152.714 2.968 211.215-37.062 37.062-93.221 55.897-142.752 47.744 54.77 26.205 122.377 16.632 167.752-28.744 58.501-58.501 57.511-153.964-2.968-211.215z" fill="#f3eae6"/><g fill="#b9acac"><circle cx="84.884" cy="181.862" r="17.049"/><circle cx="154.819" cy="181.862" r="17.049"/><circle cx="224.754" cy="181.862" r="17.049"/></g></g><g><circle cx="357.175" cy="391.216" r="7.583"/><path d="m84.885 206.411c13.536 0 24.549-11.013 24.549-24.55s-11.013-24.549-24.549-24.549c-13.537 0-24.55 11.013-24.55 24.549 0 13.537 11.013 24.55 24.55 24.55zm0-34.099c5.266 0 9.549 4.284 9.549 9.549 0 5.266-4.283 9.55-9.549 9.55s-9.55-4.284-9.55-9.55c0-5.265 4.284-9.549 9.55-9.549z"/><path d="m179.368 181.862c0-13.537-11.013-24.549-24.549-24.549-13.537 0-24.55 11.013-24.55 24.549 0 13.537 11.013 24.55 24.55 24.55 13.536-.001 24.549-11.014 24.549-24.55zm-34.098 0c0-5.265 4.284-9.549 9.55-9.549s9.549 4.284 9.549 9.549c0 5.266-4.283 9.55-9.549 9.55s-9.55-4.285-9.55-9.55z"/><path d="m249.303 181.862c0-13.537-11.013-24.549-24.549-24.549-13.537 0-24.55 11.013-24.55 24.549 0 13.537 11.013 24.55 24.55 24.55 13.536-.001 24.549-11.014 24.549-24.55zm-34.099 0c0-5.265 4.284-9.549 9.55-9.549s9.549 4.284 9.549 9.549c0 5.266-4.283 9.55-9.549 9.55-5.266-.001-9.55-4.285-9.55-9.55z"/><path d="m357.175 320.178c-4.143 0-7.5 3.358-7.5 7.5v33.341c0 4.142 3.357 7.5 7.5 7.5 4.142 0 7.5-3.358 7.5-7.5v-26.546c8.003-1.528 15.303-5.504 21.06-11.568 7.512-7.911 11.336-18.28 10.771-29.197-1.064-20.498-17.985-36.878-38.521-37.292-19.955-.396-37.062 14.168-39.814 33.891-.252 1.803-.38 3.649-.38 5.485 0 4.142 3.357 7.5 7.5 7.5s7.5-3.358 7.5-7.5c0-1.145.079-2.291.235-3.41 1.681-12.039 12.019-20.974 24.157-20.974.166 0 .333.002.499.005 12.712.256 23.186 10.391 23.844 23.072.352 6.767-2.017 13.192-6.668 18.091-4.655 4.903-10.935 7.602-17.683 7.602z"/><path d="m491.941 402.222c-.179-.668-.095-1.362.237-1.952 16.227-28.858 22.798-62.928 18.5-95.932-4.439-34.088-19.663-64.986-44.028-89.353-21.265-21.267-47.887-35.82-76.989-42.088-26.8-5.772-54.508-4.311-80.456 4.186-2.694-38.766-19.56-74.545-48.068-101.53-48.503-45.915-120.489-55.665-179.127-24.257-3.651 1.956-5.026 6.501-3.07 10.152 1.955 3.651 6.499 5.027 10.152 3.07 52.933-28.351 117.93-19.54 161.733 21.926 27.695 26.216 43.235 61.615 43.757 99.675.522 38.075-14.016 73.87-40.936 100.789-44.169 44.169-112.997 53.645-167.373 23.045-3.999-2.25-8.67-2.829-13.149-1.628l-48.301 12.942c-1.294.344-2.163-.283-2.568-.688s-1.033-1.278-.688-2.567l12.943-48.302c1.2-4.477.614-9.16-1.651-13.188-14.652-26.056-20.583-56.826-16.7-86.643 4.008-30.777 17.757-58.677 39.762-80.684 3.365-3.365 6.922-6.587 10.575-9.575 3.206-2.624 3.677-7.349 1.054-10.554-2.624-3.206-7.35-3.678-10.554-1.054-4.036 3.303-7.966 6.862-11.682 10.578-24.365 24.368-39.59 55.265-44.029 89.353-4.298 33.005 2.273 67.074 18.5 95.932.333.591.417 1.284.237 1.953l-12.943 48.302c-1.652 6.166.056 12.542 4.57 17.056 4.513 4.514 10.89 6.223 17.056 4.57l48.301-12.942c.663-.176 1.358-.1 1.912.212 23.1 13 49.536 19.81 76.099 19.809 6.626 0 13.266-.424 19.856-1.282 9.57-1.245 18.887-3.34 27.88-6.248 2.592 37.252 18.405 72.053 44.957 98.606 25.113 25.113 57.006 40.46 92.23 44.382.282.031.561.047.839.047 3.771 0 7.018-2.836 7.445-6.671.458-4.117-2.508-7.826-6.624-8.284-31.805-3.542-60.603-17.401-83.283-40.08-25.062-25.062-39.527-58.259-40.842-93.615 17.266-7.631 33.057-18.453 46.779-32.174 28.172-28.173 44.089-65.125 45.263-104.689.046-.016.093-.026.139-.043 24.619-8.944 51.194-10.75 76.847-5.225 26.275 5.659 50.321 18.809 69.54 38.03 22.005 22.007 35.754 49.907 39.762 80.684 3.883 29.817-2.048 60.587-16.7 86.643-2.265 4.028-2.852 8.711-1.651 13.187l12.943 48.303c.345 1.29-.283 2.162-.688 2.568-.405.405-1.279 1.034-2.567.688l-48.302-12.942c-4.482-1.202-9.151-.622-13.15 1.629-18.03 10.147-38.533 16.232-59.294 17.596-4.133.272-7.264 3.842-6.991 7.976.26 3.966 3.558 7.009 7.476 7.008.166 0 .332-.005.5-.016 22.985-1.511 45.693-8.251 65.666-19.492.556-.312 1.253-.389 1.912-.212l48.302 12.942c6.167 1.652 12.542-.057 17.056-4.57 4.514-4.514 6.223-10.89 4.57-17.056z"/></g></g></svg>