<svg id="Layer_1" enable-background="new 0 0 480.02 480.02" height="512" viewBox="0 0 480.02 480.02" width="512" xmlns="http://www.w3.org/2000/svg"><path d="m397.01 59.02h-314c-13.25 0-24 10.75-24 24v365c0 13.25 10.75 24 24 24h314c13.25 0 24-10.75 24-24v-365c0-13.25-10.75-24-24-24z" fill="#ffd9ad"/><path d="m397.497 79.02h-284.481c-13.258 0-24.014 10.757-24.014 24.015v345.073c.025 19.497-29.992 20.628-29.992-.088v-365c0-13.255 10.745-24 24-24 13.489 0 314.283-.018 315.265.033 12.805.666 12.044 19.967-.778 19.967z" fill="#ffebd2"/><path d="m346.01 110.02c0 8.84-7.16 16-16 16h-180c-8.84 0-16-7.16-16-16v-56c0-8.84 7.16-16 16-16h61.02c-.56-16.43 12.6-30 28.98-30s29.54 13.56 28.98 30h61.02c8.84 0 16 7.16 16 16z" fill="#585966"/><path d="m346.01 54.02c0 2.209-1.791 4-4 4h-54.14c-4.597 0-8.577-3.17-9.627-7.646-1.605-6.844 3.515-12.354 9.577-12.354h42.19c8.837 0 16 7.163 16 16z" fill="#6e6f80"/><path d="m229.327 58.02h-49.317c-8.837 0-16 7.163-16 16v38c0 7.732-6.268 14-14 14-8.809 0-16-7.136-16-16v-56c0-8.837 7.163-16 16-16h61.02c-.676-19.831 18.337-34.496 37.349-28.774 11.012 3.315 13.263 17.715 4.106 24.672-4.709 3.577-8.288 8.562-10.117 14.318-1.828 5.755-7.003 9.784-13.041 9.784z" fill="#6e6f80"/><path d="m364.01 94.02h-18v16c0 8.84-7.16 16-16 16h-180c-8.84 0-16-7.16-16-16v-16h-18c-8.84 0-16 7.16-16 16v310c0 8.84 7.16 16 16 16h184l80-80v-246c0-8.84-7.16-16-16-16z" fill="#eef7ff"/><path d="m380.01 224.052v131.968l-80 80h-184c-8.837 0-16-7.163-16-16v-115.626c0-5.193 4.874-9.023 9.911-7.762 95.273 23.856 195.217-.874 255.771-77.486 4.725-5.978 14.318-2.714 14.318 4.906z" fill="#cbe3fa"/><path d="m380.01 356.02-80 80v-64c0-8.84 7.16-16 16-16z" fill="#b5d5f5"/><g><path d="m397.01 51.02h-43.194c-1.482-11.822-11.589-21-23.806-21h-53.652c-1.33-6.999-4.664-13.46-9.745-18.716-21.075-21.8-57.459-10.179-62.95 18.716h-53.653c-13.233 0-24 10.767-24 24v32h-10c-13.233 0-24 10.767-24 24v310c0 13.233 10.767 24 24 24 195.901 0 185.186.447 187.774-.947.464-.249.997-.618 1.301-.87.372-.306 80.592-80.438 81.276-81.333.541-.709.859-1.309 1.141-2.066.755-2.024.508 15.039.508-248.785 0-4.418-3.582-8-8-8s-8 3.582-8 8v238h-56c-13.233 0-24 10.767-24 24v13.258c0 4.418 3.582 8 8 8s8-3.582 8-8v-13.257c0-4.411 3.589-8 8-8h44.687l-64.001 64h-180.686c-4.411 0-8-3.589-8-8v-310c0-4.411 3.589-8 8-8h18c4.418 0 8-3.582 8-8v-40c0-4.411 3.589-8 8-8h61.017c4.521 0 8.148-3.748 7.996-8.271-.404-11.906 9.101-21.729 20.987-21.729 11.867 0 21.391 9.801 20.988 21.729-.153 4.518 3.47 8.271 7.995 8.271h61.017c4.411 0 8 3.589 8 8v56c0 4.411-3.589 8-8 8h-169c-4.418 0-8 3.582-8 8s3.582 8 8 8h169c13.233 0 24-10.767 24-24v-43h43c8.822 0 16 7.178 16 16v365c0 8.822-7.178 16-16 16h-314c-8.822 0-16-7.178-16-16v-365c0-8.822 7.178-16 16-16h13.484c4.418 0 8-3.582 8-8s-3.582-8-8-8h-13.484c-17.645 0-32 14.355-32 32v365c0 17.645 14.355 32 32 32h314c17.645 0 32-14.355 32-32v-365c0-17.644-14.355-32-32-32z"/><path d="m319.01 184.02h-158c-4.418 0-8 3.582-8 8s3.582 8 8 8h158c4.418 0 8-3.582 8-8s-3.582-8-8-8z"/><path d="m327.01 252.02c0-4.418-3.582-8-8-8h-158c-4.418 0-8 3.582-8 8s3.582 8 8 8h158c4.418 0 8-3.582 8-8z"/><path d="m161.01 304.02c-4.418 0-8 3.582-8 8s3.582 8 8 8h108c4.418 0 8-3.582 8-8s-3.582-8-8-8z"/></g></svg>