<svg width="114" height="122" viewBox="0 0 114 122" fill="none" xmlns="http://www.w3.org/2000/svg">
<path d="M62.3438 51.4688L44.5312 70.5312V76.25H49.875L67.6875 57.1875L62.3438 51.4688Z" fill="#8ACCE7"/>
<path d="M39.1875 112.326V118.188H3.5625V3.8125H19.5938V38.125C19.5942 42.8561 18.224 47.471 15.672 51.3343C13.12 55.1975 9.51163 58.119 5.34375 59.6966V66.073C5.34319 67.8592 5.9287 69.5888 6.99811 70.9602C8.06753 72.3316 9.55294 73.2575 11.1952 73.5765C15.5197 74.4182 19.6303 76.2249 23.2593 78.8791C26.8883 81.5332 29.9545 84.9753 32.2584 88.9813L33.6567 91.4118C37.2726 97.7014 39.1872 104.941 39.1875 112.326Z" fill="#F4CEAF"/>
<path d="M19.5938 13.3438H21.375C24.2095 13.3438 26.9279 14.5488 28.9322 16.6937C30.9365 18.8387 32.0625 21.7478 32.0625 24.7812C32.0625 27.8147 30.9365 30.7238 28.9322 32.8688C26.9279 35.0137 24.2095 36.2188 21.375 36.2188H19.5938V13.3438Z" fill="#F2C194"/>
<path d="M73.0313 38.125L67.6875 43.8438L74.8125 51.4687L80.1562 45.75L73.0313 38.125Z" fill="#379EC3"/>
<path d="M67.5606 66.5829L53.4375 51.4688L58.7813 45.75L73.0313 61L67.5606 66.5829Z" fill="#379EC3"/>
<path d="M92.6249 64.8125L81.9374 76.25L64.1249 80.0625L62.406 77.3032L60.3085 73.9363L58.7811 74.3438L55.2186 70.5312L58.908 66.5829L47.6416 59.8849C46.7868 59.3753 46.1405 58.5425 45.8292 57.5497L45.7424 57.2733C45.5828 56.7618 45.519 56.2217 45.5545 55.6839C45.59 55.146 45.7241 54.6209 45.9493 54.1385C46.1745 53.6561 46.4862 53.2259 46.8667 52.8725C47.2473 52.5191 47.6892 52.2494 48.1671 52.0788L48.2272 52.0573C48.7436 51.8703 49.2908 51.8009 49.8337 51.8534C50.3767 51.9059 50.9034 52.0793 51.38 52.3623C55.3678 54.7356 65.9061 61 65.9061 61H75.4247C76.8338 60.9998 78.2113 60.5524 79.3829 59.7143C80.5544 58.8763 81.4675 57.6854 82.0066 56.292C82.5457 54.8987 82.6866 53.3656 82.4115 51.8865C82.1364 50.4075 81.4577 49.049 80.4612 47.9827L74.8124 41.9375C73.3953 40.4207 72.5992 38.3636 72.5992 36.2188C72.5992 34.0739 73.3953 32.0168 74.8124 30.5L83.7186 36.2188H89.0624L92.6249 64.8125Z" fill="#F4CEAF"/>
<path d="M110.438 70.3194L92.625 72.4375L89.0625 36.2188L110.438 32.0596V70.3194Z" fill="#396795"/>
<path d="M99.75 64.8125C100.734 64.8125 101.531 63.959 101.531 62.9062C101.531 61.8535 100.734 61 99.75 61C98.7662 61 97.9688 61.8535 97.9688 62.9062C97.9688 63.959 98.7662 64.8125 99.75 64.8125Z" fill="#EEBE33"/>
<path d="M33.7754 87.9823C31.3384 83.7499 28.0971 80.1132 24.2618 77.3082C20.4265 74.5032 16.0829 72.5925 11.5129 71.7003C10.2814 71.4613 9.16751 70.767 8.36555 69.7387C7.5636 68.7104 7.12454 67.4134 7.125 66.074L7.12522 61.0068C11.3426 59.1192 14.9449 55.9405 17.4801 51.8696C20.0152 47.7987 21.3702 43.0171 21.375 38.125C24.6819 38.125 27.8534 36.7191 30.1917 34.2167C32.5301 31.7143 33.8438 28.3202 33.8438 24.7812C33.8438 21.2423 32.5301 17.8482 30.1917 15.3458C27.8534 12.8434 24.6819 11.4375 21.375 11.4375V3.8125H17.8125V38.125C17.8087 42.461 16.5512 46.6896 14.2125 50.2303C11.8738 53.7711 8.56845 56.4505 4.75015 57.9009C4.40282 58.0323 4.1021 58.2757 3.8894 58.5976C3.6767 58.9195 3.56249 59.3041 3.5625 59.6983V66.074C3.56173 68.3063 4.29349 70.468 5.63006 72.1819C6.96664 73.8957 8.82315 75.0529 10.8756 75.4514C14.9536 76.2476 18.8296 77.9525 22.252 80.4555C25.6744 82.9585 28.5668 86.2038 30.7415 89.9805L32.1391 92.411C35.5838 98.3994 37.4073 105.294 37.4062 112.326V118.188H40.9688V112.326C40.9699 104.588 38.9636 97.0022 35.1732 90.4131L33.7754 87.9823ZM30.2812 24.7812C30.2786 27.3082 29.3394 29.7309 27.6697 31.5177C26 33.3045 23.7363 34.3096 21.375 34.3125V15.25C23.7363 15.2529 26 16.258 27.6697 18.0448C29.3394 19.8316 30.2786 22.2543 30.2812 24.7812Z" fill="black"/>
<path d="M94.209 70.3311L91.007 37.7778L108.975 34.2818L108.338 30.5307L88.9017 34.3125H84.2122L75.7289 28.8653C75.3883 28.6466 74.9891 28.5561 74.5949 28.608C74.2007 28.66 73.8339 28.8514 73.553 29.152C72.5221 30.2555 71.7472 31.6022 71.2905 33.0842C70.8338 34.5661 70.7079 36.1419 70.9231 37.6853L66.428 42.4957C66.094 42.8532 65.9063 43.3381 65.9063 43.8437C65.9063 44.3493 66.094 44.8342 66.428 45.1917L68.7309 47.6562L65.9063 50.6791L60.0408 44.402C59.7067 44.0446 59.2537 43.8438 58.7813 43.8438C58.3089 43.8438 57.8559 44.0446 57.5218 44.402L52.178 50.1207C52.0703 50.2369 51.9769 50.3675 51.9004 50.5093C50.5706 49.8451 49.0535 49.7519 47.6615 50.2489L47.6051 50.2692C46.9049 50.5189 46.2575 50.9139 45.7 51.4316C45.1425 51.9493 44.6858 52.5795 44.356 53.2862C44.0262 53.9929 43.8299 54.7622 43.7781 55.5501C43.7264 56.3381 43.8203 57.1293 44.0545 57.8784L44.1406 58.1541C44.5912 59.5998 45.5323 60.8119 46.7776 61.551L49.1086 62.9368L43.2718 69.1832C42.9377 69.5407 42.75 70.0256 42.75 70.5312V75.4603L37.928 80.6207C37.7626 80.7977 37.6314 81.0079 37.5419 81.2391C37.4523 81.4704 37.4063 81.7183 37.4063 81.9686C37.4062 82.219 37.4523 82.4669 37.5418 82.6982C37.6313 82.9294 37.7625 83.1396 37.9279 83.3166C38.0933 83.4936 38.2897 83.6341 38.5058 83.7299C38.7219 83.8257 38.9535 83.875 39.1875 83.875C39.4214 83.875 39.653 83.8257 39.8691 83.7299C40.0853 83.6342 40.2816 83.4937 40.447 83.3167L45.2692 78.1562H49.875C50.3474 78.1562 50.8005 77.9554 51.1345 77.598L55.2188 73.2271L57.5218 75.6918C57.7393 75.9245 58.0094 76.0931 58.3058 76.1809C58.6023 76.2687 58.9149 76.2729 59.2133 76.193L59.5223 76.1103L62.643 81.1199C62.8388 81.4341 63.1173 81.6791 63.4434 81.8236C63.7694 81.9682 64.1283 82.0058 64.4744 81.9317L82.2869 78.1192C82.6317 78.0454 82.9484 77.8641 83.197 77.598L90.5659 69.7121L90.8536 72.6371C90.8997 73.1055 91.1062 73.5391 91.4333 73.8542C91.7604 74.1694 92.1849 74.3437 92.625 74.3437C92.6907 74.3437 92.7564 74.3398 92.8217 74.3321L108.853 72.4258L108.46 68.6366L94.209 70.3311ZM72.2944 41.6096C72.6563 42.2151 73.0783 42.777 73.553 43.2855L76.7465 46.7032L74.8125 48.7729L70.2067 43.8437L72.2944 41.6096ZM71.25 50.3521L73.553 52.8168C73.8871 53.1742 74.3401 53.375 74.8125 53.375C75.2849 53.375 75.738 53.1742 76.072 52.8168L79.2641 49.4007C79.9936 50.2077 80.4849 51.2267 80.6768 52.3305C80.8686 53.4344 80.7525 54.5743 80.343 55.608C79.9334 56.6418 79.2485 57.5236 78.3737 58.1434C77.4989 58.7633 76.4729 59.0938 75.4238 59.0937H73.7692L68.4254 53.375L71.25 50.3521ZM58.7813 48.4458L68.7309 59.0937H66.3679C65.2793 58.4465 62.1488 56.5852 58.9732 54.6969L55.9566 51.4687L58.7813 48.4458ZM49.1373 74.3437H46.3125V71.3208L52.3475 64.8625L55.9791 67.0217L49.1373 74.3437ZM81.0593 74.4941L64.9454 77.9429L63.1922 75.1284L66.3383 74.2867L65.4742 70.5882L59.3277 72.2327L57.7379 70.5312L59.218 68.9473L61.4787 70.2913L63.2089 66.9586L48.508 58.2186C48.041 57.9413 47.6881 57.4867 47.519 56.9446L47.4329 56.669C47.3471 56.3947 47.3128 56.105 47.3319 55.8165C47.351 55.528 47.4231 55.2463 47.5441 54.9877C47.6651 54.729 47.8326 54.4984 48.037 54.3092C48.2414 54.12 48.4787 53.9757 48.7352 53.8848L48.7918 53.8646C49.0738 53.761 49.3731 53.7222 49.6702 53.7505C49.9672 53.7789 50.2553 53.8738 50.5158 54.0291C54.5029 56.4007 65.0412 62.6663 65.0412 62.6663C65.3058 62.8236 65.6036 62.9062 65.9063 62.9062H75.4238C77.1852 62.9062 78.9072 62.3473 80.3718 61.2999C81.8364 60.2526 82.978 58.7641 83.6521 57.0225C84.3262 55.2808 84.5025 53.3644 84.1589 51.5155C83.8152 49.6667 82.967 47.9684 81.7214 46.6354L76.072 40.5895C75.1564 39.6071 74.5756 38.324 74.4228 36.946C74.2701 35.5681 74.5542 34.1752 75.2297 32.9908L82.8024 37.8534C83.0793 38.0311 83.396 38.1249 83.7188 38.125H87.4589L90.086 64.8338L81.0593 74.4941Z" fill="black"/>
<path d="M99.75 64.8125C100.734 64.8125 101.531 63.959 101.531 62.9062C101.531 61.8535 100.734 61 99.75 61C98.7662 61 97.9688 61.8535 97.9688 62.9062C97.9688 63.959 98.7662 64.8125 99.75 64.8125Z" fill="black"/>
</svg>
