<svg width="114" height="122" viewBox="0 0 114 122" fill="none" xmlns="http://www.w3.org/2000/svg">
<path d="M85.5 24.7812V43.8438H60.5625V20.9688H85.5V24.7812Z" fill="#B4DD7F"/>
<path d="M60.5625 55.2812H85.5V78.1562H60.5625V55.2812Z" fill="#E6E9ED"/>
<path d="M108.656 101.031L90.8438 112.469V101.031V89.5938L108.656 101.031Z" fill="#AAB2BD"/>
<path d="M90.8437 101.031V112.469H39.1875L39.1162 112.45C39.1696 112.145 39.1875 111.84 39.1875 111.516V101.031H90.8437Z" fill="#FFEAA7"/>
<path d="M39.1875 89.5938H90.8438V101.031H39.1875V89.5938Z" fill="#FF826E"/>
<path d="M26.7188 72.4375V76.25V111.516C26.7188 115.195 23.9222 118.188 20.4844 118.188C18.7744 118.188 17.2069 117.444 16.0847 116.224C14.9447 115.023 14.25 113.346 14.25 111.516V72.4375H26.7188Z" fill="#838F9B"/>
<path d="M39.1875 101.031V111.516C39.1875 111.84 39.1697 112.145 39.1162 112.45C38.7066 115.69 36.0881 118.188 32.9531 118.188C31.2431 118.188 29.6756 117.444 28.5534 116.224C27.4134 115.023 26.7188 113.346 26.7188 111.516V76.25V72.4375H32.0625V64.8125H39.1875V76.25V89.5938V101.031Z" fill="#838F9B"/>
<path d="M32.0625 45.75V64.8125V72.4375H26.7188H14.25V62.9062H24.0469C25.2759 62.9062 26.3981 62.3725 27.1997 61.5147C28.0013 60.6569 28.5 59.4559 28.5 58.1406C28.5 55.51 26.505 53.375 24.0469 53.375H14.25V45.75H32.0625Z" fill="#E6E9ED"/>
<path d="M39.1875 64.8125H32.0625V45.75H14.25V53.375H24.0469C26.505 53.375 28.5 55.51 28.5 58.1406C28.5 59.4559 28.0013 60.6569 27.1997 61.5147C26.3981 62.3725 25.2759 62.9062 24.0469 62.9062H14.25H10.6875C6.75094 62.9062 3.5625 59.4941 3.5625 55.2812V49.5625C3.5625 39.04 11.5425 30.5 21.375 30.5H26.7188H30.2812C40.1138 30.5 48.0938 39.04 48.0938 49.5625V68.625C48.0938 72.8378 44.9053 76.25 40.9688 76.25H39.1875V64.8125Z" fill="#FCD770"/>
<path d="M26.7188 30.5C33.6051 30.5 39.1875 24.5258 39.1875 17.1562C39.1875 9.7867 33.6051 3.8125 26.7188 3.8125C19.8324 3.8125 14.25 9.7867 14.25 17.1562C14.25 24.5258 19.8324 30.5 26.7188 30.5Z" fill="#F0D0B4"/>
<path d="M40.9688 87.6875V78.1562C45.8797 78.1562 49.875 73.8805 49.875 68.625V49.5625C49.875 39.854 43.6691 31.6895 35.2866 29.3124C38.7297 26.5274 40.9688 22.122 40.9688 17.1562C40.9688 8.74778 34.5758 1.90625 26.7188 1.90625C18.8617 1.90625 12.4688 8.74778 12.4688 17.1562C12.4688 21.9181 14.5208 26.1728 17.7252 28.9731C8.66222 30.8088 1.78125 39.3355 1.78125 49.5625V55.2812C1.78125 60.5368 5.77659 64.8125 10.6875 64.8125H12.4688V72.4375V74.3438V111.516C12.4688 116.245 16.0651 120.094 20.4844 120.094C23.0155 120.094 25.2492 118.807 26.7188 116.842C28.1883 118.807 30.422 120.094 32.9531 120.094C36.4319 120.094 39.3692 117.696 40.4771 114.375H91.3372L112.119 101.031L91.3372 87.6875H40.9688ZM40.9688 102.938H89.0625V110.562H40.9688V102.938ZM89.0625 91.5V99.125H40.9688V91.5H89.0625ZM16.0312 17.1562C16.0312 10.8485 20.8246 5.71875 26.7188 5.71875C32.6129 5.71875 37.4062 10.8485 37.4062 17.1562C37.4062 23.464 32.6129 28.5938 26.7188 28.5938C20.8246 28.5938 16.0312 23.464 16.0312 17.1562ZM5.34375 55.2812V49.5625C5.34375 40.1037 12.5364 32.4062 21.375 32.4062H26.7188H30.2812C39.1198 32.4062 46.3125 40.1037 46.3125 49.5625V68.625C46.3125 71.7779 43.9149 74.3438 40.9688 74.3438V43.8438H37.4062V62.9062H33.8438V43.8438H12.4688V51.4688H8.90625V55.2812H24.0469C25.52 55.2812 26.7188 56.5642 26.7188 58.1406C26.7188 59.7171 25.52 61 24.0469 61H10.6875C7.74131 61 5.34375 58.4342 5.34375 55.2812ZM24.0469 64.8125C27.4847 64.8125 30.2812 61.8197 30.2812 58.1406C30.2812 54.4616 27.4847 51.4688 24.0469 51.4688H16.0312V47.6562H30.2812V58.1406V70.5312H16.0312V64.8125H24.0469ZM20.4844 116.281C18.0298 116.281 16.0312 114.142 16.0312 111.516V74.3438H24.9375V76.25V111.516C24.9375 114.142 22.9389 116.281 20.4844 116.281ZM32.9531 116.281C30.4986 116.281 28.5 114.142 28.5 111.516V76.25V74.3438H33.8438V66.7188H37.4062V111.516C37.4062 114.142 35.4077 116.281 32.9531 116.281ZM92.625 109.102V92.9602L105.193 101.031L92.625 109.102Z" fill="black"/>
<path d="M87.2812 53.375H58.7812V80.0625H87.2812V53.375ZM83.7188 76.25H62.3438V57.1875H83.7188V76.25Z" fill="black"/>
<path d="M87.2812 25.5705L95.6656 16.5978L93.1469 13.9023L87.2812 20.1796V19.0626H58.7812V45.7501H87.2812V25.5705ZM62.3438 41.9376V22.8751H83.7188V23.9921L73.0312 35.4296L67.1656 29.1523L64.6469 31.8478L73.0312 40.8205L83.7188 29.383V41.9376H62.3438Z" fill="black"/>
<path d="M90.8438 53.375H112.219V57.1875H90.8438V53.375Z" fill="black"/>
<path d="M90.8438 41.9375H112.219V45.75H90.8438V41.9375Z" fill="black"/>
<path d="M90.8438 34.3125H112.219V38.125H90.8438V34.3125Z" fill="black"/>
<path d="M90.8438 26.6875H112.219V30.5H90.8438V26.6875Z" fill="black"/>
<path d="M97.9688 19.0625H112.219V22.875H97.9688V19.0625Z" fill="black"/>
<path d="M90.8438 61H112.219V64.8125H90.8438V61Z" fill="black"/>
<path d="M108.656 68.625H112.219V72.4375H108.656V68.625Z" fill="black"/>
<path d="M90.8438 68.625H105.094V72.4375H90.8438V68.625Z" fill="black"/>
<path d="M90.8438 76.25H112.219V80.0625H90.8438V76.25Z" fill="black"/>
</svg>
