<svg width="114" height="122" viewBox="0 0 114 122" fill="none" xmlns="http://www.w3.org/2000/svg">
<path d="M57.0215 31.6804C57.0215 15.5002 69.2778 2.38354 84.397 2.38354C99.5162 2.38354 111.773 15.5002 111.773 31.6804C111.773 47.8605 99.5162 60.9772 84.397 60.9772C80.13 60.9772 76.0912 59.932 72.4914 58.0684L65.5499 62.2293V52.9277C60.2971 47.5896 57.0215 40.0445 57.0215 31.6804Z" fill="#E5D132"/>
<path d="M22.2682 3.60292L19.1878 5.50605C2.95571 15.5352 -2.60575 37.7474 6.76579 55.1186L31.7698 101.466C41.1413 118.837 61.8969 124.789 78.1288 114.759L81.2092 112.856C85.2709 110.346 86.6624 104.789 84.3174 100.442L75.6279 84.3352C73.2828 79.9884 68.0895 78.4992 64.0278 81.0089L54.9609 86.611C53.0126 87.8147 50.5213 87.1005 49.3965 85.0153L28.984 47.1789C27.8592 45.094 28.5266 42.4278 30.4751 41.2241L39.542 35.622C43.6035 33.1123 44.9952 27.5545 42.6502 23.2078L33.8681 6.92922C31.5232 2.58249 26.3297 1.0933 22.2682 3.60292Z" fill="#3789A9"/>
<path d="M75.6282 84.3345C73.2831 79.9878 68.0898 78.4986 64.0281 81.0082L54.9688 86.6056L71.7983 117.801C73.9592 117.035 76.0802 116.024 78.1289 114.759L81.2092 112.855C85.2709 110.346 86.6625 104.788 84.3174 100.441L75.6282 84.3345Z" fill="white"/>
<path d="M30.4861 41.2167L39.5426 35.621C43.6043 33.1114 44.9958 27.5535 42.6507 23.2068L33.8686 6.92825C31.5236 2.58151 26.3302 1.09233 22.2685 3.60195L19.1882 5.50531C17.1404 6.77049 15.263 8.23012 13.5635 9.84895L30.4861 41.2167Z" fill="white"/>
<path d="M77.5571 83.143C74.6017 77.6657 68.0337 75.7822 62.9151 78.9445L53.848 84.5466C52.9664 85.0912 51.8345 84.7671 51.3255 83.8234L30.913 45.987C30.4039 45.0433 30.7072 43.8322 31.589 43.2875L40.6559 37.6853C45.7745 34.5227 47.5345 27.4934 44.5791 22.0159L35.797 5.73706C32.8423 0.259559 26.2739 -1.62403 21.1553 1.53832L18.0747 3.44168C0.805596 14.1119 -5.13242 37.8283 4.83791 56.3093L29.8419 102.657C36.533 115.059 48.7132 122 61.2216 122C67.3523 122 73.5629 120.332 79.243 116.822L82.3233 114.919C84.8029 113.387 86.5766 110.913 87.3174 107.954C88.0585 104.994 87.6782 101.903 86.2465 99.2495L77.5571 83.143ZM23.3821 5.66605C26.3741 3.81749 30.2131 4.91872 31.9404 8.12014L40.7225 24.3989C42.4499 27.6006 41.4211 31.709 38.4293 33.5578L31.2909 37.9684L16.4171 10.3981C17.6278 9.36887 23.3821 5.66605 23.3821 5.66605ZM61.2143 117.235C50.2473 117.234 39.5652 111.148 33.6987 100.274L8.69474 53.9262C1.54022 40.6649 3.7294 24.3308 13.0591 13.7058L27.6378 40.729C26.0291 42.8371 25.7111 45.8767 27.0561 48.3699L47.4686 86.2062C48.3102 87.7659 49.6687 88.8817 51.2943 89.3478C52.173 89.5997 53.0726 89.6436 53.944 89.4903L68.4287 116.34C66.0422 116.939 63.6217 117.235 61.2143 117.235ZM83.0154 106.72C82.5825 108.45 81.5455 109.896 80.0965 110.791C80.0965 110.791 74.222 114.271 72.7832 114.878L58.0035 87.4824L65.1422 83.0718C68.1339 81.2232 71.9731 82.3242 73.7005 85.5258L82.3897 101.633C83.2263 103.184 83.4485 104.991 83.0154 106.72Z" fill="black"/>
<path d="M84.3967 47.51C85.6264 47.51 86.6235 46.4429 86.6235 45.1269V29.176C86.6235 27.8601 85.6264 26.793 84.3967 26.793C83.1671 26.793 82.1699 27.8601 82.1699 29.176V45.1272C82.1699 46.4431 83.1671 47.51 84.3967 47.51Z" fill="black"/>
<path d="M84.3962 21.867C84.9843 21.867 85.5564 21.612 85.9706 21.1687C86.3848 20.7255 86.6231 20.1128 86.6231 19.4839C86.6231 18.8572 86.385 18.2423 85.9706 17.7991C85.5564 17.3561 84.9819 17.1008 84.3962 17.1008C83.8106 17.1008 83.2361 17.3558 82.8221 17.7991C82.4079 18.2423 82.1694 18.8572 82.1694 19.4839C82.1694 20.113 82.4077 20.7279 82.8221 21.1687C83.2361 21.612 83.8106 21.867 84.3962 21.867Z" fill="black"/>
<path d="M84.3968 0C68.0738 0 54.7944 14.2115 54.7944 31.6799C54.7944 40.1053 57.8151 47.9652 63.3231 53.9279V62.2286C63.3231 63.0746 63.7422 63.857 64.4238 64.2847C64.7714 64.5025 65.1605 64.6117 65.5499 64.6117C65.9249 64.6117 66.2999 64.5104 66.6382 64.3078L72.5911 60.7394C76.317 62.4788 80.2827 63.3596 84.397 63.3596C88.5952 63.3596 92.6527 62.4376 96.4569 60.6193C97.5799 60.0826 98.0836 58.6733 97.5821 57.4715C97.0807 56.2699 95.7644 55.7304 94.6408 56.2673C91.4117 57.8108 87.965 58.5935 84.397 58.5935C80.564 58.5935 76.8846 57.695 73.4611 55.9225C72.8064 55.5831 72.0377 55.6082 71.4033 55.9885L67.777 58.1621V52.927C67.777 52.2735 67.5262 51.6489 67.0835 51.1988C62.0309 46.0644 59.2483 39.1323 59.2483 31.6797C59.2481 16.8395 70.5297 4.76616 84.3968 4.76616C98.2638 4.76616 109.546 16.8395 109.546 31.6799C109.546 35.4581 108.829 39.1108 107.416 42.5367C106.92 43.7409 107.429 45.1477 108.554 45.6793C109.68 46.2112 110.994 45.6653 111.491 44.4616C113.155 40.4256 113.999 36.1253 113.999 31.6802C113.999 14.2115 100.72 0 84.3968 0Z" fill="black"/>
<path d="M103.796 49.9685C103.21 49.9685 102.636 50.2214 102.222 50.6667C101.808 51.11 101.569 51.7227 101.569 52.3516C101.569 52.9783 101.808 53.5932 102.222 54.0364C102.636 54.4794 103.208 54.7347 103.796 54.7347C104.382 54.7347 104.956 54.4797 105.37 54.0364C105.784 53.5908 106.023 52.9783 106.023 52.3516C106.023 51.7225 105.785 51.11 105.37 50.6667C104.956 50.2211 104.382 49.9685 103.796 49.9685Z" fill="black"/>
</svg>
