<svg width="113" height="104" viewBox="0 0 113 104" fill="none" xmlns="http://www.w3.org/2000/svg">
<path d="M107.703 76.375V99.125H65.3281V76.375C65.3281 73.7891 66.4442 71.3092 68.431 69.4807C70.4177 67.6522 73.1122 66.625 75.9219 66.625H97.1094C99.919 66.625 102.614 67.6522 104.6 69.4807C106.587 71.3092 107.703 73.7891 107.703 76.375Z" fill="#FF3051"/>
<path d="M100.641 48.75C101.576 48.7526 102.473 49.0958 103.135 49.7047C103.796 50.3137 104.169 51.1388 104.172 52C104.165 52.86 103.791 53.6829 103.13 54.291C102.469 54.8992 101.575 55.2436 100.641 55.25H98.875V48.75H100.641Z" fill="#FFC477"/>
<path d="M102.406 45.5V47.125H98.875L90.0469 40.625L74.1562 47.125H70.625V45.5C70.625 41.6212 72.2992 37.9013 75.2793 35.1586C78.2593 32.4158 82.3012 30.875 86.5156 30.875C90.7301 30.875 94.7719 32.4158 97.752 35.1586C100.732 37.9013 102.406 41.6212 102.406 45.5Z" fill="#FFD422"/>
<path d="M98.875 48.75V55.25L86.5156 52L74.1562 55.25V48.75V47.125L90.0469 40.625L98.875 47.125V48.75Z" fill="#FFC477"/>
<path d="M98.8751 47.125V55.25L91.8126 53.3975V47.125L85.5093 42.4775L90.0469 40.625L98.8751 47.125Z" fill="#FFA733"/>
<path d="M86.5156 52L98.875 55.25C98.875 58.2668 97.5729 61.1601 95.255 63.2933C92.9372 65.4266 89.7935 66.625 86.5156 66.625C83.2377 66.625 80.0941 65.4266 77.7762 63.2933C75.4584 61.1601 74.1562 58.2668 74.1562 55.25L86.5156 52Z" fill="#DDFFFB"/>
<path d="M107.703 76.375V99.125H100.641V76.375C100.641 73.7891 99.5245 71.3092 97.5378 69.4807C95.5511 67.6522 92.8565 66.625 90.0469 66.625H97.1094C99.919 66.625 102.614 67.6522 104.6 69.4807C106.587 71.3092 107.703 73.7891 107.703 76.375Z" fill="#CD2A00"/>
<path d="M102.406 45.5V47.125H98.875L95.3084 44.4925C95.064 41.3602 93.7354 38.3824 91.5174 35.9959C89.2994 33.6095 86.3088 31.9401 82.9844 31.2325C84.1441 30.9969 85.328 30.877 86.5156 30.875C90.7281 30.881 94.7661 32.4238 97.7448 35.1652C100.723 37.9066 102.4 41.6231 102.406 45.5Z" fill="#EBBF00"/>
<path d="M98.875 55.25C98.875 58.2668 97.5729 61.1601 95.255 63.2933C92.9372 65.4266 89.7935 66.625 86.5156 66.625C85.3198 66.6281 84.13 66.4693 82.9844 66.1538C85.5356 65.4537 87.773 64.0143 89.3636 62.0496C90.9543 60.085 91.8132 57.7001 91.8125 55.25L82.9844 52.9262L86.5156 52L98.875 55.25Z" fill="#00E7F0"/>
<path d="M74.1562 48.75V55.25H72.3906C71.4562 55.2436 70.5621 54.8992 69.9013 54.291C69.2406 53.6829 68.8663 52.86 68.8594 52C68.8622 51.1388 69.2351 50.3137 69.8967 49.7047C70.5584 49.0958 71.4549 48.7526 72.3906 48.75H74.1562Z" fill="#FFC477"/>
<path d="M47.6719 76.375V99.125H5.29688V76.375C5.29688 73.7891 6.413 71.3092 8.39971 69.4807C10.3864 67.6522 13.081 66.625 15.8906 66.625H37.0781C39.8878 66.625 42.5823 67.6522 44.569 69.4807C46.5558 71.3092 47.6719 73.7891 47.6719 76.375Z" fill="#91DC5A"/>
<path d="M40.6094 48.75C41.5451 48.7526 42.4416 49.0958 43.1033 49.7047C43.7649 50.3137 44.1378 51.1388 44.1406 52C44.1337 52.86 43.7594 53.6829 43.0987 54.291C42.4379 54.8992 41.5438 55.2436 40.6094 55.25H38.8438V48.75H40.6094Z" fill="#FFC477"/>
<path d="M42.375 45.5V47.125H38.8438L26.4844 40.625L14.125 47.125H10.5938V45.5C10.5937 41.6212 12.2679 37.9013 15.248 35.1586C18.2281 32.4158 22.2699 30.875 26.4844 30.875C30.6988 30.875 34.7407 32.4158 37.7207 35.1586C40.7008 37.9013 42.375 41.6212 42.375 45.5Z" fill="#FFD422"/>
<path d="M38.8438 48.75V55.25L26.4844 52L14.125 55.25V48.75V47.125L26.4844 40.625L38.8438 47.125V48.75Z" fill="#FFC477"/>
<path d="M26.4844 52L38.8438 55.25C38.8438 58.2668 37.5416 61.1601 35.2238 63.2933C32.9059 65.4266 29.7623 66.625 26.4844 66.625C23.2065 66.625 20.0628 65.4266 17.745 63.2933C15.4271 61.1601 14.125 58.2668 14.125 55.25L26.4844 52Z" fill="#DDFFFB"/>
<path d="M14.125 48.75V55.25H12.3594C11.425 55.2436 10.5308 54.8992 9.87006 54.291C9.20932 53.6829 8.83506 52.86 8.82812 52C8.83092 51.1388 9.20386 50.3137 9.86549 49.7047C10.5271 49.0958 11.4237 48.7526 12.3594 48.75H14.125Z" fill="#FFC477"/>
<path d="M38.8438 47.125V55.25L31.7813 53.3975V47.125L25.478 42.4775L30.0157 40.625L38.8438 47.125Z" fill="#FFA733"/>
<path d="M47.6719 76.375V99.125H40.6094V76.375C40.6094 73.7891 39.4933 71.3092 37.5065 69.4807C35.5198 67.6522 32.8253 66.625 30.0156 66.625H37.0781C39.8878 66.625 42.5823 67.6522 44.569 69.4807C46.5558 71.3092 47.6719 73.7891 47.6719 76.375Z" fill="#5EAC24"/>
<path d="M42.375 45.5V47.125H38.8438L35.2772 44.4925C35.0328 41.3602 33.7041 38.3824 31.4861 35.9959C29.2681 33.6095 26.2776 31.9401 22.9531 31.2325C24.1128 30.9969 25.2968 30.877 26.4844 30.875C30.6968 30.881 34.7349 32.4238 37.7135 35.1652C40.6922 37.9066 42.3685 41.6231 42.375 45.5Z" fill="#EBBF00"/>
<path d="M38.8438 55.25C38.8438 58.2668 37.5416 61.1601 35.2238 63.2933C32.9059 65.4266 29.7623 66.625 26.4844 66.625C25.2886 66.6281 24.0987 66.4693 22.9531 66.1538C25.5043 65.4537 27.7417 64.0143 29.3324 62.0496C30.923 60.085 31.7819 57.7001 31.7812 55.25L22.9531 52.9262L26.4844 52L38.8438 55.25Z" fill="#00E7F0"/>
<path d="M97.1094 65H95.8205C98.4093 62.9088 100.079 60.0195 100.517 56.875H100.641C102.044 56.8711 103.389 56.3563 104.381 55.4429C105.374 54.5295 105.933 53.2917 105.938 52C105.937 51.2398 105.742 50.4904 105.368 49.8127C104.993 49.1351 104.451 48.5482 103.783 48.1C104.028 47.824 104.164 47.4808 104.172 47.125V45.5C104.172 41.1902 102.312 37.057 99.0005 34.0095C95.6893 30.962 91.1984 29.25 86.5156 29.25C81.8329 29.25 77.342 30.962 74.0308 34.0095C70.7196 37.057 68.8594 41.1902 68.8594 45.5V47.125C68.867 47.4808 69.0037 47.824 69.2478 48.1C68.5807 48.5482 68.0379 49.1351 67.6636 49.8127C67.2893 50.4904 67.0941 51.2398 67.0938 52C67.0979 53.2917 67.6573 54.5295 68.6498 55.4429C69.6422 56.3563 70.9871 56.8711 72.3906 56.875H72.5142C72.9518 60.0195 74.6219 62.9088 77.2108 65H75.9219C72.6451 65.0034 69.5036 66.203 67.1866 68.3355C64.8696 70.4679 63.5662 73.3592 63.5625 76.375V99.125C63.5625 99.556 63.7485 99.9693 64.0796 100.274C64.4108 100.579 64.8599 100.75 65.3281 100.75H107.703C108.171 100.75 108.62 100.579 108.952 100.274C109.283 99.9693 109.469 99.556 109.469 99.125V76.375C109.465 73.3592 108.162 70.4679 105.845 68.3355C103.528 66.203 100.386 65.0034 97.1094 65ZM102.406 52C102.406 52.431 102.22 52.8443 101.889 53.149C101.558 53.4538 101.109 53.625 100.641 53.625V50.375C101.109 50.375 101.558 50.5462 101.889 50.851C102.22 51.1557 102.406 51.569 102.406 52ZM72.3906 53.625C71.9224 53.625 71.4733 53.4538 71.1421 53.149C70.811 52.8443 70.625 52.431 70.625 52C70.625 51.569 70.811 51.1557 71.1421 50.851C71.4733 50.5462 71.9224 50.375 72.3906 50.375V53.625ZM72.3906 45.5C72.3906 42.0522 73.8788 38.7456 76.5277 36.3076C79.1767 33.8696 82.7694 32.5 86.5156 32.5C90.2618 32.5 93.8546 33.8696 96.5035 36.3076C99.1525 38.7456 100.641 42.0522 100.641 45.5H99.493L91.1416 39.3575C90.8899 39.1699 90.5863 39.0508 90.265 39.0135C89.9437 38.9761 89.6174 39.0221 89.323 39.1462L73.7855 45.5H72.3906ZM75.9219 48.1812L89.782 42.51L97.1094 47.905V53.0887L86.9923 50.44C86.6807 50.3588 86.3506 50.3588 86.0389 50.44L75.9219 53.0887V48.1812ZM76.0102 56.4525L86.5156 53.69L97.0211 56.4525C96.6896 58.8011 95.4406 60.9583 93.5074 62.5213C91.5742 64.0844 89.0889 64.9464 86.5156 64.9464C83.9424 64.9464 81.4571 64.0844 79.5239 62.5213C77.5907 60.9583 76.3417 58.8011 76.0102 56.4525ZM105.938 97.5H67.0938V76.375C67.0938 74.2201 68.0239 72.1535 69.6794 70.6298C71.335 69.106 73.5805 68.25 75.9219 68.25H97.1094C99.4507 68.25 101.696 69.106 103.352 70.6298C105.007 72.1535 105.938 74.2201 105.938 76.375V97.5Z" fill="black"/>
<path d="M37.0781 65H35.7892C38.3781 62.9088 40.0482 60.0195 40.4858 56.875H40.6094C42.0129 56.8711 43.3577 56.3563 44.3502 55.4429C45.3427 54.5295 45.9021 53.2917 45.9062 52C45.9059 51.2398 45.7107 50.4904 45.3364 49.8127C44.9621 49.1351 44.4193 48.5482 43.7522 48.1C43.9963 47.824 44.133 47.4808 44.1406 47.125V45.5C44.1406 41.1902 42.2804 37.057 38.9692 34.0095C35.658 30.962 31.1671 29.25 26.4844 29.25C21.8016 29.25 17.3107 30.962 13.9995 34.0095C10.6883 37.057 8.82812 41.1902 8.82812 45.5V47.125C8.83573 47.4808 8.97247 47.824 9.21656 48.1C8.54944 48.5482 8.00667 49.1351 7.63237 49.8127C7.25808 50.4904 7.06283 51.2398 7.0625 52C7.06669 53.2917 7.6261 54.5295 8.61855 55.4429C9.611 56.3563 10.9558 56.8711 12.3594 56.875H12.483C12.9206 60.0195 14.5907 62.9088 17.1795 65H15.8906C12.6139 65.0034 9.47238 66.203 7.15536 68.3355C4.83833 70.4679 3.53499 73.3592 3.53125 76.375V99.125C3.53125 99.556 3.71727 99.9693 4.04839 100.274C4.37951 100.579 4.8286 100.75 5.29688 100.75H47.6719C48.1401 100.75 48.5892 100.579 48.9204 100.274C49.2515 99.9693 49.4375 99.556 49.4375 99.125V76.375C49.4338 73.3592 48.1304 70.4679 45.8134 68.3355C43.4964 66.203 40.3549 65.0034 37.0781 65ZM42.375 52C42.375 52.431 42.189 52.8443 41.8579 53.149C41.5267 53.4538 41.0776 53.625 40.6094 53.625V50.375C41.0776 50.375 41.5267 50.5462 41.8579 50.851C42.189 51.1557 42.375 51.569 42.375 52ZM12.3594 53.625C11.8911 53.625 11.442 53.4538 11.1109 53.149C10.7798 52.8443 10.5938 52.431 10.5938 52C10.5938 51.569 10.7798 51.1557 11.1109 50.851C11.442 50.5462 11.8911 50.375 12.3594 50.375V53.625ZM12.3594 45.5C12.3594 42.0522 13.8475 38.7456 16.4965 36.3076C19.1454 33.8696 22.7382 32.5 26.4844 32.5C30.2306 32.5 33.8233 33.8696 36.4723 36.3076C39.1212 38.7456 40.6094 42.0522 40.6094 45.5H39.3205L27.3672 39.2112C27.0964 39.0753 26.7929 39.004 26.4844 39.004C26.1759 39.004 25.8724 39.0753 25.6016 39.2112L13.6483 45.5H12.3594ZM15.8906 48.0675L26.4844 42.4937L37.0781 48.0675V53.0887L26.9611 50.44C26.6494 50.3588 26.3193 50.3588 26.0077 50.44L15.8906 53.0887V48.0675ZM15.9789 56.4525L26.4844 53.69L36.9898 56.4525C36.6583 58.8011 35.4093 60.9583 33.4761 62.5213C31.5429 64.0844 29.0576 64.9464 26.4844 64.9464C23.9111 64.9464 21.4258 64.0844 19.4926 62.5213C17.5594 60.9583 16.3104 58.8011 15.9789 56.4525ZM45.9062 97.5H7.0625V76.375C7.0625 74.2201 7.9926 72.1535 9.6482 70.6298C11.3038 69.106 13.5493 68.25 15.8906 68.25H37.0781C39.4195 68.25 41.665 69.106 43.3206 70.6298C44.9761 72.1535 45.9062 74.2201 45.9062 76.375V97.5Z" fill="black"/>
<path d="M34.0641 19.0236L36.5607 16.7258L32.5121 12.9997H80.4876L76.4391 16.7258L78.9357 19.0236L85.9982 12.5236C86.3292 12.2188 86.5151 11.8056 86.5151 11.3747C86.5151 10.9438 86.3292 10.5306 85.9982 10.2258L78.9357 3.72583L76.4391 6.02358L80.4876 9.7497H32.5121L36.5607 6.02358L34.0641 3.72583L27.0016 10.2258C26.6706 10.5306 26.4846 10.9438 26.4846 11.3747C26.4846 11.8056 26.6706 12.2188 27.0016 12.5236L34.0641 19.0236Z" fill="black"/>
<path d="M45.9062 26V29.25H54.7344V32.5H44.1406C43.6724 32.5 43.2233 32.3288 42.8921 32.0241C42.561 31.7193 42.375 31.306 42.375 30.875V24.375C42.375 23.944 42.561 23.5307 42.8921 23.226C43.2233 22.9212 43.6724 22.75 44.1406 22.75H51.2031V19.5H42.375V16.25H52.9688C53.437 16.25 53.8861 16.4212 54.2172 16.726C54.5484 17.0307 54.7344 17.444 54.7344 17.875V24.375C54.7344 24.806 54.5484 25.2193 54.2172 25.524C53.8861 25.8288 53.437 26 52.9688 26H45.9062Z" fill="black"/>
<path d="M72.3906 17.875V32.5H68.8594V22.75L66.7406 25.35C66.5681 25.5407 66.3522 25.6941 66.1081 25.7994C65.864 25.9046 65.5977 25.9592 65.3281 25.9592C65.0585 25.9592 64.7923 25.9046 64.5482 25.7994C64.3041 25.6941 64.0881 25.5407 63.9156 25.35L61.7969 22.75V32.5H58.2656V17.875C58.2656 17.5339 58.3822 17.2015 58.5989 16.9248C58.8156 16.6482 59.1214 16.4412 59.4729 16.3334C59.8245 16.2255 60.204 16.2222 60.5577 16.3239C60.9114 16.4256 61.2214 16.6272 61.4437 16.9L65.3281 21.6613L69.2125 16.9C69.4348 16.6272 69.7448 16.4256 70.0985 16.3239C70.4523 16.2222 70.8318 16.2255 71.1833 16.3334C71.5349 16.4412 71.8407 16.6482 72.0573 16.9248C72.274 17.2015 72.3906 17.5339 72.3906 17.875Z" fill="black"/>
</svg>
