<svg width="113" height="123" viewBox="0 0 113 123" fill="none" xmlns="http://www.w3.org/2000/svg">
<g clip-path="url(#clip0)">
<path d="M76.4443 35.5322V22.3418C72.4389 22.4075 68.8326 24.9985 67.2041 28.982L65.5376 33.0576L55.4137 51.0893H28.0482C20.1089 51.0893 13.4265 57.5587 12.4998 66.1415L9.05041 98.0937C8.87798 99.689 10.0237 101.091 11.4997 101.091H18.4381C18.4381 101.091 24.3014 82.8491 25.1712 80.671H51.7876L47.252 97.6573C46.7933 99.3746 47.977 101.091 49.6193 101.091H55.0705C56.1439 101.091 57.094 100.336 57.4198 99.2226L62.9047 80.5105C67.6662 77.7807 71.0112 72.8202 71.9742 67.0574L73.9226 55.4069H81.236C84.6888 55.4069 87.7907 53.1106 89.0606 49.616L89.9521 47.1639L76.4443 35.5322Z" fill="#FFC66C"/>
<path d="M59.4228 43.9497L55.4139 51.0892H54.4518L71.3985 69.5357C71.6399 68.7296 71.8339 67.9028 71.9753 67.0573L73.3116 59.0667L59.4228 43.9497Z" fill="#636398"/>
<path d="M66.848 77.4204L73.9166 97.4444C74.5364 99.202 73.3441 101.091 71.6138 101.091H66.0773C65.2031 101.091 64.3935 100.587 63.9513 99.7669L59.9976 92.4426L62.6693 81.3158L66.848 77.4204Z" fill="#FFB954"/>
<path d="M31.7072 80.6709L36.042 97.6891C36.4782 99.3989 35.2962 101.091 33.666 101.091H28.163C27.094 101.091 26.1474 100.342 25.8172 99.2356L22.5721 88.3537L25.1714 80.6709H31.7072Z" fill="#FFB954"/>
<path d="M38.2611 53.4907C38.8413 53.4907 39.4112 53.2364 39.8216 52.7869C40.2319 52.3402 40.4681 51.7228 40.4681 51.0884C40.4681 50.4568 40.2319 49.8365 39.8216 49.3898C39.4112 48.9432 38.8413 48.686 38.2611 48.686C37.6809 48.686 37.111 48.9432 36.7007 49.3898C36.2903 49.8365 36.0541 50.4568 36.0541 51.0884C36.0541 51.7228 36.2903 52.3402 36.7007 52.7869C37.111 53.2364 37.6809 53.4907 38.2611 53.4907Z" fill="black"/>
<path d="M73.7151 45.6784C74.2953 45.6784 74.8643 45.4212 75.2747 44.9745C75.6859 44.525 75.9221 43.9076 75.9221 43.2732C75.9221 42.6416 75.6859 42.0223 75.2747 41.5756C74.8643 41.1289 74.2953 40.8708 73.7151 40.8708C73.134 40.8708 72.565 41.128 72.1547 41.5756C71.7434 42.0223 71.5081 42.6416 71.5081 43.2732C71.5081 43.9076 71.7434 44.525 72.1547 44.9745C72.565 45.4212 73.134 45.6784 73.7151 45.6784Z" fill="black"/>
<path d="M112.027 43.6052C111.016 42.8629 109.645 43.1538 108.963 44.2537L107.083 47.2885C100.121 58.5232 87.272 63.8403 75.2868 60.6703L75.7653 57.8091H81.2363C85.6228 57.8091 89.4997 54.9404 91.1128 50.4998L92.0042 48.0477C92.3628 47.0624 92.0852 45.9372 91.3214 45.2794L78.6516 34.3693V22.3416C78.6516 21.6979 78.4146 21.0813 77.9938 20.6299C77.5731 20.1786 77.0093 19.929 76.4118 19.9393C71.565 20.019 67.1595 23.1853 65.1879 28.005L63.58 31.9379L54.176 48.6868H47.0893C45.8703 48.6868 44.8823 49.7622 44.8823 51.0891C44.8823 52.416 45.8703 53.4915 47.0893 53.4915H53.5371L68.8398 70.1474C68.0475 72.1932 66.894 74.0334 65.4379 75.5734C65.3749 75.6315 65.3155 75.6925 65.2586 75.7563C64.2594 76.7802 63.1274 77.6679 61.8773 78.3858C61.3643 78.6795 60.979 79.1806 60.8031 79.7812L55.3174 98.4923C55.2838 98.6096 55.1846 98.6884 55.0708 98.6884H49.6196C49.5877 98.6884 49.4903 98.6884 49.4127 98.5758C49.3351 98.4632 49.3627 98.3619 49.3713 98.3281L53.9078 81.3418C54.1009 80.6164 53.9699 79.8338 53.5535 79.2294C53.1362 78.6241 52.4827 78.2694 51.7887 78.2694H25.1715C24.293 78.2694 23.4982 78.8362 23.1473 79.7136C22.405 81.5727 18.384 94.0029 16.8736 98.6884H11.5C11.4224 98.6884 11.3577 98.6565 11.3069 98.5946C11.2551 98.5317 11.2336 98.4576 11.2431 98.3741L14.6924 66.4219C15.4882 59.0506 21.2299 53.4915 28.0484 53.4915H29.433C30.6521 53.4915 31.6401 52.416 31.6401 51.0891C31.6401 49.7631 30.6521 48.6868 29.433 48.6868H28.0484C23.3137 48.6868 18.972 50.7081 15.7537 54.0329C15.7287 54.0545 15.7028 54.0733 15.6796 54.0958C12.0578 57.4947 7.26955 58.9943 2.53994 58.2108C1.33383 58.0099 0.208763 58.9118 0.0259928 60.2237C-0.15764 61.5346 0.669999 62.7602 1.87525 62.9601C2.92186 63.1337 3.97021 63.2191 5.01251 63.2191C7.06092 63.2191 9.08432 62.885 11.0241 62.245C10.6861 63.4049 10.443 64.6136 10.3085 65.8607L6.85918 97.8129C6.70314 99.2543 7.12213 100.702 8.00839 101.787C8.89465 102.871 10.1671 103.493 11.5 103.493H18.4384C19.3764 103.493 20.2117 102.848 20.5212 101.884C20.9946 100.412 21.6998 98.2258 22.4791 95.8225L23.7189 99.9778C24.3456 102.081 26.1319 103.493 28.1631 103.493H33.666C35.1385 103.493 36.4947 102.762 37.3861 101.486C38.2775 100.21 38.5629 98.5927 38.1698 97.0481L34.6101 83.0741H48.8489L45.1331 96.9871C44.7185 98.5383 44.9926 100.169 45.8832 101.461C46.7746 102.753 48.1368 103.493 49.6205 103.493H55.0717C57.1132 103.493 58.9021 102.071 59.5237 99.9534L60.216 97.5896L62.048 100.984C62.8843 102.531 64.4275 103.493 66.0776 103.493H71.6141C73.1547 103.493 74.5936 102.669 75.4661 101.287C76.3386 99.9056 76.5291 98.147 75.9765 96.5826L69.4183 78.002C71.8297 75.0891 73.4789 71.4772 74.1462 67.4879L74.4945 65.4056C77.0955 66.0784 79.7319 66.4172 82.3674 66.4172C86.1762 66.4172 89.9808 65.7143 93.6638 64.3123C100.681 61.6407 106.585 56.683 110.742 49.9752L112.623 46.9394C113.304 45.8396 113.037 44.3475 112.027 43.6052ZM33.9161 98.3309C33.9238 98.3647 33.9497 98.466 33.8721 98.5768C33.7945 98.6884 33.6979 98.6884 33.666 98.6884H28.1631C28.0502 98.6884 27.9519 98.6096 27.9165 98.4933L24.9034 88.3912C25.6095 86.2441 26.2432 84.341 26.6785 83.0732H30.0296L33.9161 98.3309ZM59.8444 47.8056L70.6623 59.5808C70.7494 59.6756 70.8425 59.7582 70.9391 59.8333L70.1183 64.745L57.8383 51.3781L59.8444 47.8056ZM67.4208 34.3102C67.4708 34.222 67.5156 34.1291 67.5544 34.0343L69.2209 29.9588C70.1821 27.608 72.0383 25.8663 74.2376 25.1297V35.532C74.2376 36.2659 74.5462 36.9594 75.0755 37.4154L87.2962 47.9407L87.0082 48.7327C86.0659 51.3275 83.8002 53.0044 81.2363 53.0044H73.9229C73.1047 53.0044 72.3771 53.4943 71.9969 54.2384L62.2118 43.5883L67.4208 34.3102ZM71.8279 98.5665C71.7503 98.6884 71.6486 98.6884 71.6141 98.6884H66.0776C65.9862 98.6884 65.9008 98.635 65.8543 98.5496L62.0178 91.4429L64.743 82.147C65.1301 81.8992 65.5077 81.6365 65.8758 81.3643L71.8564 98.3056C71.8685 98.3403 71.9055 98.4445 71.8279 98.5665Z" fill="black"/>
</g>
<defs>
<clipPath id="clip0">
<rect width="113" height="123" fill="white"/>
</clipPath>
</defs>
</svg>
