<svg width="113" height="104" viewBox="0 0 113 104" fill="none" xmlns="http://www.w3.org/2000/svg">
<g clip-path="url(#clip0)">
<path d="M95.7636 92.9069L77.3885 87.622C74.4342 86.7724 72.4227 84.2542 72.4227 81.4054V75.7276L40.5775 68.2827V81.4054C40.5775 84.254 38.566 86.7724 35.6117 87.622L17.2366 92.9069C14.2822 93.7566 12.2708 96.2748 12.2708 99.1236H100.73C100.729 96.2748 98.718 93.7566 95.7636 92.9069Z" fill="#F6D190"/>
<path d="M100.729 99.1234C100.729 96.2748 98.7179 93.7567 95.7636 92.9068L77.3885 87.6219C77.1466 87.5524 76.9215 87.4549 76.6931 87.3635C71.8255 92.6196 64.5917 95.9632 56.4998 95.9632C48.408 95.9632 41.1742 92.6196 36.3066 87.3635C36.0782 87.4547 35.8531 87.5522 35.6112 87.6219L17.2361 92.9068C14.2818 93.7565 12.2703 96.2746 12.2703 99.1234V102.477H100.729V99.1234Z" fill="#DAD8DB"/>
<path d="M40.5773 75.7276C45.265 78.2269 50.6925 79.6807 56.4999 79.6807C62.3073 79.6807 67.7348 78.2269 72.4225 75.7276V68.2827H40.5773V75.7276Z" fill="#ECBD83"/>
<path d="M70.6535 1.52344H47.654C44.3602 1.52344 41.6167 3.60405 40.8274 6.40819H37.0389C30.1993 6.40819 24.6545 11.5111 24.6545 17.8061L27.2935 45.4868H88.3453V17.8061C88.3453 8.81339 80.4245 1.52344 70.6535 1.52344Z" fill="#966A5B"/>
<path d="M40.5773 6.4082H37.039C30.1994 6.4082 24.6547 11.5111 24.6547 17.8062V45.4868H40.5773V6.4082Z" fill="#785353"/>
<path d="M86.2758 42.2303H84.807C81.8756 42.2303 79.4995 40.0433 79.4995 37.3456V29.2041C79.4995 25.607 76.3311 22.6909 72.4227 22.6909H40.5774C36.669 22.6909 33.5006 25.607 33.5006 29.2041V37.3456C33.5006 40.0435 31.1243 42.2303 28.1931 42.2303H26.7243C23.8503 42.2303 21.2743 44.211 21.124 46.8524C20.9633 49.6696 23.3979 52 26.4237 52H30.0514C30.9658 64.7262 42.4406 74.7959 56.4998 74.7959C70.559 74.7959 82.0338 64.7262 82.9482 52H86.5759C89.6017 52 92.0363 49.6696 91.8759 46.8524C91.7258 44.211 89.1495 42.2303 86.2758 42.2303Z" fill="#FFE09F"/>
<path d="M40.5771 50.3718V22.6912C36.6687 22.6912 33.5003 25.6072 33.5003 29.2044V37.3458C33.5003 40.0437 31.124 42.2306 28.1928 42.2306H26.7241C23.8501 42.2306 21.274 44.2112 21.1237 46.8527C20.9633 49.6696 23.3978 52.0001 26.4237 52.0001H30.0514C30.9657 64.7262 42.4405 74.796 56.4998 74.796C58.3131 74.796 60.0804 74.6223 61.7907 74.3032C49.686 72.0341 40.5771 62.1823 40.5771 50.3718Z" fill="#F6D190"/>
<path d="M30.0515 52C30.9659 64.7262 42.4405 74.7959 56.4999 74.7959C70.5428 74.7959 82.0999 64.7055 83.0377 52H30.0515Z" fill="#FAF5DC"/>
<path d="M83.8505 89.4805L77.3885 87.6219C77.1466 87.5524 76.9217 87.4549 76.6931 87.3635C71.8255 92.6196 64.5919 95.9632 56.5001 95.9632C48.4082 95.9632 41.1744 92.6196 36.3071 87.3635C36.0784 87.4547 35.8535 87.5522 35.6116 87.6219L29.1497 89.4805C35.2455 97.3372 45.2109 102.476 56.5003 102.476C67.7897 102.476 77.7547 97.3372 83.8505 89.4805Z" fill="#ECEAEC"/>
<path d="M40.6552 52H29.9619C30.8997 64.7055 42.4568 74.7959 56.4997 74.7959C58.313 74.7959 60.0804 74.622 61.7904 74.3031C50.2483 72.1394 41.45 63.0766 40.6552 52Z" fill="#F5EBCD"/>
<path d="M44.2295 43.8586V45.4869C44.2295 46.3282 44.9706 47.0103 45.8848 47.0103C46.7989 47.0103 47.54 46.3282 47.54 45.4869V43.8586C47.54 43.0173 46.7989 42.3352 45.8848 42.3352C44.9706 42.3352 44.2295 43.0173 44.2295 43.8586Z" fill="black"/>
<path d="M65.4598 43.8586V45.4869C65.4598 46.3282 66.201 47.0103 67.1151 47.0103C68.0293 47.0103 68.7704 46.3282 68.7704 45.4869V43.8586C68.7704 43.0173 68.0293 42.3352 67.1151 42.3352C66.201 42.3352 65.4598 43.0173 65.4598 43.8586Z" fill="black"/>
<path d="M49.2597 36.9759C49.0381 36.1596 48.1387 35.6631 47.2524 35.8675L40.1757 37.4957C39.2887 37.6997 38.7496 38.527 38.9714 39.3432C39.1594 40.0354 39.8343 40.4975 40.5759 40.4975C40.7087 40.4975 40.8438 40.4827 40.9787 40.4516L48.0553 38.8234C48.9423 38.6192 49.4815 37.7921 49.2597 36.9759Z" fill="black"/>
<path d="M72.4239 40.4977C73.1655 40.4977 73.8404 40.0356 74.0285 39.3433C74.2503 38.5272 73.7111 37.7001 72.8241 37.4959L65.7475 35.8677C64.8616 35.6635 63.962 36.1598 63.7402 36.9761C63.5184 37.7923 64.0575 38.6194 64.9445 38.8235L72.0212 40.4518C72.156 40.4829 72.2909 40.4977 72.4239 40.4977Z" fill="black"/>
<path d="M96.2574 91.4528L77.8821 86.1679C75.6066 85.5134 74.0778 83.5995 74.0778 81.4054V78.0524C74.0778 77.2111 73.3367 76.529 72.4226 76.529C71.5084 76.529 70.7673 77.2111 70.7673 78.0524V81.4054C70.7673 83.938 72.0321 86.2383 74.0975 87.7268C69.4442 92.0093 63.1186 94.4401 56.4999 94.4401C49.8943 94.4401 43.553 92.0079 38.9008 87.7281C40.9673 86.2396 42.2326 83.9386 42.2326 81.4056V72.749C46.5195 75.0744 51.4224 76.3195 56.4999 76.3195C63.6997 76.3195 70.5499 73.8193 75.7883 69.2796C80.6206 65.092 83.6627 59.541 84.4555 53.5236H86.5762C88.4774 53.5236 90.3183 52.7956 91.6273 51.5261C92.9548 50.2387 93.6304 48.5505 93.5293 46.773C93.4037 44.5656 92.017 42.6697 90.0007 41.6098V17.8061C90.0007 7.98789 81.3215 0 70.6534 0H47.6539C44.1302 0 41.0002 1.95792 39.6466 4.88475H37.0388C29.2972 4.88475 22.9992 10.6813 22.9992 17.8061V36.3848C22.9992 37.2261 23.7403 37.9082 24.6545 37.9082C25.5686 37.9082 26.3097 37.2261 26.3097 36.3848V17.8061C26.3097 12.3614 31.1228 7.93162 37.0388 7.93162H40.8274C41.5817 7.93162 42.2405 7.4622 42.4297 6.79006C43.0501 4.58616 45.1984 3.04688 47.6539 3.04688H70.6532C79.4959 3.04688 86.6899 9.66794 86.6899 17.8061V40.718C86.5526 40.7113 86.4147 40.7069 86.2757 40.7069H84.8069C82.793 40.7069 81.1545 39.1991 81.1545 37.3455V29.2041C81.1545 24.7727 77.2372 21.1675 72.4226 21.1675C71.5084 21.1675 70.7673 21.8495 70.7673 22.6909C70.7673 23.5322 71.5084 24.2143 72.4226 24.2143C75.412 24.2143 77.8439 26.4528 77.8439 29.2041V37.3455C77.8439 39.7339 79.2719 41.8196 81.3822 42.9217V47.115C81.3822 48.9686 79.7439 50.4764 77.73 50.4764H35.2698C33.2559 50.4764 31.6176 48.9686 31.6176 47.115V42.9217C33.728 41.8196 35.156 39.7337 35.156 37.3455V29.2041C35.156 26.4528 37.5881 24.2143 40.5773 24.2143H65.3453C66.2594 24.2143 67.0005 23.5322 67.0005 22.6909C67.0005 21.8495 66.2594 21.1675 65.3453 21.1675H40.5773C35.7624 21.1675 31.8454 24.7727 31.8454 29.2041V37.3455C31.8454 39.1991 30.2069 40.7069 28.193 40.7069H26.7242C22.8504 40.7069 19.6644 43.3713 19.4708 46.7728C19.3697 48.5503 20.0453 50.2385 21.3728 51.5259C22.6818 52.7954 24.5227 53.5234 26.4238 53.5234H28.5446C29.3373 59.5408 32.3795 65.0918 37.2118 69.2794C37.7642 69.7582 38.3354 70.2126 38.9223 70.6455V81.4054C38.9223 83.5995 37.3934 85.5136 35.118 86.1679L16.7425 91.4528C13.0775 92.5068 10.6149 95.5894 10.6149 99.1234V102.477C10.6149 103.318 11.356 104 12.2701 104C13.1843 104 13.9254 103.318 13.9254 102.477V99.1236C13.9254 96.9294 15.4542 95.0156 17.7299 94.3611L28.4909 91.2661C31.6326 95.0365 35.6825 98.1713 40.2524 100.358C45.2322 102.741 50.8504 104 56.4999 104C62.1188 104 67.7099 102.753 72.6689 100.395C77.2696 98.2075 81.3487 95.0574 84.5076 91.2657L95.2697 94.3611C97.5452 95.0156 99.074 96.9294 99.074 99.1236V102.477C99.074 103.318 99.8151 104 100.729 104C101.643 104 102.385 103.318 102.385 102.477V99.1236C102.385 95.5896 99.9224 92.507 96.2574 91.4528ZM84.693 43.7513C84.6954 43.7511 84.6952 43.7513 84.693 43.7513V43.7513ZM84.693 47.1152V43.7539H86.2759C88.3527 43.7539 90.1234 45.1797 90.2231 46.9322C90.2763 47.8668 89.9221 48.7535 89.2258 49.4286C88.5288 50.1044 87.5879 50.4768 86.576 50.4768H83.6548C84.3123 49.4987 84.693 48.3472 84.693 47.1152ZM26.4238 50.4766C25.4121 50.4766 24.4711 50.1042 23.7741 49.4284C23.0778 48.7533 22.7237 47.8666 22.7767 46.932C22.8765 45.1795 24.6472 43.7537 26.724 43.7537H28.3069V47.115C28.3069 48.347 28.6876 49.4985 29.3448 50.4764H26.4238V50.4766ZM31.8834 53.5234H81.1163C80.9382 54.7111 80.6599 55.8685 80.2915 56.9896H49.4233C48.5092 56.9896 47.768 57.6717 47.768 58.513C47.768 59.3543 48.5092 60.0364 49.4233 60.0364H76.0829C71.3789 63.2206 64.1811 65.131 56.4999 65.131C48.8184 65.131 41.621 63.2206 36.9169 60.0364H42.3469C43.2611 60.0364 44.0022 59.3543 44.0022 58.513C44.0022 57.6717 43.2611 56.9896 42.3469 56.9896H32.7081C32.34 55.8685 32.0617 54.7111 31.8834 53.5234ZM35.8249 63.0597C41.0774 66.3091 48.4688 68.1779 56.4999 68.1779C64.5309 68.1779 71.9224 66.3089 77.175 63.0595C72.6953 69.228 65.0612 73.2723 56.4999 73.2723C47.9386 73.2723 40.3045 69.2281 35.8249 63.0597ZM71.1491 97.6883C66.5938 99.8546 61.665 100.953 56.4999 100.953C46.9865 100.953 37.9249 96.9983 31.879 90.2917L35.8092 89.1613C41.1368 94.456 48.6528 97.487 56.5002 97.487C64.3629 97.487 71.8624 94.461 77.1933 89.1621L81.122 90.2921C78.3758 93.338 74.9587 95.8768 71.1491 97.6883Z" fill="black"/>
</g>
<defs>
<clipPath id="clip0">
<rect width="113" height="104" fill="white"/>
</clipPath>
</defs>
</svg>
