<svg width="113" height="104" viewBox="0 0 113 104" fill="none" xmlns="http://www.w3.org/2000/svg">
<g clip-path="url(#clip0)">
<path d="M100.861 51.9851C104.153 51.9851 106.82 49.5297 106.82 46.5007C106.82 43.4718 104.153 41.0164 100.861 41.0164C97.5704 41.0164 94.9025 43.4718 94.9025 46.5007C94.9025 49.5297 97.5704 51.9851 100.861 51.9851Z" fill="#CCF5FC"/>
<path d="M106.158 30.251C108.718 30.251 110.793 28.3412 110.793 25.9853C110.793 23.6295 108.718 21.7197 106.158 21.7197C103.599 21.7197 101.524 23.6295 101.524 25.9853C101.524 28.3412 103.599 30.251 106.158 30.251Z" fill="#CCF5FC"/>
<path d="M70.6164 2.04614L50.4232 17.6408C39.1456 14.9671 27.2162 15.889 16.581 20.2568L15.9337 20.5227C12.9754 21.7376 11.5965 24.8921 12.8163 27.654C13.8437 29.9801 16.4453 31.377 19.1511 31.0555L31.8591 29.5452L10.9518 45.6914L24.3952 35.3101L4.02973 51.0378C1.87193 52.7042 1.59053 55.6649 3.40117 57.6507C5.21181 59.6366 8.42876 59.8956 10.5863 58.2294L26.4961 45.9428L6.31532 61.5279C4.15774 63.1943 3.87612 66.1549 5.68676 68.1408C7.4974 70.1265 10.7141 70.3857 12.8719 68.7193L34.6921 51.8684L17.1432 65.4208C14.9854 67.0872 14.704 70.0477 16.5146 72.0337C18.3252 74.0194 21.542 74.2786 23.6998 72.6122L33.8644 64.7622C31.7068 66.4287 31.4254 69.3892 33.2359 71.3751C35.0465 73.3611 38.2632 73.6201 40.421 71.9536L51.4989 63.3985L55.1226 60.6C62.6958 54.7515 67.4285 46.3694 68.2763 37.3042L88.5133 21.6758L70.6164 2.04614Z" fill="#E5AE8C"/>
<path d="M53.8772 61.5618L51.4989 63.3984L47.9564 66.1343L53.8772 61.5618Z" fill="#E5AE8C"/>
<path d="M83.0991 65.0744C87.7702 59.1 86.2946 50.7717 79.8031 46.4726C78.7398 45.7683 77.6074 45.2173 76.4372 44.8126C76.4555 44.6109 76.4672 44.4074 76.4672 44.2012C76.4672 40.2235 72.9636 36.9989 68.6416 36.9989C67.537 36.9989 66.4864 37.2105 65.5334 37.5908C64.7451 36.6988 63.8181 35.8866 62.7555 35.1827C56.264 30.8836 47.215 32.2417 42.5438 38.2162C41.7636 39.2139 41.1589 40.2783 40.7164 41.3776C35.3739 40.4644 29.6923 42.3672 26.3083 46.6956C21.6372 52.6699 23.1128 60.9981 29.6043 65.2973C32.4213 67.163 35.7199 67.9616 38.9336 67.7815C39.7689 70.6431 41.6398 73.2678 44.4569 75.1335C47.2739 76.9992 50.5725 77.7979 53.7861 77.6177C54.6215 80.4793 56.4924 83.1041 59.3094 84.9698C65.8007 89.2689 74.8499 87.9108 79.5209 81.9364C82.9049 77.608 83.0605 72.0452 80.4224 67.6732C81.4147 66.9381 82.3189 66.0722 83.0991 65.0744Z" fill="#CCF5FC"/>
<path d="M81.4588 66.2647C74.687 57.5446 64.9044 51.1938 53.707 48.2481L53.0255 48.0687C49.911 47.2493 46.6514 48.8501 45.6569 51.6873C44.8194 54.0771 45.8366 56.6862 48.1339 58.0406L58.9236 64.4017H31.6309L49.1796 64.4021H22.5943C19.7775 64.4021 17.4941 66.5036 17.4941 69.0959C17.4941 71.6883 19.7775 73.7899 22.5943 73.7899H17.0187C14.2019 73.7899 11.9187 75.8914 11.9187 78.4836C11.9187 81.0759 14.2021 83.1774 17.0187 83.1774H22.5943C19.7775 83.1774 17.4941 85.2789 17.4941 87.8714C17.4941 90.4639 19.7775 92.5652 22.5943 92.5652H35.8631C33.0467 92.5654 30.7633 94.6669 30.7633 97.259C30.7633 99.8515 33.0467 101.953 35.8635 101.953H45.7006H53.4296H55.0551C64.9412 101.953 74.4208 98.3317 81.4014 91.8888H110.793V66.2647H81.4588Z" fill="#E5AE8C"/>
<path d="M80.4814 84.5334C80.4349 79.88 76.3236 76.1206 71.2565 76.1206C66.1893 76.1206 62.0781 79.88 62.0315 84.5334C57.8267 85.4731 54.7037 88.9589 54.7037 93.1179C54.7037 97.9978 59.0019 101.954 64.3041 101.954C67.0406 101.954 69.5076 100.898 71.2565 99.2076C73.0053 100.898 75.4723 101.954 78.2086 101.954C83.5108 101.954 87.809 97.9978 87.809 93.1179C87.8092 88.9589 84.6863 85.4731 80.4814 84.5334Z" fill="#CCF5FC"/>
<path d="M17.7131 53.5331C21.867 53.5331 25.2345 50.4339 25.2345 46.6108C25.2345 42.7877 21.867 39.6885 17.7131 39.6885C13.5592 39.6885 10.1918 42.7877 10.1918 46.6108C10.1918 50.4339 13.5592 53.5331 17.7131 53.5331Z" fill="#CCF5FC"/>
<path d="M100.861 54.0166C105.364 54.0166 109.027 50.6451 109.027 46.501C109.027 42.3568 105.364 38.9854 100.861 38.9854C96.3587 38.9854 92.6954 42.3568 92.6954 46.501C92.6954 50.6449 96.3584 54.0166 100.861 54.0166ZM100.861 43.0478C102.93 43.0478 104.613 44.5969 104.613 46.501C104.613 48.4051 102.93 49.9541 100.861 49.9541C98.7926 49.9541 97.1095 48.4051 97.1095 46.501C97.1095 44.5969 98.7926 43.0478 100.861 43.0478Z" fill="black"/>
<path d="M106.159 32.2825C109.931 32.2825 113 29.4576 113 25.9856C113 22.5136 109.931 19.6887 106.159 19.6887C102.386 19.6887 99.3168 22.5136 99.3168 25.9856C99.3168 29.4576 102.386 32.2825 106.159 32.2825ZM106.159 23.7512C107.497 23.7512 108.586 24.7536 108.586 25.9856C108.586 27.2178 107.497 28.22 106.159 28.22C104.82 28.22 103.731 27.2178 103.731 25.9856C103.731 24.7534 104.82 23.7512 106.159 23.7512Z" fill="black"/>
<path d="M52.4188 50.0217L53.1005 50.2011C63.7743 53.0092 73.2078 59.1334 79.6633 67.4461C80.0778 67.9795 80.7463 68.2961 81.4589 68.2961H110.793C112.012 68.2961 113 67.3868 113 66.2649C113 65.1431 112.012 64.2337 110.793 64.2337H86.2309C89.8884 57.6017 87.8516 49.3004 81.0923 44.8238C80.317 44.3105 79.4973 43.8599 78.6426 43.4771C78.4581 41.2988 77.4404 39.2407 75.7359 37.6718C75.0153 37.0086 74.2064 36.4668 73.3431 36.0427L89.9317 23.2319C90.8652 22.5108 90.9871 21.2295 90.2036 20.3703C89.4201 19.5109 88.0281 19.3992 87.0943 20.1198L67.8313 34.9962C67.2883 35.0381 66.7454 35.1163 66.2082 35.2412C65.5428 34.6178 64.8191 34.0464 64.0449 33.5337C56.5759 28.5875 46.127 30.1556 40.7527 37.0297C40.2239 37.7061 39.7558 38.4215 39.353 39.1682C34.707 38.8442 30.1085 40.339 26.7163 43.2236C25.9529 41.5108 24.6286 40.0638 22.9551 39.0741L33.2782 31.1015C34.0288 30.5216 34.2742 29.5558 33.8805 28.7299C33.487 27.9038 32.5474 27.4156 31.5768 27.5312L18.8688 29.0415C17.1574 29.2436 15.5104 28.3598 14.861 26.8896C14.0851 25.1325 14.9515 23.1509 16.8337 22.3778L17.4806 22.1121C19.1636 21.4211 20.9072 20.8107 22.6629 20.298C23.8246 19.9588 24.4678 18.8168 24.0992 17.7476C23.7304 16.6781 22.4896 16.086 21.3278 16.4256C19.4152 16.984 17.5156 17.649 15.6816 18.4022L15.0345 18.6681C10.9672 20.3384 9.09499 24.6217 10.7721 28.4193C12.1758 31.5972 15.7394 33.5106 19.434 33.0704L24.6677 32.4484L17.9167 37.6622C17.8489 37.661 17.7816 37.6576 17.7134 37.6576C12.8538 37.6576 8.81514 40.9538 8.0983 45.2446L2.61099 49.4816C1.11596 50.6364 0.198719 52.2577 0.028558 54.0472C-0.141603 55.8367 0.456057 57.5801 1.71031 58.9561C2.38058 59.6914 3.19673 60.273 4.10713 60.6808C1.76107 63.1319 1.64608 66.869 3.99567 69.4462C5.43906 71.0294 7.51212 71.8455 9.59929 71.8455C10.9111 71.8455 12.2279 71.5215 13.3976 70.864C13.5538 71.37 13.7763 71.8632 14.0659 72.333C11.5035 73.3789 9.71141 75.7422 9.71141 78.484C9.71141 81.8488 12.4104 84.6446 15.9204 85.1333C15.5134 85.9701 15.287 86.8972 15.287 87.8718C15.287 91.58 18.5651 94.5968 22.594 94.5968H29.1535C28.7692 95.4138 28.5563 96.314 28.5563 97.2594C28.5563 100.968 31.8343 103.985 35.8635 103.985H55.055C57.0561 103.985 59.0694 103.841 61.048 103.561C62.0831 103.835 63.1747 103.985 64.304 103.985C66.846 103.985 69.2519 103.256 71.2561 101.903C73.2603 103.256 75.6662 103.985 78.2084 103.985C84.4252 103.985 89.5318 99.5386 89.98 93.9204H110.793C112.012 93.9204 113 93.011 113 91.8892C113 90.7673 112.011 89.8579 110.793 89.8579H89.4777C88.4256 86.7581 85.9028 84.2235 82.5552 83.0114C81.711 77.9723 76.9476 74.089 71.2559 74.089C65.5642 74.089 60.8008 77.9723 59.9566 83.0114C55.4934 84.6275 52.4962 88.5941 52.4962 93.1175C52.4962 95.6915 53.4757 98.0576 55.1067 99.9215C55.0893 99.9215 55.072 99.9219 55.0548 99.9219H35.8633C34.2678 99.9219 32.9701 98.7273 32.9701 97.2592C32.9701 95.791 34.268 94.5966 35.8633 94.5966H44.5821C45.8008 94.5966 46.7891 93.6872 46.7891 92.5654C46.7891 91.4435 45.8008 90.5341 44.5821 90.5341H22.5938C20.9985 90.5341 19.7008 89.3398 19.7008 87.8716C19.7008 86.4032 20.9988 85.2088 22.5938 85.2088H44.5821C45.8008 85.2088 46.7891 84.2995 46.7891 83.1776C46.7891 82.0557 45.8008 81.1464 44.5821 81.1464H17.0186C15.4234 81.1464 14.1257 79.952 14.1257 78.4838C14.1257 77.0156 15.4236 75.8213 17.0186 75.8213H44.5825C45.8012 75.8213 46.7895 74.9119 46.7895 73.79C46.7895 72.6682 45.8012 71.7588 44.5825 71.7588H22.5942C20.999 71.7588 19.7013 70.5644 19.7013 69.096C19.7013 67.6279 20.9992 66.4335 22.5942 66.4335L58.9235 66.4331C59.9034 66.4331 60.7664 65.8383 61.0416 64.9726C61.317 64.1071 60.9392 63.178 60.114 62.6916L49.3241 56.3305C47.8721 55.4744 47.2276 53.8215 47.7569 52.3113C48.3899 50.5062 50.4382 49.5007 52.4188 50.0217ZM62.5523 86.5072C63.5344 86.2876 64.2292 85.4822 64.2387 84.5521C64.2738 81.0229 67.4221 78.1519 71.2565 78.1519C75.091 78.1519 78.2393 81.0231 78.2744 84.5521C78.2839 85.4822 78.9785 86.2876 79.9608 86.5072C83.2824 87.2496 85.6022 89.968 85.6022 93.1177C85.6022 96.8698 82.2857 99.9223 78.2089 99.9223C76.1676 99.9223 74.2663 99.171 72.8549 97.807C72.4382 97.4044 71.8606 97.1763 71.2565 97.1763C70.6525 97.1763 70.0749 97.4042 69.6582 97.807C68.2468 99.171 66.3457 99.9223 64.3044 99.9223C60.2276 99.9223 56.9109 96.8698 56.9109 93.1177C56.9107 89.9678 59.2307 87.2494 62.5523 86.5072ZM17.7132 41.7196C20.6432 41.7196 23.0272 43.9138 23.0272 46.6106C23.0272 49.3075 20.6432 51.5017 17.7132 51.5017C14.7829 51.5017 12.3989 49.3075 12.3989 46.6106C12.3989 43.9136 14.7827 41.7196 17.7132 41.7196ZM4.42604 54.4013C4.49336 53.6928 4.85641 53.0507 5.44833 52.5937L8.7348 50.0556C9.49932 51.7371 10.8065 53.1579 12.4527 54.1362L9.16738 56.6734C8.57524 57.1304 7.82485 57.3476 7.0557 57.286C6.2859 57.2241 5.58848 56.8897 5.09168 56.3449C4.59488 55.8 4.35851 55.1098 4.42604 54.4013ZM7.37705 66.8349C6.35167 65.7102 6.51167 64.0275 7.7337 63.0838L17.4781 55.5585C17.5565 55.5603 17.6342 55.5639 17.713 55.5639C19.0058 55.5639 20.2395 55.3287 21.3691 54.9054C21.4097 56.2759 21.6494 57.6376 22.0842 58.9529L11.453 67.1631C10.2312 68.1066 8.40265 67.9596 7.37705 66.8349ZM46.9434 59.7511L51.3863 62.3706L29.2815 62.371C25.1288 58.4759 24.5838 52.3786 28.1001 47.8816C30.863 44.3474 35.6569 42.5784 40.3137 43.3745C41.3691 43.5551 42.4135 43.0099 42.7862 42.083C43.1711 41.1271 43.6922 40.225 44.3356 39.4024C48.2883 34.347 55.9732 33.1933 61.4667 36.8312C62.3481 37.4152 63.1407 38.102 63.822 38.873C64.4455 39.5785 65.5033 39.8162 66.4099 39.4558C68.5397 38.6086 70.9754 39.0357 72.6147 40.5448C73.7871 41.6235 74.379 43.1169 74.2387 44.6416C74.1552 45.5477 74.7364 46.3945 75.6613 46.7144C76.6724 47.0642 77.6322 47.5377 78.5141 48.1215C83.7829 51.6111 85.1477 58.2594 81.7626 63.2581C74.8054 55.1313 65.1464 49.145 54.3137 46.2952L53.632 46.1158C49.3492 44.9893 44.9239 47.1627 43.5563 51.0639C42.4121 54.3285 43.8048 57.9009 46.9434 59.7511Z" fill="black"/>
<path d="M41.4636 18.3147C44.2937 18.5209 47.1231 18.956 49.8726 19.608C50.0545 19.6511 50.2395 19.6722 50.4233 19.6722C50.9362 19.6722 51.4399 19.5073 51.842 19.1971L72.0352 3.60238C72.9688 2.88129 73.0906 1.59997 72.3071 0.740755C71.5236 -0.118667 70.1317 -0.230589 69.1979 0.490301L49.8627 15.4222C47.2185 14.8508 44.5153 14.4618 41.8117 14.265C40.5958 14.1742 39.5338 15.0113 39.4374 16.1297C39.3416 17.2477 40.2484 18.2262 41.4636 18.3147Z" fill="black"/>
<path d="M31.7092 18.4824C32.2897 18.4824 32.8569 18.2671 33.2696 17.8873C33.6799 17.5115 33.9163 16.9874 33.9163 16.4512C33.9163 15.917 33.6801 15.3929 33.2696 15.0151C32.8591 14.6373 32.2897 14.4199 31.7092 14.4199C31.1288 14.4199 30.5594 14.6373 30.1489 15.0151C29.7361 15.3929 29.5022 15.917 29.5022 16.4512C29.5022 16.9854 29.7361 17.5095 30.1489 17.8873C30.5594 18.2671 31.1288 18.4824 31.7092 18.4824Z" fill="black"/>
</g>
<defs>
<clipPath id="clip0">
<rect width="113" height="104" fill="white"/>
</clipPath>
</defs>
</svg>
