<svg width="113" height="104" viewBox="0 0 113 104" fill="none" xmlns="http://www.w3.org/2000/svg">
<g clip-path="url(#clip0)">
<path d="M82.3713 98.2462L97.6526 91.8756C98.9869 91.2597 99.8016 89.9776 99.7305 88.6053L99.3571 80.1531H82.0573L82.3713 98.2462Z" fill="#00AAF0"/>
<path d="M30.6285 98.2462L15.3472 91.8756C14.0129 91.2597 13.1982 89.9776 13.2693 88.6053L13.6427 80.1531H30.9426L30.6285 98.2462Z" fill="#00AAF0"/>
<path d="M30.6888 94.7955C27.1452 93.4903 24.7022 90.2496 24.7022 86.4837C24.7022 84.571 25.0712 81.9613 25.3709 80.1531H19.6452C19.3479 82.0637 19.0403 84.5146 19.0403 86.4837C19.0403 89.4775 20.0438 92.2526 21.7426 94.5416L30.6287 98.2464L30.6888 94.7955Z" fill="#0096DC"/>
<path d="M30.078 93.687V100.635C30.078 101.594 30.9231 102.372 31.9652 102.372H81.0342C82.0763 102.372 82.9214 101.594 82.9214 100.635V93.687H30.078Z" fill="#0096DC"/>
<path d="M100.804 43.3157C102.62 34.4133 101.794 24.1002 98.4262 20.4998C94.3578 16.1515 81.0346 12.05 81.0346 12.05H31.9657C31.9657 12.05 18.6425 16.1515 14.574 20.4998C11.2057 24.1002 10.38 34.4135 12.1962 43.3157C12.1962 43.3157 9.31844 53.737 11.4917 62.4226C11.4917 62.4226 10.7696 72.251 11.0088 75.5197C11.2842 79.2846 13.1905 82.4469 16.8197 83.8344L24.7352 86.7986C24.9107 91.5491 28.9312 95.4239 34.1345 95.4239H78.8655C84.0688 95.4239 88.0894 91.5495 88.2648 86.7986L96.1804 83.8344C99.8096 82.4469 101.716 79.2844 101.991 75.5197C102.23 72.251 101.508 62.4226 101.508 62.4226C103.682 53.737 100.804 43.3157 100.804 43.3157Z" fill="#00AAF0"/>
<path d="M31.9657 12.0502C31.9657 12.0502 45.1765 22.4719 56.5002 24.2088C67.8238 22.4719 81.0346 12.0502 81.0346 12.0502L76.416 3.54876C75.7766 2.37186 74.4698 1.62842 73.0399 1.62842H39.96C38.5305 1.62842 37.2233 2.37186 36.5839 3.54876L31.9657 12.0502Z" fill="#0096DC"/>
<path d="M11.4917 62.4226C11.4917 62.4226 10.7696 72.251 11.0088 75.5197C11.2842 79.2846 13.1905 82.4468 16.8197 83.8344L24.7352 86.7986C24.7312 86.6917 24.7021 86.5912 24.7021 86.4835C24.7021 83.265 25.7487 78.0536 25.7487 78.0536C22.5293 69.3694 26.3038 60.6854 26.3038 60.6854C26.3038 60.6854 22.5293 52 26.3038 43.3156V36.3675C26.3038 36.3675 24.6121 27.0827 14.8967 20.1978C14.7921 20.2987 14.6687 20.3988 14.574 20.5002C11.2057 24.1002 10.38 34.4135 12.1962 43.3156C12.1962 43.3156 9.31844 53.7369 11.4917 62.4226Z" fill="#0096DC"/>
<path d="M101.508 62.4226C101.508 62.4226 102.23 72.251 101.991 75.5197C101.716 79.2846 99.8093 82.4468 96.1801 83.8344L88.2646 86.7986C88.2686 86.6917 88.2977 86.5912 88.2977 86.4835C88.2977 83.265 87.2511 78.0536 87.2511 78.0536C90.4705 69.3692 86.696 60.6852 86.696 60.6852C86.696 60.6852 90.4705 51.9998 86.696 43.3154V36.3675C86.696 36.3675 88.3877 27.0827 98.1031 20.1978C98.2077 20.2987 98.3311 20.3988 98.4257 20.5002C101.794 24.1002 102.62 34.4135 100.803 43.3158C100.804 43.3156 103.682 53.7369 101.508 62.4226Z" fill="#0096DC"/>
<path d="M56.4997 17.2609C56.4997 17.2609 66.6909 11.6203 75.0924 2.1992C74.4908 1.83886 73.7852 1.62842 73.0399 1.62842H39.96C39.2145 1.62842 38.5089 1.83886 37.9075 2.1992C46.3085 11.6203 56.4997 17.2609 56.4997 17.2609Z" fill="#007DC8"/>
<path d="M24.7348 86.7986C24.7309 86.6917 24.7017 86.5912 24.7017 86.4835C24.7017 85.8802 24.7386 85.2065 24.7982 84.5104C25.0575 81.4938 25.7479 78.0536 25.7479 78.0536C25.1442 76.4252 24.7865 74.7969 24.6037 73.226C23.8114 66.418 26.3029 60.6852 26.3029 60.6852C26.3029 60.6852 22.5285 51.9998 26.3029 43.3154C26.3029 43.3154 26.3029 40.1619 26.3029 38.104H24.4157C22.3311 38.104 20.6412 39.6591 20.6412 41.5778V42.371C17.7366 49.9545 19.2978 57.2782 20.3481 60.67C19.2985 63.9628 17.6767 71.0204 19.9372 78.3987C19.6701 79.8948 19.2713 82.3987 19.112 84.6926L24.7348 86.7986Z" fill="#007DC8"/>
<path d="M82.3109 94.7955C85.8545 93.4903 88.2975 90.2496 88.2975 86.4837C88.2975 84.571 87.9285 81.9613 87.6288 80.1531H93.3545C93.6517 82.0637 93.9594 84.5146 93.9594 86.4837C93.9594 89.4775 92.9559 92.2526 91.2571 94.5416L82.3709 98.2464L82.3109 94.7955Z" fill="#0096DC"/>
<path d="M88.2647 86.7986C88.2687 86.6917 88.2979 86.5912 88.2979 86.4835C88.2979 85.8802 88.261 85.2065 88.2014 84.5104C87.9421 81.4938 87.2517 78.0536 87.2517 78.0536C87.8553 76.4252 88.2131 74.7969 88.3958 73.226C89.1882 66.418 86.6967 60.6852 86.6967 60.6852C86.6967 60.6852 90.4711 51.9998 86.6967 43.3154C86.6967 43.3154 86.6967 40.1619 86.6967 38.104H88.5839C90.6684 38.104 92.3583 39.6591 92.3583 41.5778V42.3711C95.263 49.9545 93.7018 57.2782 92.6514 60.67C93.7011 63.9628 95.3228 71.0204 93.0624 78.3987C93.3294 79.8948 93.7282 82.3987 93.8876 84.6926L88.2647 86.7986Z" fill="#007DC8"/>
<path d="M102.612 43.2697C104.254 34.8664 103.821 23.7713 99.7666 19.4376C95.943 15.3506 85.1735 11.662 82.294 10.7278L77.998 2.82059C77.0532 1.08083 75.1532 0 73.0397 0H39.9601C37.8468 0 35.9466 1.08083 35.0015 2.82039L30.7056 10.7278C27.826 11.6618 17.0566 15.3506 13.2329 19.4376C9.17817 23.7713 8.74582 34.8664 10.3878 43.2697C9.89457 45.2103 7.76788 54.4475 9.70918 62.5503C9.59751 64.1115 9.01728 72.5384 9.24328 75.6291C9.43154 78.2015 10.2949 80.4365 11.7191 82.1811L11.5015 88.5426C11.4037 90.5509 12.6006 92.4294 14.5538 93.3315C14.5759 93.3418 14.5986 93.3516 14.6214 93.3611L28.3085 99.0281V100.635C28.3085 102.491 29.9488 104 31.9651 104H81.034C83.0504 104 84.6906 102.491 84.6906 100.635V99.0281L98.378 93.3609C98.4009 93.3514 98.423 93.3416 98.4455 93.3313C100.404 92.4272 101.601 90.5417 101.497 88.5223L101.153 82.3327C102.653 80.5669 103.562 78.2773 103.756 75.6293C103.982 72.5386 103.402 64.1117 103.29 62.5505C105.232 54.4475 103.105 45.2103 102.612 43.2697ZM100.225 75.4102C100.082 77.375 99.2769 80.8872 95.5013 82.3306L89.9701 84.4456C89.7604 81.9473 89.2673 79.2045 89.0716 78.1735C90.2415 74.8107 90.4574 71.4896 90.2612 68.6274L99.9044 64.9405C100.099 68.0355 100.383 73.265 100.225 75.4102ZM86.5284 86.4837C86.5284 90.5838 83.1625 93.7954 78.8656 93.7954H58.2692V79.6827H85.7577C86.0588 81.4003 86.5284 84.4112 86.5284 86.4837ZM26.4714 86.4837C26.4714 84.4141 26.941 81.4011 27.2421 79.6827H54.7306V93.7954H34.1344C29.8373 93.7954 26.4714 90.5838 26.4714 86.4837ZM17.4985 82.3306C13.7229 80.8872 12.9178 77.3752 12.7741 75.4102C12.6172 73.2654 12.9006 68.0357 13.0954 64.9405L22.7386 68.6274C22.5424 71.4896 22.7583 74.8107 23.928 78.1735C23.7322 79.2045 23.2394 81.9477 23.0297 84.4456L17.4985 82.3306ZM22.9408 49.5982C22.4923 54.7942 23.8463 59.1252 24.4215 60.683C24.1107 61.5136 23.5682 63.1398 23.1696 65.2657L13.0634 61.4018C11.8233 55.7018 12.748 49.2659 13.4053 45.9526L22.9408 49.5982ZM31.6014 13.8891C34.5281 16.0834 44.9391 23.4851 54.7302 25.5411V41.6867H28.073V36.3675C28.073 35.9935 27.9448 27.4802 17.3914 20.305C21.0617 17.6633 28.0348 15.0566 31.6014 13.8891ZM81.3984 13.8889C84.9643 15.0552 91.937 17.6607 95.6088 20.3048C85.0552 27.4802 84.9268 35.9935 84.9268 36.3675V41.6869H58.2692V25.5413C68.0604 23.4851 78.4716 16.083 81.3984 13.8889ZM99.5947 45.9526C100.252 49.2661 101.177 55.7022 99.9366 61.4018L89.8304 65.2657C89.432 63.1396 88.8893 61.5134 88.5785 60.683C89.1537 59.1252 90.5075 54.794 90.059 49.5982L99.5947 45.9526ZM58.2692 76.426V62.3133H85.4309C86.202 64.6078 87.7365 70.4423 85.9411 76.426H58.2692ZM27.0587 76.426C25.2736 70.4647 26.8044 64.6126 27.5718 62.3133H54.7306V76.426H27.0587ZM85.4565 44.9436C87.616 50.8972 86.1702 56.7543 85.4223 59.0564H58.2692V44.9436H85.4565ZM54.7306 59.0564H27.5775C26.8289 56.7523 25.384 50.8962 27.5431 44.9436H54.7306V59.0564ZM56.4989 15.3294C54.1107 13.8832 47.4589 9.5745 41.7067 3.2567H71.2926C65.5515 9.5615 58.8887 13.8805 56.4989 15.3294ZM99.1454 42.598L89.5236 46.2765C89.2667 45.2002 88.9228 44.1064 88.4653 43.0083V36.377C88.4693 36.0665 88.6712 28.9575 97.9321 22.775C100.038 26.6279 100.608 35.0285 99.1454 42.598ZM78.8197 11.6145C75.7696 13.8572 66.6713 20.1648 58.2694 22.1918V18.1594C60.8101 16.6437 68.4484 11.767 74.8669 4.38263C74.8718 4.37673 74.876 4.37064 74.8808 4.36455L78.8197 11.6145ZM38.119 4.36475C38.1238 4.37064 38.128 4.37694 38.1331 4.38283C44.5516 11.7672 52.1901 16.6437 54.7306 18.1594V22.1916C46.338 20.1652 37.2326 13.8564 34.1805 11.6141L38.119 4.36475ZM15.0674 22.775C24.3286 28.9575 24.5305 36.0663 24.5343 36.3675V43.0083C24.0767 44.1064 23.7327 45.2004 23.476 46.2765L13.8542 42.598C12.3914 35.0283 12.9612 26.6279 15.0674 22.775ZM15.0372 88.6828C15.0376 88.674 15.0378 88.6653 15.0381 88.6567L15.1663 84.906C15.4817 85.0618 15.8037 85.2095 16.1407 85.3383L23.0434 87.9775C23.3745 90.2182 24.4464 92.288 26.1467 93.9179C26.6877 94.4365 27.2771 94.8941 27.9048 95.2896L16.1127 90.4071C15.4212 90.0752 14.9999 89.4016 15.0372 88.6828ZM31.8475 100.635V96.8358C32.5906 96.9782 33.3555 97.0523 34.1344 97.0523H54.7306V100.743H31.9655C31.9004 100.743 31.8475 100.694 31.8475 100.635ZM81.0342 100.743H58.2692V97.0523H78.8656C79.6442 97.0523 80.4094 96.9782 81.1523 96.8358V100.635C81.1523 100.694 81.0991 100.743 81.0342 100.743ZM96.8869 90.4071L85.0943 95.2898C85.7222 94.8941 86.3119 94.4365 86.8531 93.9179C88.5534 92.288 89.6255 90.2182 89.9564 87.9775L96.8589 85.3385C97.1676 85.2205 97.4643 85.0868 97.7551 84.9461L97.9631 88.6832C97.9999 89.4016 97.5786 90.0752 96.8869 90.4071Z" fill="black"/>
</g>
<defs>
<clipPath id="clip0">
<rect width="113" height="104" fill="white"/>
</clipPath>
</defs>
</svg>
