<svg width="500" height="500" viewBox="0 0 500 500" fill="none" xmlns="http://www.w3.org/2000/svg">
<path d="M158.205 350.729H93.9969V200.034H158.205V229.331H123.294V321.432H158.205V350.729Z" fill="#EBEBEC"/>
<path d="M320.858 180.343H177.123C150.94 180.343 129.638 159.041 129.638 132.856C129.638 106.673 150.94 85.3711 177.123 85.3711C180.162 85.3711 183.189 85.665 186.155 86.2412C194.903 74.1924 209.004 66.7412 224.556 66.7412C233.236 66.7412 241.677 69.1328 248.99 73.5205C256.304 69.1328 264.744 66.7412 273.425 66.7412C288.976 66.7412 303.077 74.1924 311.825 86.2412C314.792 85.665 317.818 85.3711 320.858 85.3711C347.041 85.3711 368.343 106.673 368.343 132.856C368.343 159.041 347.041 180.343 320.858 180.343Z" fill="#EBEBEC"/>
<path d="M320.858 180.343H250C250 180.343 248.99 91.7978 248.99 73.5205C256.304 69.1328 264.744 66.7412 273.425 66.7412C288.976 66.7412 303.077 74.1924 311.825 86.2412C314.792 85.665 317.818 85.3711 320.858 85.3711C347.041 85.3711 368.343 106.673 368.343 132.856C368.343 159.041 347.041 180.343 320.858 180.343Z" fill="#CACACD"/>
<path d="M354.906 418.601H143.557V166.404H354.906V418.601Z" fill="#CACACD"/>
<path d="M354.906 418.601H250V166.404H354.906V418.601Z" fill="#A9A8AE"/>
<path d="M354.906 418.6H143.557V212.326H354.906V418.6Z" fill="#FBDA35"/>
<path d="M354.906 418.6H250V212.326H354.906V418.6Z" fill="#F7BA35"/>
<path d="M203.584 304.296C211.674 304.296 218.232 297.738 218.232 289.647C218.232 281.557 211.674 274.999 203.584 274.999C195.494 274.999 188.935 281.557 188.935 289.647C188.935 297.738 195.494 304.296 203.584 304.296Z" fill="#FDE888"/>
<path d="M214.521 372.831C222.611 372.831 229.17 366.273 229.17 358.183C229.17 350.093 222.611 343.534 214.521 343.534C206.431 343.534 199.873 350.093 199.873 358.183C199.873 366.273 206.431 372.831 214.521 372.831Z" fill="#FDE888"/>
<path d="M278.457 350.733C286.547 350.733 293.105 344.175 293.105 336.085C293.105 327.995 286.547 321.437 278.457 321.437C270.367 321.437 263.808 327.995 263.808 336.085C263.808 344.175 270.367 350.733 278.457 350.733Z" fill="#FBDA35"/>
<path d="M426.777 73.2227C379.558 26.0049 316.777 0 250 0C183.223 0 120.442 26.0049 73.2227 73.2227C26.0049 120.442 0 183.223 0 250C0 316.777 26.0049 379.558 73.2227 426.777C120.442 473.995 183.223 500 250 500C316.777 500 379.558 473.995 426.777 426.777C473.995 379.558 500 316.777 500 250C500 183.223 473.995 120.442 426.777 73.2227ZM93.9395 406.061C52.2539 364.375 29.2969 308.952 29.2969 250C29.2969 195.958 48.6016 144.89 83.9287 104.644L395.356 416.071C355.109 451.398 304.042 470.703 250 470.703C191.048 470.703 135.625 447.746 93.9395 406.061ZM416.071 395.356L104.644 83.9277C144.891 48.6016 195.958 29.2969 250 29.2969C308.952 29.2969 364.375 52.2539 406.061 93.9395C447.746 135.625 470.703 191.048 470.703 250C470.703 304.042 451.398 355.11 416.071 395.356Z" fill="#FF7F4B"/>
<path d="M426.777 73.2227C379.558 26.0049 316.777 0 250 0V29.2969C308.952 29.2969 364.375 52.2539 406.061 93.9395C447.746 135.625 470.703 191.048 470.703 250C470.703 304.042 451.398 355.11 416.071 395.356L250 229.284V270.716L395.356 416.072C355.109 451.398 304.042 470.703 250 470.703V500C316.777 500 379.558 473.995 426.777 426.777C473.995 379.558 500 316.777 500 250C500 183.223 473.995 120.442 426.777 73.2227Z" fill="#FD5219"/>
</svg>
