<svg width="500" height="500" viewBox="0 0 500 500" fill="none" xmlns="http://www.w3.org/2000/svg">
<path d="M168.687 223.671L140.625 335.937C114.75 341.108 89.8828 350.421 66.9766 363.515L46.875 374.999V421.874H54.6875C67.6328 421.874 78.125 411.382 78.125 398.437L171.875 374.999L195.312 304.687L234.375 351.562C234.375 376.921 242.602 401.593 257.812 421.874V453.124H312.5V445.312C312.5 432.366 302.008 421.874 289.062 421.874L273.438 335.937L226.562 242.187L168.687 223.671Z" fill="#19529D"/>
<path d="M257.812 421.876V453.126H312.5V445.313C312.5 432.368 302.008 421.876 289.062 421.876L273.438 335.938L226.562 242.188L183.156 228.297L156.25 335.938C130.375 341.11 105.508 350.422 82.6016 363.516L62.5 375.001V420.438C71.5859 417.211 78.125 408.626 78.125 398.438L171.875 375.001L195.312 304.688L234.375 351.563C234.375 376.922 242.602 401.594 257.812 421.876Z" fill="#2769B3"/>
<path d="M241.164 175.055L251.297 195.312L291.219 168.695C295.75 165.672 301.078 164.062 306.531 164.062C314.859 164.062 321.609 170.813 321.609 179.141C321.609 184.344 318.93 189.172 314.523 191.93L265.414 222.625C261.289 225.195 256.531 226.562 251.68 226.562C244.797 226.562 238.328 223.836 233.562 219.18" fill="#E8A885"/>
<path d="M234.375 119.391V132.812C239.375 137.812 242.188 144.602 242.188 151.672C242.188 180.578 237.531 209.289 228.391 236.711L226.562 242.188L187.078 236.547L164.062 226.562V156.25L187.5 140.625L210.938 109.375L234.375 119.391Z" fill="#4FA04B"/>
<path d="M242.188 151.672C242.188 144.594 239.375 137.812 234.375 132.812V119.391L210.938 109.375L208.336 112.844L188.117 200.469C187.703 202.234 187.5 204.039 187.5 205.844C187.5 217.734 196.242 227.812 208.008 229.492L229.586 232.578C237.844 206.398 242.188 179.141 242.188 151.672Z" fill="#6BB566"/>
<path d="M226.562 15.625C200.672 15.625 179.688 36.6094 179.688 62.5V78.125C179.688 104.016 200.672 125 226.562 125C252.453 125 273.438 104.016 273.438 78.125V62.5C273.438 36.6094 252.453 15.625 226.562 15.625Z" fill="#E8A885"/>
<path d="M226.562 15.625C215.609 15.625 205.563 19.4141 197.578 25.7031C191.289 33.6875 187.5 43.7344 187.5 54.6875V70.3125C187.5 96.2031 208.484 117.188 234.375 117.188C245.328 117.188 255.375 113.398 263.359 107.109C269.648 99.125 273.438 89.0781 273.438 78.125V62.5C273.438 36.6094 252.453 15.625 226.562 15.625Z" fill="#F6BA91"/>
<path d="M218.75 62.5H273.438C273.438 36.6094 252.453 15.625 226.562 15.625C200.672 15.625 179.688 36.6094 179.688 62.5V78.125C179.688 94.5781 188.187 109.031 201.016 117.398L218.75 93.75V62.5Z" fill="#3F4042"/>
<path d="M226.562 15.625C215.609 15.625 205.563 19.4141 197.578 25.7031C191.289 33.6875 187.5 43.7344 187.5 54.6875V70.3125C187.5 86.2109 195.43 100.227 207.531 108.703L218.75 93.75V62.5H273.438C273.438 36.6094 252.453 15.625 226.562 15.625Z" fill="#5A5B5D"/>
<path d="M132.812 164.062L171.008 132.234C176.617 127.563 183.687 125 190.984 125C202.008 125 210.938 133.93 210.938 144.953C210.938 151.961 207.258 158.453 201.25 162.062L171.875 179.688L184.805 224.938C186.594 231.195 187.5 237.68 187.5 244.195C187.5 251.711 181.398 257.812 173.883 257.812C168.023 257.812 162.813 254.062 160.961 248.5L132.812 164.062Z" fill="#F6BA91"/>
<path d="M15.625 453.125H484.375V484.375H15.625V453.125Z" fill="#3F4042"/>
<path d="M46.875 468.75H484.375V453.125H31.25C31.25 461.758 38.2422 468.75 46.875 468.75Z" fill="#5A5B5D"/>
<path d="M172.508 292.141L187.688 327.555L195.125 305.258L186.867 285.984L172.508 292.141Z" fill="#19529D"/>
<path d="M46.875 375.001V421.876H54.6875C67.6328 421.876 78.125 411.384 78.125 398.438L62.0625 366.321L46.875 375.001Z" fill="#959595"/>
<path d="M292.437 422.22L257.812 421.938V453.126H312.5V445.313C312.5 433.524 303.766 423.868 292.437 422.22Z" fill="#959595"/>
<path d="M429.828 261.649L367.187 484.375H328.125L385.25 281.25L429.828 261.649Z" fill="#777777"/>
<path d="M385.25 281.251L328.125 484.376H351.562L412 269.493L385.25 281.251Z" fill="#959595"/>
<path d="M468.75 203.125L390.625 250H296.875V281.25H390.625L484.375 234.375L468.75 203.125Z" fill="#3F4042"/>
<path d="M478.125 221.875L468.75 203.125L390.625 250H296.875V265.625H390.625L478.125 221.875Z" fill="#5A5B5D"/>
<path d="M484.375 445.312H386.289L436.414 267.086L487.867 241.359C491.727 239.43 493.289 234.734 491.359 230.875L475.734 199.625C474.758 197.68 473.016 196.227 470.93 195.617C468.82 194.984 466.594 195.297 464.727 196.422L388.461 242.188H296.875C292.555 242.188 289.062 245.68 289.062 250V281.25C289.062 285.57 292.555 289.062 296.875 289.062H374.938L330.992 445.312H320.312C320.312 430.359 309.758 417.828 295.719 414.773L281.125 334.539C280.992 333.805 280.758 333.102 280.43 332.438L235 241.578L235.797 239.172C236.648 236.625 237.414 234.055 238.188 231.484C242.398 233.336 246.953 234.375 251.68 234.375C258.008 234.375 264.188 232.602 269.547 229.25L318.672 198.555C325.398 194.336 329.422 187.078 329.422 179.148C329.422 166.523 319.156 156.25 306.523 156.25C299.508 156.25 292.711 158.312 286.875 162.203L254.32 183.906L249.125 173.516C249.703 166.266 250 158.977 250 151.672C250 143.852 247.367 136.453 242.602 130.406C264.953 123.531 281.25 102.695 281.25 78.125V62.5C281.25 32.3516 256.711 7.8125 226.562 7.8125C196.414 7.8125 171.875 32.3516 171.875 62.5V78.125C171.875 93.5312 178.305 107.445 188.594 117.398C180.336 117.914 172.375 120.914 166 126.227L127.805 158.055C125.344 160.117 124.383 163.477 125.398 166.531L153.547 250.969C153.594 251.109 153.664 251.227 153.711 251.359L134.227 329.297C109.25 334.797 85.3359 344.016 63.1016 356.734L43 368.219C40.5625 369.609 39.0625 372.195 39.0625 375V421.875C39.0625 426.195 42.5547 429.688 46.875 429.688H54.6875C69.7812 429.688 82.4062 418.938 85.3125 404.695L173.766 382.578C176.359 381.938 178.445 380.008 179.281 377.477L198.289 320.469L226.594 354.438C227.18 379.445 235.43 404.094 250 424.438V445.312H15.625C11.3047 445.312 7.8125 448.805 7.8125 453.125V484.375C7.8125 488.695 11.3047 492.188 15.625 492.188H484.375C488.695 492.188 492.188 488.695 492.188 484.375V453.125C492.188 448.805 488.695 445.312 484.375 445.312ZM361.266 476.562H338.438L391.211 288.922C392.211 288.844 393.219 288.688 394.117 288.234L417.523 276.531L361.266 476.562ZM304.688 257.812H390.625C392.047 257.812 393.43 257.43 394.648 256.695L465.539 214.164L473.891 230.883L388.781 273.438H304.688V257.812ZM249.289 202.867C251.461 203.438 253.766 203.062 255.633 201.812L295.547 175.203C298.812 173.023 302.602 171.875 306.523 171.875C310.531 171.875 313.797 175.141 313.797 179.148C313.797 181.664 312.516 183.969 310.375 185.312L261.258 216.008C255.547 219.562 248.086 219.43 242.375 216.078C243.617 210.898 244.68 205.688 245.617 200.453C246.625 201.555 247.812 202.469 249.289 202.867ZM226.562 117.188C221.734 117.188 217.156 116.195 212.883 114.586L225 98.4375C226.016 97.0859 226.562 95.4453 226.562 93.75V70.3125H265.625V78.125C265.625 99.6641 248.102 117.188 226.562 117.188ZM187.5 78.125V62.5C187.5 40.9609 205.023 23.4375 226.562 23.4375C245.422 23.4375 261.203 36.8828 264.836 54.6875H218.75C214.43 54.6875 210.938 58.1797 210.938 62.5V91.1484L199.602 106.266C192.172 99.1484 187.5 89.1953 187.5 78.125ZM226.562 132.812C226.562 134.891 227.383 136.875 228.852 138.336C232.414 141.898 234.375 146.641 234.375 151.672C234.375 179.531 229.953 207.07 221.203 233.531L193.758 229.609C193.32 227.328 192.953 225.031 192.32 222.797L181.031 183.305L205.273 168.766C213.586 163.773 218.75 154.648 218.75 144.953C218.75 140.094 217.383 135.586 215.18 131.602C218.852 132.383 222.656 132.812 226.562 132.812ZM141.906 166.648L176.008 138.227C180.195 134.734 185.516 132.812 190.984 132.812C197.68 132.812 203.125 138.258 203.125 144.953C203.125 149.195 200.867 153.188 197.227 155.367L167.852 172.992C164.82 174.805 163.391 178.438 164.359 181.836L177.289 227.086C178.875 232.656 179.688 238.414 179.688 244.195C179.688 247.398 177.086 250 173.883 250C171.383 250 169.164 248.406 168.367 246.023L141.906 166.648ZM54.6875 414.062V379.531L58.7734 377.203L70.1562 399.977C69.375 407.859 62.7734 414.062 54.6875 414.062ZM242.188 351.562C242.188 349.734 241.547 347.961 240.383 346.555L201.562 299.969L186.195 276.914L173.195 285.578L186.703 305.836L165.828 368.453L82.3203 389.336L72.3984 369.492C94.1953 357.242 117.641 348.492 142.164 343.586C145.125 343 147.477 340.75 148.203 337.82L166.578 264.297C168.883 265.141 171.328 265.625 173.883 265.625C185.219 265.625 194.43 256.75 195.172 245.602L221.406 249.352L265.953 338.438L279.703 414.062H261.906C249.211 395.812 242.188 373.805 242.188 351.562ZM265.625 429.688H289.062C297.68 429.688 304.688 436.695 304.688 445.312H265.625V429.688ZM23.4375 460.938H326.602L322.211 476.562H23.4375V460.938ZM476.562 476.562H377.5L381.891 460.938H476.562V476.562Z" fill="black"/>
</svg>
