<svg width="500" height="500" viewBox="0 0 500 500" fill="none" xmlns="http://www.w3.org/2000/svg">
<path d="M472.218 396.53L460.745 390.994C420.773 371.706 376.965 361.688 332.583 361.688H167.417C123.035 361.688 79.2256 371.706 39.2549 390.994L27.7822 396.53C15.4326 402.489 7.58496 414.991 7.58496 428.702C7.58496 448.431 23.5781 464.423 43.3057 464.423H456.693C476.422 464.423 492.414 448.43 492.414 428.702C492.415 414.991 484.566 402.489 472.218 396.53Z" fill="#C1D5E4"/>
<path d="M305.119 91.2079C310.004 81.8586 308.738 71.5479 302.289 68.1783C295.841 64.8086 286.653 69.656 281.768 79.0053C276.882 88.3545 278.149 98.6652 284.597 102.035C291.045 105.405 300.233 100.557 305.119 91.2079Z" fill="#FFCBBE"/>
<path d="M305.119 91.2079C310.004 81.8586 308.738 71.5479 302.289 68.1783C295.841 64.8086 286.653 69.656 281.768 79.0053C276.882 88.3545 278.149 98.6652 284.597 102.035C291.045 105.405 300.233 100.557 305.119 91.2079Z" fill="#EAAC9D"/>
<path d="M472.218 396.53L460.745 390.994C420.773 371.706 376.965 361.688 332.583 361.688H279.5C323.882 361.688 367.691 371.706 407.662 390.994L419.135 396.53C431.483 402.489 439.332 414.99 439.332 428.702C439.332 448.431 423.339 464.423 403.611 464.423H456.695C476.424 464.423 492.416 448.43 492.416 428.702C492.415 414.991 484.566 402.489 472.218 396.53Z" fill="#98B9D3"/>
<path d="M7.58496 428.702C7.58496 414.991 15.4326 402.489 27.7822 396.53L37.8867 391.654L86.4209 389.034C107.218 387.911 128.07 389.679 148.382 394.286L259.44 419.478V464.422H43.3057C23.5781 464.424 7.58496 448.431 7.58496 428.702Z" fill="#DAE7EF"/>
<path d="M9.08887 418.47C8.11035 421.742 7.58496 425.18 7.58496 428.702C7.58496 448.43 23.5781 464.422 43.3057 464.422H259.439V443.926H43.3057C27.1465 443.927 13.5 433.194 9.08887 418.47Z" fill="#C1D5E4"/>
<path d="M102.478 470.906L122.916 451.32C127.036 447.372 131.943 444.336 137.315 442.41L168.391 431.27C171.333 430.215 173.979 428.468 176.104 426.176L188.964 412.308C195.321 405.453 205.648 404.077 213.576 409.029L225.72 416.613C228.612 418.419 231.721 419.85 234.974 420.869L259.179 428.459L262.907 460.044L158.836 468.817C151.187 469.457 143.711 471.445 136.755 474.69L108.894 487.682C104.807 489.587 100 487.264 98.9543 482.877C97.9201 478.543 99.2619 473.988 102.478 470.906Z" fill="#FFCBBE"/>
<path d="M260.877 442.851L157.307 451.582C149.657 452.222 142.182 454.21 135.225 457.454L107.363 470.446C105.769 471.189 104.067 471.282 102.521 470.867L102.478 470.908C99.2617 473.99 97.9209 478.545 98.9531 482.877C99.9981 487.264 104.806 489.587 108.892 487.682L136.753 474.689C143.71 471.445 151.186 469.458 158.834 468.817L262.905 460.044L260.877 442.851Z" fill="#EAAC9D"/>
<path d="M492.415 428.702C492.415 414.991 484.567 402.489 472.218 396.53L462.113 391.654L413.579 389.034C392.782 387.911 371.93 389.679 351.618 394.286L245.089 418.45C242.439 419.051 240.56 421.405 240.56 424.122V458.606C240.56 461.818 243.163 464.423 246.376 464.423H456.693C476.422 464.424 492.415 448.431 492.415 428.702Z" fill="#DAE7EF"/>
<path d="M472.218 396.531L470.14 395.528C471.653 399.511 472.477 403.794 472.477 408.207C472.477 427.935 456.483 443.927 436.756 443.927H240.561V458.607C240.561 461.819 243.164 464.423 246.377 464.423H456.694C476.423 464.423 492.415 448.43 492.415 428.703C492.415 414.992 484.566 402.49 472.218 396.531Z" fill="#C1D5E4"/>
<path d="M492.567 404.198L483.553 369.729C482.347 365.118 478.45 361.709 473.72 361.127L441.578 357.172C439.07 356.864 436.753 355.674 435.04 353.816L386.147 300.767C384.45 298.926 383.34 296.622 382.958 294.148L367.733 195.424C365.758 182.618 358.746 171.132 348.258 163.523L344.258 160.621C335.967 154.605 325.986 151.366 315.742 151.366L307.368 188.92L347.484 325.679C348.619 329.552 351.064 332.913 354.4 335.186L424.055 382.662C427.484 384.999 431.141 386.982 434.969 388.581L486.009 409.897C489.711 411.443 493.581 408.08 492.567 404.198Z" fill="#FFCBBE"/>
<path d="M7.43377 404.198L16.4474 369.729C17.6535 365.118 21.55 361.709 26.2805 361.127L58.4221 357.172C60.9308 356.864 63.2472 355.674 64.9601 353.816L113.854 300.767C115.55 298.926 116.66 296.622 117.042 294.148L132.268 195.424C134.242 182.618 141.254 171.132 151.742 163.523L155.742 160.621C164.033 154.605 174.015 151.366 184.258 151.366L192.632 188.92L152.517 325.679C151.381 329.552 148.937 332.913 145.601 335.186L75.9455 382.662C72.5168 384.999 68.8596 386.982 65.0314 388.581L13.9914 409.897C10.2892 411.443 6.41913 408.08 7.43377 404.198Z" fill="#FFCBBE"/>
<path d="M139.732 313.921C138.596 317.794 136.152 321.155 132.816 323.427L63.1609 370.903C59.7321 373.24 56.0749 375.223 52.2468 376.822L9.97531 394.476L7.43332 404.198C6.41867 408.079 10.2878 411.442 13.99 409.896L65.03 388.58C68.8591 386.981 72.5154 384.998 75.9441 382.661L145.599 335.185C148.935 332.912 151.379 329.552 152.515 325.679L192.632 188.92L185.378 156.386L139.732 313.921Z" fill="#EAAC9D"/>
<path d="M492.566 404.199L483.553 369.73C482.347 365.119 478.45 361.709 473.72 361.127L441.578 357.172C439.069 356.864 436.753 355.674 435.04 353.816L386.146 300.767C384.45 298.926 383.34 296.622 382.958 294.148L367.732 195.424C365.758 182.618 358.746 171.132 348.258 163.523L344.258 160.621C335.967 154.605 325.985 151.366 315.742 151.366L313.404 161.85C319.77 163.296 325.817 166.013 331.161 169.89L335.161 172.792C345.649 180.402 352.66 191.888 354.636 204.694L369.861 303.417C370.243 305.892 371.353 308.196 373.05 310.037L421.943 363.085C423.656 364.944 425.974 366.133 428.481 366.442L460.623 370.397C465.353 370.979 469.25 374.388 470.456 378.999L477.62 406.393L486.01 409.897C489.711 411.443 493.581 408.08 492.566 404.199Z" fill="#EAAC9D"/>
<path d="M311.343 370.531L324.922 368.585C328.162 368.122 329.877 364.499 328.183 361.699L323.373 353.751C312.855 336.368 307.293 316.437 307.293 296.119V280.44C307.293 267.424 310.788 254.648 317.413 243.445C322.439 234.947 325.089 225.255 325.089 215.383V163.482C325.089 153.141 316.705 144.757 306.365 144.757H193.635C183.294 144.757 174.91 153.14 174.91 163.482V215.383C174.91 225.255 177.562 234.947 182.586 243.445C189.211 254.648 192.706 267.424 192.706 280.44V296.119C192.706 316.437 187.146 336.368 176.626 353.751L171.817 361.699C170.122 364.499 171.836 368.122 175.077 368.585L188.657 370.531C229.345 376.361 270.656 376.361 311.343 370.531Z" fill="#86F1A7"/>
<path d="M328.183 361.698L323.373 353.75C312.854 336.367 307.293 316.436 307.293 296.118V280.439C307.293 267.423 310.788 254.647 317.413 243.444C322.438 234.946 325.089 225.254 325.089 215.382V163.481C325.089 153.14 316.705 144.756 306.364 144.756H298.435V217.944C298.435 228.174 295.688 238.217 290.48 247.023C283.615 258.632 279.994 271.873 279.994 285.36V301.607C279.994 322.663 285.757 343.316 296.657 361.33L302.901 371.649C305.718 371.302 308.532 370.933 311.344 370.531L324.923 368.585C328.163 368.121 329.877 364.498 328.183 361.698Z" fill="#78D090"/>
<path d="M261.396 166.355H238.604C228.672 166.355 220.621 158.305 220.621 148.373V104.132H279.377V148.373C279.378 158.305 271.327 166.355 261.396 166.355Z" fill="#EAAC9D"/>
<path d="M262.783 104.132V148.507C262.783 158.364 254.792 166.355 244.935 166.355H261.53C271.387 166.355 279.378 158.364 279.378 148.507V104.132H262.783Z" fill="#DF9380"/>
<path d="M264.852 11.6338H235.532C220.311 11.6338 207.973 23.9727 207.973 39.1924V59.7246H292.412V39.1934C292.411 23.9727 280.072 11.6338 264.852 11.6338Z" fill="#BE694F"/>
<path d="M265.056 11.6338H237.302C252.41 11.6338 264.657 23.8809 264.657 38.9883V59.7246H292.411V38.9893C292.411 23.8818 280.164 11.6338 265.056 11.6338Z" fill="#AA593D"/>
<path d="M279.079 119.477L269.264 128.865C258.597 139.068 241.788 139.068 231.12 128.865L221.305 119.477C212.789 111.331 207.973 100.06 207.973 88.2754V53.0928C207.973 49.4883 210.895 46.5664 214.499 46.5664H285.885C289.489 46.5664 292.411 49.4883 292.411 53.0928V88.2754C292.411 100.059 287.595 111.331 279.079 119.477Z" fill="#FFCBBE"/>
<path d="M285.885 46.5654H273.873V85.3662C273.873 97.1504 269.057 108.422 260.541 116.567L250.726 125.956C246.758 129.752 241.939 132.133 236.903 133.104C247.216 138.778 260.372 137.369 269.264 128.864L279.079 119.476C287.595 111.33 292.411 100.059 292.411 88.2744V53.0928C292.411 49.4883 289.489 46.5654 285.885 46.5654Z" fill="#EAAC9D"/>
<path d="M215.275 101.949C221.723 98.5795 222.99 88.2688 218.104 78.9196C213.218 69.5703 204.03 64.7229 197.582 68.0926C191.134 71.4622 189.867 81.7729 194.753 91.1222C199.639 100.471 208.827 105.319 215.275 101.949Z" fill="#FFCBBE"/>
<path d="M499.6 402.359L490.585 367.891C488.615 360.351 482.343 354.865 474.607 353.912L442.465 349.957C441.668 349.859 440.93 349.479 440.384 348.888L391.489 295.838C390.77 295.058 390.303 294.09 390.142 293.039L380.07 227.737C379.459 223.769 375.756 221.052 371.777 221.66C367.81 222.272 365.089 225.985 365.701 229.953L375.772 295.253C376.376 299.171 378.115 302.781 380.8 305.693L429.692 358.741C432.569 361.863 436.475 363.869 440.689 364.387L472.832 368.342C474.617 368.562 476.064 369.828 476.52 371.568L484.296 401.301L437.772 381.872C434.402 380.464 431.165 378.709 428.149 376.653L358.495 329.177C356.555 327.855 355.121 325.885 354.461 323.632L328.799 236.144C331.143 229.501 332.36 222.479 332.36 215.381V163.48C332.36 163.03 332.349 162.582 332.326 162.137C335.022 163.32 337.6 164.771 339.989 166.504L343.989 169.406C352.845 175.831 358.88 185.717 360.548 196.532C361.886 205.908 376.489 203.592 374.917 194.315C372.661 179.694 364.501 166.325 352.527 157.637L348.527 154.736C341.409 149.571 333.097 146.168 324.414 144.799C319.734 140.277 313.371 137.486 306.365 137.486H286.648V122.162C286.648 122.138 286.646 122.116 286.645 122.092C290.061 118.306 292.916 114 295.054 109.364C301.654 107.298 307.737 101.928 311.622 94.4946C314.661 88.6773 315.942 82.2798 315.23 76.48C314.407 69.7837 310.939 64.3784 305.714 61.648C303.821 60.6597 301.79 60.0581 299.681 59.8423V59.7241V38.9888C299.681 19.897 284.148 4.36377 265.057 4.36377H235.327C216.235 4.36377 200.702 19.897 200.702 38.9888V59.7251V59.8023C198.46 59.9819 196.297 60.5972 194.285 61.648C189.061 64.3784 185.592 69.7837 184.769 76.48C184.056 82.2798 185.337 88.6782 188.377 94.4946C192.303 102.008 198.645 107.483 205.377 109.466C207.43 113.89 210.131 118.013 213.352 121.667V137.487H193.635C186.629 137.487 180.266 140.278 175.587 144.799C166.905 146.167 158.592 149.572 151.472 154.737L147.473 157.638C135.498 166.326 127.337 179.695 125.082 194.317L109.856 293.041C109.694 294.09 109.229 295.059 108.509 295.84L59.6143 348.89C59.0703 349.48 58.3311 349.86 57.5342 349.958L25.3926 353.913C17.6582 354.865 11.3858 360.351 9.41409 367.891L0.400422 402.36C-0.6445 406.356 0.391633 410.501 3.10257 413.509C1.27542 418.342 0.315461 423.48 0.315461 428.702C0.315461 452.407 19.6016 471.693 43.3067 471.693H93.1699C91.3487 475.666 90.8418 480.2 91.8819 484.562C93.7168 493.215 104.041 498.214 111.965 494.27L139.827 481.278C146.026 478.387 152.626 476.632 159.446 476.062L211.26 471.694H456.694C480.399 471.694 499.686 452.408 499.686 428.703C499.686 423.492 498.718 418.353 496.891 413.518C499.606 410.507 500.646 406.359 499.6 402.359ZM350.306 341.192L373.889 357.266C360.211 355.378 346.406 354.419 332.583 354.419C332.482 354.419 332.385 354.429 332.285 354.433L329.594 349.986C319.761 333.736 314.564 315.109 314.564 296.117V280.438C314.564 271.957 316.225 263.58 319.402 255.773L340.508 327.725C342.114 333.199 345.593 337.98 350.306 341.192ZM227.892 135.711C234.354 141.106 242.271 143.812 250.191 143.812C257.956 143.812 265.717 141.211 272.107 136.029V148.507C272.107 154.34 267.361 159.086 261.528 159.086H238.471C232.638 159.086 227.892 154.34 227.892 148.507V135.711ZM235.327 18.9038H265.057C276.131 18.9038 285.141 27.9146 285.141 38.9888V39.2954H215.242V38.9888C215.242 27.9136 224.253 18.9038 235.327 18.9038ZM201.265 87.7622C199.602 84.5796 198.85 81.1138 199.201 78.2544C199.398 74.3921 202.224 73.5122 204.802 75.0298C207.055 76.1216 209.711 75.978 211.833 74.648C213.955 73.3189 215.243 70.9907 215.243 68.4878V53.8355H285.142V68.3062C285.142 70.7769 286.397 73.0786 288.474 74.4175C290.551 75.7554 293.165 75.9478 295.416 74.9263C297.903 73.5171 300.616 74.5298 300.8 78.2534C301.151 81.1128 300.399 84.5786 298.736 87.7612C296.11 92.7876 292.036 95.5835 289.369 95.7485C286.48 95.9273 283.971 97.8032 282.983 100.525C281.107 105.694 278.021 110.431 274.055 114.223L264.239 123.612C256.363 131.146 244.022 131.145 236.147 123.612L226.331 114.223C222.367 110.432 219.28 105.697 217.404 100.527C216.385 97.7193 213.753 95.8208 210.768 95.7407C208.078 95.6675 203.951 92.9038 201.265 87.7622ZM193.635 152.027H213.604C215.321 164.216 225.815 173.626 238.471 173.626H261.528C274.185 173.626 284.679 164.217 286.396 152.027H306.364C312.68 152.027 317.819 157.166 317.819 163.481V215.382C317.819 223.948 315.516 232.372 311.155 239.744C303.873 252.059 300.023 266.131 300.023 280.439V296.118C300.023 317.763 305.947 338.994 317.153 357.514L319.85 361.967L310.313 363.334C270.293 369.068 229.709 369.069 189.689 363.334L180.151 361.967L182.847 357.513C194.054 338.994 199.977 317.763 199.977 296.117V280.438C199.977 266.131 196.127 252.059 188.845 239.743C184.485 232.37 182.181 223.946 182.181 215.381V163.48C182.18 157.166 187.318 152.027 193.635 152.027ZM170.406 349.986L167.715 354.433C167.615 354.429 167.518 354.418 167.416 354.418C153.583 354.418 139.772 355.393 126.085 357.283L149.694 341.191C154.407 337.979 157.887 333.197 159.491 327.723L180.597 255.772C183.774 263.578 185.436 271.956 185.436 280.437V296.116C185.437 315.11 180.239 333.737 170.406 349.986ZM23.4805 371.57C23.9356 369.83 25.3828 368.563 27.169 368.344L59.3106 364.389C63.5244 363.871 67.4297 361.866 70.3067 358.744L119.201 305.694C121.887 302.781 123.624 299.17 124.229 295.255L139.454 196.533C141.121 185.719 147.157 175.833 156.013 169.407L160.012 166.505C162.401 164.772 164.98 163.321 167.676 162.138C167.653 162.583 167.642 163.031 167.642 163.481V215.382C167.642 222.48 168.86 229.501 171.204 236.145L145.541 323.632C144.88 325.885 143.447 327.855 141.507 329.177L71.8516 376.653C68.836 378.709 65.5987 380.464 62.2295 381.871L15.7061 401.301L23.4805 371.57ZM14.8545 428.702C14.8545 424.345 15.8662 420.081 17.7686 416.197L62.2481 397.62L86.8115 396.294C106.937 395.206 127.113 396.918 146.772 401.376C147.986 401.592 154.648 403.326 155.757 403.229C159.076 403.229 162.074 400.94 162.84 397.566C163.729 393.65 161.274 389.756 157.359 388.868L149.988 387.196C130.452 382.764 110.441 380.881 90.4346 381.581L95.5674 378.082C118.231 372.235 141.56 369.176 164.965 368.977C164.987 369.026 165.001 369.078 165.024 369.126C166.729 372.728 170.102 375.215 174.045 375.78L187.624 377.725C208.318 380.69 229.159 382.172 249.998 382.172C270.839 382.172 291.678 380.69 312.372 377.725L325.951 375.78C329.895 375.214 333.268 372.727 334.973 369.128C334.996 369.079 335.01 369.027 335.033 368.977C358.437 369.177 381.764 372.235 404.428 378.081L409.564 381.581C389.558 380.882 369.547 382.764 350.011 387.196L249.999 409.881L216.335 402.246C205.62 396.231 192.058 398.276 183.632 407.363L170.772 421.231C169.445 422.662 167.773 423.766 165.937 424.425L134.859 435.566C128.485 437.851 122.774 441.385 117.885 446.072L106.321 457.153H43.3057C27.6182 457.153 14.8545 444.39 14.8545 428.702ZM158.23 461.572C149.698 462.286 141.439 464.482 133.682 468.099L105.986 481.014C105.631 479.252 106.204 477.405 107.508 476.156L127.945 456.57C131.351 453.306 135.328 450.845 139.767 449.253L170.844 438.113C174.866 436.671 178.528 434.253 181.435 431.119L194.294 417.251C198.462 412.71 205.357 412.145 210.354 415.587L221.868 422.779C225.281 424.911 228.959 426.602 232.798 427.805L233.29 427.96V455.244L158.23 461.572ZM456.693 457.153H247.83V425.284L353.228 401.377C372.887 396.918 393.059 395.207 413.188 396.294C413.188 396.294 437.31 397.575 437.595 397.556L482.236 416.201C484.138 420.085 485.146 424.357 485.146 428.703C485.146 444.39 472.382 457.153 456.693 457.153Z" fill="black"/>
</svg>
