<svg width="500" height="500" viewBox="0 0 500 500" fill="none" xmlns="http://www.w3.org/2000/svg">
<path d="M247.47 43.7803H40V229.4H247.47V43.7803Z" fill="#FAFAFA"/>
<path d="M247.47 229.39C247.47 229.39 247.47 228.2 247.42 225.95C247.37 223.7 247.42 220.34 247.42 216C247.42 207.29 247.35 194.55 247.29 178.32C247.24 145.89 247.15 99.5502 247.05 43.7802L247.52 44.2502L39.9999 44.3302L40.5499 43.7802C40.5499 111.31 40.5499 174.85 40.4899 229.39L39.9999 228.91L190.06 229.15L232.38 229.28L243.59 229.34H246.48H247.48C247.48 229.34 247.17 229.34 246.54 229.34H243.71L232.6 229.4L190.38 229.53L39.9999 229.88H39.5099V229.39C39.5099 174.85 39.5099 111.31 39.4399 43.7802V43.2202H39.9999L247.45 43.3002H247.92V43.7802C247.82 99.6702 247.74 146.12 247.68 178.62C247.68 194.8 247.59 207.51 247.56 216.2C247.56 220.49 247.56 223.79 247.51 226.05C247.46 228.31 247.47 229.39 247.47 229.39Z" fill="#E0E0E0"/>
<path d="M119.55 76.7602C119.55 77.0602 108.63 77.3102 95.1599 77.3102C81.6899 77.3102 70.7699 77.0602 70.7699 76.7602C70.7699 76.4602 81.6899 76.2002 95.1599 76.2002C108.63 76.2002 119.55 76.4502 119.55 76.7602Z" fill="#E0E0E0"/>
<path d="M207.46 90.6901C207.46 91.0001 177.46 91.2501 140.46 91.2501C103.46 91.2501 73.46 91.0001 73.46 90.6901C73.46 90.3801 103.46 90.1401 140.46 90.1401C177.46 90.1401 207.46 90.3901 207.46 90.6901Z" fill="#E0E0E0"/>
<path d="M79.8699 114.3H71.1299V123.04H79.8699V114.3Z" fill="#E0E0E0"/>
<path d="M101.38 114.3H92.6399V123.04H101.38V114.3Z" fill="#E0E0E0"/>
<path d="M123.3 113.9H114.56V122.64H123.3V113.9Z" fill="#E0E0E0"/>
<path d="M144.42 114.3H135.68V123.04H144.42V114.3Z" fill="#E0E0E0"/>
<path d="M165.93 114.3H157.19V123.04H165.93V114.3Z" fill="#E0E0E0"/>
<path d="M187.45 114.3H178.71V123.04H187.45V114.3Z" fill="#E0E0E0"/>
<path d="M208.96 114.3H200.22V123.04H208.96V114.3Z" fill="#EBEBEB"/>
<path d="M79.8699 132.88H71.1299V141.62H79.8699V132.88Z" fill="#EBEBEB"/>
<path d="M101.38 132.88H92.6399V141.62H101.38V132.88Z" fill="#E0E0E0"/>
<path d="M122.9 132.88H114.16V141.62H122.9V132.88Z" fill="#EBEBEB"/>
<path d="M144.42 132.88H135.68V141.62H144.42V132.88Z" fill="#E0E0E0"/>
<path d="M165.93 132.88H157.19V141.62H165.93V132.88Z" fill="#E0E0E0"/>
<path d="M187.85 132.49H179.11V141.23H187.85V132.49Z" fill="#E0E0E0"/>
<path d="M208.96 132.88H200.22V141.62H208.96V132.88Z" fill="#E0E0E0"/>
<path d="M79.8699 151.47H71.1299V160.21H79.8699V151.47Z" fill="#E0E0E0"/>
<path d="M101.78 151.07H93.0399V159.81H101.78V151.07Z" fill="#E0E0E0"/>
<path d="M122.9 151.47H114.16V160.21H122.9V151.47Z" fill="#E0E0E0"/>
<path d="M144.42 151.47H135.68V160.21H144.42V151.47Z" fill="#EBEBEB"/>
<path d="M165.93 151.47H157.19V160.21H165.93V151.47Z" fill="#E0E0E0"/>
<path d="M187.45 151.47H178.71V160.21H187.45V151.47Z" fill="#E0E0E0"/>
<path d="M208.96 151.47H200.22V160.21H208.96V151.47Z" fill="#E0E0E0"/>
<path d="M79.8699 170.05H71.1299V178.79H79.8699V170.05Z" fill="#E0E0E0"/>
<path d="M101.38 170.05H92.6399V178.79H101.38V170.05Z" fill="#E0E0E0"/>
<path d="M122.9 170.05H114.16V178.79H122.9V170.05Z" fill="#E0E0E0"/>
<path d="M144.81 169.65H136.07V178.39H144.81V169.65Z" fill="#E0E0E0"/>
<path d="M165.93 170.05H157.19V178.79H165.93V170.05Z" fill="#E0E0E0"/>
<path d="M187.45 170.05H178.71V178.79H187.45V170.05Z" fill="#EBEBEB"/>
<path d="M208.96 170.05H200.22V178.79H208.96V170.05Z" fill="#E0E0E0"/>
<path d="M79.8699 188.63H71.1299V197.37H79.8699V188.63Z" fill="#E0E0E0"/>
<path d="M101.38 188.63H92.6399V197.37H101.38V188.63Z" fill="#EBEBEB"/>
<path d="M122.9 188.63H114.16V197.37H122.9V188.63Z" fill="#E0E0E0"/>
<path d="M144.42 188.63H135.68V197.37H144.42V188.63Z" fill="#E0E0E0"/>
<path d="M165.93 188.63H157.19V197.37H165.93V188.63Z" fill="#E0E0E0"/>
<path d="M187.85 188.23H179.11V196.97H187.85V188.23Z" fill="#E0E0E0"/>
<path d="M208.96 188.63H200.22V197.37H208.96V188.63Z" fill="#E0E0E0"/>
<path d="M430.18 293.28C439.43 288.51 450.31 287.89 460.58 289.59C466.09 290.5 471.84 292.15 475.58 296.29C479.32 300.43 480.04 307.72 475.74 311.29C473.17 313.41 469.59 313.73 466.27 313.69C458.27 313.6 449.32 312.18 442.9 317.02C439.24 319.77 436.8 324.36 432.42 325.72C428.04 327.08 423.3 324.52 421.03 320.65C418.76 316.78 418.69 311.95 419.74 307.59C420.264 304.563 421.479 301.698 423.289 299.216C425.1 296.735 427.458 294.703 430.18 293.28Z" fill="#EBEBEB"/>
<path d="M409 252.39C414.65 260.47 425.64 257.79 430.74 252.87C435.84 247.95 437.98 240.79 439.94 233.98C444.42 218.42 448.94 202.09 445.61 186.25C444.61 181.51 442.84 176.78 439.51 173.25C436.18 169.72 431.06 167.64 426.38 168.88C420.84 170.34 417.38 175.77 414.91 180.88C407.577 196.118 403.734 212.8 403.66 229.71C403.66 237.58 404.56 245.83 409 252.32" fill="#EBEBEB"/>
<path d="M393.48 264C399.62 256.71 400.78 246.09 398.05 237C395.32 227.91 389.15 220.11 382.05 213.78C373.684 206.325 363.941 200.578 353.37 196.86C349.23 195.4 344.85 194.25 340.48 194.67C336.11 195.09 331.7 197.32 329.66 201.21C326.66 206.97 329.53 213.95 332.66 219.64C338.173 229.68 344.47 239.27 351.49 248.32C357.14 255.6 363.6 262.78 372.21 266.07C380.82 269.36 389.75 268.97 394.31 263" fill="#EBEBEB"/>
<path d="M408.62 374.19C408.915 372.988 409.086 371.758 409.13 370.52C409.39 367.85 409.72 364.52 410.13 360.52C410.634 355.592 411.388 350.692 412.39 345.84C413.699 339.93 415.481 334.134 417.72 328.51C419.916 322.887 422.899 317.605 426.58 312.82C429.572 308.926 433.394 305.749 437.77 303.52C440.736 302.051 443.915 301.059 447.19 300.58C448.421 300.53 449.644 300.355 450.84 300.06C449.606 299.897 448.358 299.877 447.12 300C443.72 300.259 440.394 301.126 437.3 302.56C432.69 304.731 428.647 307.942 425.49 311.94C421.659 316.791 418.568 322.183 416.32 327.94C414.045 333.649 412.272 339.544 411.02 345.56C410.047 350.465 409.372 355.424 409 360.41C408.68 364.66 408.56 368.1 408.5 370.48C408.41 371.718 408.45 372.961 408.62 374.19Z" fill="#E0E0E0"/>
<path d="M409.31 366.48C409.405 365.919 409.439 365.349 409.41 364.78C409.41 363.5 409.41 361.89 409.41 359.91C409.41 355.69 409.41 349.57 409.63 342.02C410 326.92 411.3 310.67 413.82 287.76C416.19 266.22 419.39 241.15 422.75 224.85C423.48 221.14 424.2 217.85 424.89 214.85C425.58 211.85 426.1 209.4 426.64 207.35C427.18 205.3 427.47 203.86 427.77 202.62C427.938 202.075 428.039 201.511 428.07 200.94C427.814 201.45 427.616 201.987 427.48 202.54L426.07 207.2C425.44 209.2 424.8 211.73 424.07 214.65C423.34 217.57 422.51 220.89 421.72 224.59C417.545 243.868 414.407 263.356 412.32 282.97C409.8 305.92 408.67 326.83 408.57 341.97C408.48 349.54 408.64 355.67 408.83 359.9C408.96 361.9 409.05 363.48 409.13 364.76C409.124 365.339 409.185 365.916 409.31 366.48Z" fill="#E0E0E0"/>
<path d="M409.41 326.17C409.543 324.476 409.543 322.774 409.41 321.08C409.124 316.464 408.606 311.865 407.86 307.3C406.743 300.531 405.248 293.831 403.38 287.23C401.193 279.11 398.384 271.17 394.98 263.48C387.98 246.96 378.56 233.48 370.33 225.09C368.512 223.173 366.575 221.372 364.53 219.7C363.64 218.95 362.86 218.2 362.06 217.61L359.81 216.06C358.454 215.033 357.019 214.114 355.52 213.31C355.28 213.64 361.59 217.36 369.52 225.83C377.45 234.3 386.65 247.7 393.52 264.08C396.868 271.726 399.701 279.587 402 287.61C403.927 294.151 405.519 300.787 406.77 307.49C407.82 313.21 408.43 317.89 408.77 321.13C408.856 322.824 409.07 324.509 409.41 326.17Z" fill="#E0E0E0"/>
<path d="M370.44 397.28L374.48 452.63H445.58L449.62 397.28H370.44Z" fill="#E0E0E0"/>
<path d="M458.1 375.47H363.57V397.29H458.1V375.47Z" fill="#E0E0E0"/>
<path d="M363.57 450.51V456.56H368.01H456.55V450.51H363.57Z" fill="#EBEBEB"/>
<path d="M372.37 467.2L368.01 456.56H453.16L448.08 467.2H372.37Z" fill="#E0E0E0"/>
<path d="M448.3 415.37C448.3 415.37 448.21 415.56 447.97 415.88L446.91 417.29L442.77 422.59L442.58 422.83L442.4 422.58L432.23 408.51H432.81L422.81 422.69L422.49 423.14L422.14 422.72L410.26 408.58H410.94L410.29 409.4C406.6 414.02 403.04 418.5 399.66 422.72L399.31 423.17L398.98 422.71C395.38 417.6 391.98 412.83 388.98 408.52H389.56L377.22 422.59L377 422.84L376.83 422.55C375.2 419.82 373.91 417.64 372.97 416.06L371.97 414.33C371.844 414.137 371.743 413.929 371.67 413.71C371.83 413.877 371.971 414.062 372.09 414.26C372.37 414.7 372.74 415.26 373.18 415.93L377.24 422.3H376.85L389 408.05L389.31 407.7L389.58 408.08L399.7 422.2H399.02L409.62 408.86L410.27 408.04L410.61 407.62L410.96 408.03L422.8 422.2H422.14L432.26 408.09L432.55 407.68L432.84 408.09L442.84 422.32H442.47L446.78 417.15L447.94 415.81C448.046 415.652 448.166 415.505 448.3 415.37Z" fill="#F5F5F5"/>
<path d="M450.61 396.92C450.61 397.16 432.8 397.36 410.82 397.36C388.84 397.36 371.03 397.16 371.03 396.92C371.03 396.68 388.85 396.48 410.82 396.48C432.79 396.48 450.61 396.67 450.61 396.92Z" fill="#F5F5F5"/>
<path d="M454.2 457.16C454.2 457.4 434.84 457.6 410.96 457.6C387.08 457.6 367.72 457.4 367.72 457.16C367.72 456.92 387.08 456.71 410.96 456.71C434.84 456.71 454.2 456.91 454.2 457.16Z" fill="#F5F5F5"/>
<path d="M197.76 247.14L189.76 251.43L172.05 265.06C172.05 265.06 117.82 272.26 115.74 273.82C113.66 275.38 86.74 288.19 83.04 305.38C79.34 322.57 71.9 434.68 71.9 434.68L81.74 467.8L279.25 468.11L325.57 467.45C325.57 467.45 343.36 425.88 343.36 414.45C343.36 403.02 338.16 317.08 338.16 317.08L282.61 277.91L197.76 247.14Z" fill="#FF725E"/>
<path d="M171.55 264.25C171.478 264.413 171.387 264.567 171.28 264.71C171.04 265.05 170.76 265.47 170.41 265.98C169.63 267.06 168.57 268.68 167.34 270.71C166.74 271.71 166.06 272.85 165.43 274.1C164.8 275.35 164.12 276.68 163.43 278.1C162.033 281.215 160.834 284.414 159.84 287.68C158.127 293.64 156.844 299.716 156 305.86C155.66 308.16 155.39 310.05 155.19 311.45C155.1 312.06 155.03 312.56 154.97 312.97C154.956 313.148 154.915 313.323 154.85 313.49C154.828 313.314 154.828 313.136 154.85 312.96C154.85 312.55 154.93 312.04 154.98 311.42C155.1 310.09 155.32 308.17 155.62 305.81C156.381 299.622 157.638 293.506 159.38 287.52C160.383 284.24 161.602 281.029 163.03 277.91C163.71 276.47 164.37 275.12 165.03 273.91C165.69 272.7 166.38 271.55 167.03 270.53C168.32 268.53 169.42 266.92 170.25 265.87L171.2 264.66C171.301 264.51 171.418 264.373 171.55 264.25Z" fill="#263238"/>
<g opacity="0.3">
<path opacity="0.3" d="M172.78 297.21C172.45 296.15 172.03 294.96 171 294.55C170.2 294.22 170.52 294.74 169.72 295.08C162.22 298.17 158.6 305.08 155.42 312.92L155.6 312.73C155.374 313.386 155.372 314.098 155.594 314.756C155.817 315.413 156.252 315.977 156.83 316.36C158.52 317.36 160.69 316.81 162.43 315.91C164.17 315.01 165.76 313.76 167.66 313.28C171.76 312.22 175.85 315.03 178.75 318.13C181.65 321.23 184.25 324.91 188.21 326.44C181.33 317.718 176.1 307.812 172.78 297.21Z" fill="black"/>
</g>
<path d="M154.83 313.49C155.732 311.295 156.795 309.169 158.01 307.13C159.394 304.716 160.987 302.427 162.77 300.29C163.899 298.958 165.151 297.736 166.51 296.64C168.044 295.389 169.854 294.521 171.79 294.11H171.94L172 294.26C173.25 297.53 174.57 301.1 176.1 304.86C177.662 308.859 179.531 312.73 181.69 316.44C184.078 320.493 186.968 324.23 190.29 327.56C193.869 331.084 197.815 334.215 202.06 336.9C203.51 337.75 204.91 338.66 206.36 339.46L210.69 341.77H210.43L217.65 336.77L221.15 334.36C222.31 333.57 223.44 332.78 224.51 331.94C228.542 328.762 232.29 325.239 235.71 321.41C239.795 318.32 243.281 314.511 246 310.17C248.084 306.838 249.646 303.206 250.63 299.4C251.26 296.957 251.655 294.459 251.81 291.94C251.87 291.06 251.81 290.39 251.88 289.94C251.95 289.49 251.88 289.26 251.88 289.26C251.88 289.26 251.88 289.49 251.88 289.94C251.88 290.39 251.88 291.07 251.88 291.94C251.787 294.477 251.432 296.997 250.82 299.46C249.868 303.308 248.327 306.985 246.25 310.36C243.552 314.741 240.079 318.594 236 321.73C232.57 325.595 228.809 329.151 224.76 332.36C223.68 333.21 222.55 334.01 221.39 334.8L217.89 337.22L210.67 342.22L210.55 342.31L210.41 342.24L206.06 339.92C204.6 339.12 203.19 338.21 201.74 337.35C197.453 334.65 193.473 331.492 189.87 327.93C186.525 324.567 183.618 320.793 181.22 316.7C179.076 312.95 177.227 309.038 175.69 305C174.17 301.22 172.87 297.64 171.64 294.37L171.85 294.49C169.972 294.884 168.214 295.717 166.72 296.92C165.372 297.992 164.126 299.187 163 300.49C161.211 302.602 159.602 304.86 158.19 307.24C157.02 309.24 156.19 310.78 155.66 311.85L155.05 313.08C154.996 313.226 154.922 313.364 154.83 313.49Z" fill="#263238"/>
<path d="M266.6 288.87C266.752 293.964 266.511 299.063 265.88 304.12C265.254 309.642 264.235 315.113 262.83 320.49C261.104 327.104 258.891 333.582 256.21 339.87L255.83 340.77L255.71 339.77C255.64 339.19 255.59 338.56 255.49 337.92C255.019 334.331 254.185 330.8 253 327.38C252.43 325.72 251.78 324.12 251.08 322.58C250.73 321.81 250.36 321.06 249.98 320.32C249.635 319.592 249.227 318.896 248.76 318.24C248.322 317.603 247.711 317.104 247 316.8C246.663 316.679 246.3 316.65 245.948 316.717C245.596 316.783 245.269 316.944 245 317.18C244.453 317.681 243.945 318.222 243.48 318.8L242.03 320.45L236.74 326.45L229.05 335.16L227 337.56L226.44 338.16L226.24 338.35C226.286 338.269 226.34 338.192 226.4 338.12L226.92 337.49L228.92 335.07L236.48 326.25L241.72 320.17C242.2 319.62 242.72 319.07 243.16 318.5C243.644 317.901 244.172 317.34 244.74 316.82C245.065 316.537 245.46 316.346 245.883 316.265C246.306 316.184 246.743 316.217 247.15 316.36C247.934 316.696 248.606 317.248 249.09 317.95C249.579 318.628 250.008 319.347 250.37 320.1C250.75 320.84 251.13 321.6 251.48 322.37C252.19 323.92 252.85 325.54 253.48 327.21C254.676 330.67 255.521 334.241 256 337.87C256.1 338.51 256.15 339.15 256.22 339.74L255.72 339.67C258.392 333.404 260.611 326.954 262.36 320.37C263.778 315.018 264.831 309.575 265.51 304.08C266.09 299.4 266.33 295.59 266.43 292.96C266.5 291.64 266.5 290.62 266.53 289.96C266.53 289.64 266.53 289.38 266.53 289.17C266.53 288.96 266.6 288.87 266.6 288.87Z" fill="#263238"/>
<path d="M192 261.24C192 261.24 192 261.32 191.85 261.44L191.37 261.98C190.93 262.44 190.37 263.17 189.62 264.12C187.64 266.901 186.027 269.926 184.82 273.12C182.989 277.815 181.782 282.731 181.23 287.74C180.528 293.871 180.798 300.074 182.03 306.12C182.662 309.248 183.6 312.306 184.83 315.25C185.973 317.991 187.369 320.619 189 323.1C191.757 327.316 195.128 331.098 199 334.32C200.61 335.74 202.25 336.8 203.62 337.82C204.99 338.84 206.31 339.54 207.35 340.13L209.78 341.47L210.41 341.83C210.487 341.866 210.557 341.914 210.62 341.97C210.62 341.97 210.54 341.97 210.39 341.88L209.74 341.56L207.25 340.31C206.19 339.74 204.94 338.94 203.46 338.06C201.98 337.18 200.46 336.06 198.77 334.6C194.826 331.392 191.394 327.602 188.59 323.36C186.951 320.831 185.555 318.152 184.42 315.36C183.174 312.391 182.223 309.306 181.58 306.15C180.335 300.047 180.079 293.784 180.82 287.6C181.4 282.556 182.651 277.613 184.54 272.9C185.796 269.708 187.478 266.701 189.54 263.96C190.11 263.223 190.728 262.525 191.39 261.87L191.9 261.36L192 261.24Z" fill="#263238"/>
<path d="M106.94 357.33C106.94 357.33 107.02 357.41 107.14 357.61L107.67 358.54H107.52C106.81 355.18 104.87 344.88 102.66 332.69C101.34 325.19 100.14 318.4 99.2501 313.39C98.8501 310.97 98.5201 308.99 98.2501 307.53C98.1601 306.88 98.0801 306.36 98.0201 305.93C97.9789 305.746 97.9621 305.558 97.9701 305.37C98.0389 305.548 98.0892 305.732 98.1201 305.92C98.2101 306.33 98.3201 306.86 98.4501 307.5C98.7401 308.94 99.1201 310.92 99.5901 313.33C100.52 318.33 101.77 325.1 103.16 332.6C105.36 344.78 107.16 355.12 107.66 358.51L107.74 359.02L107.51 358.56L107.04 357.56C107 357.486 106.967 357.41 106.94 357.33Z" fill="#263238"/>
<path d="M104.53 355.27C104.4 355.33 101.88 350.27 98.9 343.96C95.92 337.65 93.62 332.48 93.75 332.42C93.88 332.36 96.4 337.42 99.38 343.73C102.36 350.04 104.66 355.21 104.53 355.27Z" fill="#263238"/>
<g opacity="0.3">
<path opacity="0.3" d="M103.5 465.22C109.77 468.37 124.31 462.81 129.59 455.88C134.87 448.95 136.4 439.93 137.59 431.29C139.317 418.27 140.55 405.2 141.29 392.08C152.169 399.988 165.402 403.985 178.84 403.42C187.32 403.03 196.99 399.66 199.62 391.59C202.25 383.52 196.62 375.38 190.82 369.31C185.294 363.527 179.271 358.24 172.82 353.51C168.59 350.41 163.95 347.51 158.73 346.9C153.1 346.29 147.41 348.59 143.13 352.3C138.85 356.01 135.86 361.01 133.67 366.23C126.98 382.18 127.34 400.03 125.97 417.23C124.6 434.43 122.78 452.32 107.51 463.54" fill="black"/>
</g>
<path d="M103.91 465.28C104.047 465.2 104.191 465.133 104.34 465.08L105.6 464.53C107.134 463.715 108.569 462.729 109.88 461.59C114.454 457.419 118.351 452.56 121.43 447.19V447.27C122.34 440.42 123.43 432.42 124.54 423.92C126.38 410.44 128 398.24 129.31 389.42C130.12 385.07 130.77 381.54 131.24 379.04C131.47 377.85 131.65 376.91 131.79 376.22L131.94 375.49C131.953 375.407 131.977 375.327 132.01 375.25C132.025 375.333 132.025 375.417 132.01 375.5C132.01 375.7 131.94 375.94 131.9 376.24L131.45 379.08C131.02 381.58 130.45 385.08 129.68 389.48C128.5 398.35 126.87 410.48 125.07 423.99C123.91 432.49 122.82 440.48 121.89 447.33V447.38C118.758 452.776 114.781 457.634 110.11 461.77C108.77 462.9 107.295 463.861 105.72 464.63C105.16 464.86 104.72 465.01 104.42 465.11C104.262 465.198 104.089 465.255 103.91 465.28Z" fill="#263238"/>
<path d="M200.17 467.45C200.124 467.351 200.09 467.247 200.07 467.14C200.01 466.9 199.94 466.59 199.85 466.2C199.67 465.37 199.34 464.2 199.08 462.58C198.28 458.095 197.818 453.555 197.7 449C197.541 442.256 197.902 435.509 198.78 428.82C199.7 421.26 201.23 413.03 203.01 404.43C204.79 395.83 206.86 387.72 208.6 380.33C210.252 373.811 211.326 367.158 211.81 360.45C212.069 355.925 211.901 351.385 211.31 346.89C211.14 345.29 210.87 344.07 210.75 343.23L210.61 342.28C210.597 342.171 210.597 342.06 210.61 341.95C210.65 342.053 210.677 342.161 210.69 342.27C210.74 342.51 210.81 342.82 210.89 343.21C211.03 344.04 211.34 345.21 211.54 346.86C212.209 351.364 212.433 355.923 212.21 360.47C211.777 367.217 210.736 373.911 209.1 380.47C207.38 387.88 205.25 395.96 203.55 404.57C201.85 413.18 200.23 421.37 199.28 428.91C198.375 435.567 197.971 442.283 198.07 449C198.154 453.533 198.559 458.054 199.28 462.53C199.51 464.12 199.81 465.33 199.95 466.17C200.02 466.56 200.08 466.88 200.12 467.12C200.16 467.36 200.17 467.45 200.17 467.45Z" fill="#263238"/>
<path d="M217 354.69C216.88 354.61 218.6 351.86 220.52 348.35C222.44 344.84 223.83 341.91 223.97 341.97C223.824 342.667 223.582 343.34 223.25 343.97C222.73 345.18 221.94 346.82 220.98 348.59C220.02 350.36 219.05 351.9 218.31 352.99C217.954 353.614 217.513 354.186 217 354.69Z" fill="#263238"/>
<g opacity="0.3">
<path opacity="0.3" d="M220.22 350.54C225.433 344.439 231.077 338.721 237.11 333.43C238.76 331.98 240.55 330.51 242.72 330.15C245.36 329.71 248.05 331.07 249.88 333.03C251.605 335.086 252.983 337.41 253.96 339.91C256.58 333.47 253.86 326.21 251.16 319.8C250.28 317.71 248.76 315.23 246.52 315.57C245.348 315.897 244.328 316.626 243.64 317.63C234.973 327.692 226.957 338.297 219.64 349.38" fill="black"/>
</g>
<g opacity="0.3">
<path opacity="0.3" d="M308.14 302.91L308.51 299.74C304.7 300.1 300.02 300.55 296.98 302.87C293.43 305.58 291.98 310.19 290.84 314.49C288.12 324.27 295.84 374.62 295.44 384.77C298.81 383.34 301.19 361.77 301.79 358.11C303.27 349.3 300.28 343.8 301.19 341.34C302.1 338.88 302.07 336.21 302.14 333.6C302.47 321.91 303.63 313.69 308.14 302.91Z" fill="black"/>
</g>
<path d="M258.43 141.31C253.59 135.31 255.18 125.72 260.72 120.31C266.26 114.9 274.72 113.4 282.29 114.68C287.807 115.662 293.013 117.936 297.482 121.316C301.95 124.697 305.555 129.088 308 134.13C310.6 139.58 312 146.02 316.77 149.72C320.95 152.98 326.71 153.26 331.47 155.6C337.85 158.72 341.97 165.41 343.47 172.36C344.97 179.31 344.05 186.55 342.58 193.51C341.23 199.89 339.43 206.79 342.17 212.7C344.91 218.61 351.08 221.62 355.17 226.48C362.91 235.61 361.17 251.15 351.58 258.33C348.53 260.62 344.67 262.33 343.21 265.89C341.88 269.11 343.01 272.76 342.94 276.24C342.77 285.24 332.88 292.59 324.23 290.24C319.87 289.04 315.85 285.82 311.36 286.43C306.87 287.04 303.93 291.16 300.36 293.83C296.707 296.369 292.291 297.573 287.855 297.239C283.419 296.906 279.233 295.056 276 292C273.38 289.39 271.27 285.84 267.69 284.89C264.11 283.94 260.36 285.99 256.69 285.49C251.9 284.84 248.75 280.08 247.33 275.49C245.91 270.9 245.54 265.85 243.15 261.65C240 256.09 234 253 229 249.1C223.447 244.809 218.88 239.374 215.609 233.165C212.338 226.955 210.439 220.115 210.041 213.108C209.643 206.101 210.754 199.09 213.301 192.55C215.847 186.01 219.769 180.093 224.8 175.2" fill="#263238"/>
<path d="M191.36 261.27C186.611 266.816 183.248 273.411 181.547 280.511C179.847 287.612 179.858 295.015 181.58 302.11C185.15 316.22 196.95 336.85 210.58 341.97C219.42 335.49 230.78 326.44 239.02 319.22C244.35 314.55 247.18 307.72 249.82 301.14C251.34 297.34 252.89 293.24 251.94 289.26C251.23 286.33 249.25 283.89 247.16 281.72C240.371 274.786 232.029 269.567 222.823 266.496C213.617 263.425 203.813 262.59 194.22 264.06" fill="#EF9D78"/>
<path d="M231.83 159.68C234.29 154.691 238.389 150.7 243.441 148.373C248.493 146.046 254.19 145.526 259.58 146.9L293.69 155.6C310.74 161.09 324.09 187.48 314.04 210.6C306.1 228.85 297.97 251.78 289.82 264.38C273.42 289.7 251 283.91 251 283.91L238.9 310.91L189.43 264.52L231.83 159.68Z" fill="#EF9D78"/>
<path d="M289.43 217.73C290.07 217.49 291.75 220.73 295.43 222.46C299.11 224.19 302.75 223.7 302.93 224.35C303.03 224.65 302.2 225.25 300.6 225.53C298.457 225.858 296.265 225.508 294.33 224.53C292.4 223.61 290.816 222.096 289.81 220.21C289.11 218.83 289.12 217.83 289.43 217.73Z" fill="#263238"/>
<path d="M250.8 200.14C251.52 200 253.18 203.55 257.16 206.02C261.14 208.49 265.16 208.56 265.33 209.25C265.42 209.57 264.47 210.04 262.68 210.06C260.244 210.012 257.867 209.296 255.81 207.99C253.767 206.742 252.126 204.934 251.08 202.78C250.38 201.21 250.45 200.19 250.8 200.14Z" fill="#263238"/>
<path d="M267.17 237.86C267.25 237.64 269.76 238.27 273.76 239.47C274.76 239.79 275.76 240.01 276.21 239.42C276.66 238.83 276.8 237.62 276.83 236.29C276.96 233.57 277.1 230.72 277.23 227.72C277.91 215.57 278.84 205.72 279.33 205.77C279.82 205.82 279.68 215.68 279.01 227.84C278.823 230.834 278.643 233.687 278.47 236.4C278.35 237.65 278.42 239.17 277.3 240.4C277.009 240.677 276.659 240.883 276.276 241.005C275.893 241.126 275.487 241.159 275.09 241.1C274.495 241.01 273.914 240.846 273.36 240.61C269.46 239.11 267.09 238.08 267.17 237.86Z" fill="#263238"/>
<path d="M251 284C251 284 231.25 276.6 217.92 257.63C217.92 257.63 218.67 280.79 247.98 290.79L251 284Z" fill="#D37A57"/>
<path d="M253.9 187.32C254.52 186.32 258.43 187.68 263.27 188.11C268.11 188.54 272.2 188.06 272.62 189.17C272.8 189.7 271.92 190.59 270.16 191.32C267.83 192.183 265.335 192.505 262.862 192.261C260.39 192.016 258.006 191.213 255.89 189.91C254.31 188.84 253.62 187.8 253.9 187.32Z" fill="#263238"/>
<path d="M297.49 198.32C298.75 198.32 300.31 201.43 303.01 204.4C305.71 207.37 308.5 209.4 308.32 210.66C308.2 211.23 307.15 211.48 305.49 210.99C303.296 210.231 301.345 208.898 299.84 207.13C298.285 205.419 297.224 203.318 296.77 201.05C296.51 199.35 296.9 198.36 297.49 198.32Z" fill="#263238"/>
<path d="M258.5 248.31C258.5 248.31 260.82 247.1 259.74 242.64C258.66 238.18 253 234.15 249.41 237.82C249.41 237.82 245.79 238.09 247.21 242.27C248.63 246.45 256.89 252.35 258.43 248.99" fill="#D37A57"/>
<path d="M257.15 251.72C256.49 251.6 257.49 247.25 254.49 243.3C251.49 239.35 246.75 238.75 246.86 238.13C246.86 237.84 248.09 237.53 250.06 237.93C252.613 238.487 254.888 239.928 256.48 242C258.016 243.991 258.716 246.502 258.43 249C258.18 250.85 257.44 251.81 257.15 251.72Z" fill="#263238"/>
<path d="M202.66 145.47C200.017 147.533 197.897 150.19 196.472 153.225C195.048 156.261 194.358 159.589 194.46 162.94C194.61 166.68 195.52 171.09 192.77 173.63C190.02 176.17 185.55 174.82 181.77 174.84C178.44 174.95 175.255 176.229 172.773 178.452C170.292 180.676 168.673 183.702 168.2 187C167.93 189.36 168.2 191.91 167.04 194C165.88 196.09 163.27 197.09 161.15 198.38C158.505 199.982 156.328 202.25 154.836 204.958C153.345 207.666 152.591 210.719 152.651 213.81C152.71 216.901 153.582 219.923 155.177 222.571C156.772 225.219 159.035 227.402 161.74 228.9C164.19 230.25 167.05 231.1 168.84 233.25C170.84 235.72 170.96 239.25 171.97 242.25C172.941 245.194 174.812 247.76 177.317 249.585C179.823 251.411 182.838 252.404 185.938 252.426C189.038 252.449 192.067 251.498 194.599 249.708C197.13 247.919 199.037 245.38 200.05 242.45" fill="#263238"/>
<path d="M258 135.9C256.993 138.834 256.645 141.953 256.981 145.037C257.317 148.12 258.328 151.092 259.942 153.74C261.556 156.389 263.735 158.649 266.322 160.36C268.909 162.071 271.841 163.191 274.91 163.64C279.65 164.33 285.31 163.73 288.37 167.42C291.59 171.3 289.68 177.48 292.23 181.84C295.86 188.05 302.07 193.01 307.95 197.17C312.5 200.38 307.3 209.31 309.28 214.51C311.26 219.71 319.41 231.58 324.97 231.79C326.19 227.14 333.11 206.71 333.23 201.91C333.35 197.11 332.23 192.11 329.29 188.33C327.66 186.26 325.52 184.61 324.11 182.39C321.06 177.58 322.11 171.39 321.11 165.76C320.439 162.131 318.909 158.716 316.647 155.8C314.386 152.884 311.458 150.552 308.11 149C302.56 146.46 296.05 146.18 290.92 142.87C287.13 140.42 284.42 136.51 280.49 134.29C272.84 129.97 263.26 133.29 255.35 137.09" fill="#263238"/>
<path d="M221.13 194C220.34 193.47 215.13 197.44 220.27 200.61C229.34 206.15 237.13 187.41 236.8 181.18C241.42 179.18 246.09 177.25 250.16 174.18C254.23 171.11 260.31 161 261.4 155.86C264.87 157.27 281.64 157.4 280.18 156.39C276.87 154.1 270.18 149.19 269.29 145.39C267.36 137.04 261.43 129.77 253.59 127.59C249.502 126.557 245.189 126.876 241.298 128.498C237.406 130.12 234.144 132.959 232 136.59C222.67 133.51 211.61 136.28 204.17 143.59C200.456 147.333 197.708 151.923 196.163 156.965C194.617 162.007 194.321 167.348 195.3 172.53C195.84 175.19 196.74 177.97 195.89 180.61C194.83 183.87 191.55 185.61 188.94 187.75C181.83 193.52 178.77 203.75 179.64 212.92C180.51 222.09 182.09 225.78 186.64 229.11C195.55 235.61 177.03 252.23 193.64 257.85" fill="#263238"/>
<path d="M345 257.55C345 257.49 345.59 257.14 346.56 256.23C347.991 254.913 349.132 253.313 349.91 251.53C351.17 248.734 351.496 245.606 350.84 242.61C350.06 239.12 347.43 235.8 343.91 232.97C340.39 230.14 336 227.41 332.82 222.78C329.64 218.15 329.07 211.78 330.09 205.78C331.11 199.78 333.63 193.78 335.25 187.47C336.122 184.292 336.536 181.006 336.48 177.71C336.45 174.36 335.547 171.075 333.86 168.18C332.041 165.369 329.461 163.132 326.42 161.73C323.439 160.335 320.273 159.372 317.02 158.87C313.78 158.489 310.572 157.874 307.42 157.03C305.839 156.61 304.361 155.87 303.076 154.857C301.792 153.844 300.728 152.579 299.95 151.14C298.5 148.28 298.18 145.25 297.55 142.5C297.06 139.834 295.95 137.319 294.31 135.16C291.244 131.295 286.862 128.696 282 127.86C277.992 127.179 273.873 127.672 270.14 129.28C267.314 130.497 264.716 132.188 262.46 134.28C260.576 136.129 258.875 138.155 257.38 140.33C257.38 140.33 257.43 140.15 257.6 139.85C257.834 139.394 258.091 138.95 258.37 138.52C259.43 136.844 260.682 135.297 262.1 133.91C264.354 131.705 266.977 129.911 269.85 128.61C273.704 126.871 277.982 126.291 282.16 126.94C287.265 127.779 291.879 130.479 295.11 134.52C296.866 136.799 298.065 139.456 298.61 142.28C299.27 145.09 299.61 148.05 300.96 150.62C301.674 151.909 302.644 153.038 303.81 153.939C304.976 154.84 306.313 155.494 307.74 155.86C310.836 156.678 313.988 157.27 317.17 157.63C320.553 158.161 323.843 159.171 326.94 160.63C330.209 162.136 332.984 164.539 334.94 167.56C336.744 170.652 337.709 174.161 337.74 177.74C337.8 181.158 337.369 184.566 336.46 187.86C334.77 194.29 332.23 200.16 331.24 206.05C330.25 211.94 330.72 217.87 333.68 222.22C336.64 226.57 341.02 229.28 344.47 232.3C347.92 235.32 350.76 238.76 351.47 242.49C352.098 245.634 351.68 248.897 350.28 251.78C349.434 253.594 348.194 255.197 346.65 256.47C346.155 256.908 345.599 257.271 345 257.55Z" fill="#455A64"/>
<path d="M314.29 197.17C314.4 197.22 313.8 198.6 313.19 201.22C312.354 204.92 312.235 208.745 312.84 212.49C313.245 215.06 314.005 217.56 315.1 219.92C316.425 222.609 318.07 225.127 320 227.42C321.051 228.743 321.947 230.182 322.67 231.71C323.436 233.366 323.76 235.192 323.61 237.01C323.32 240.73 321.49 244.01 320.13 247.4C318.77 250.79 317.9 254.29 319.21 257.4C320.52 260.51 322.9 262.84 325.15 265.08C327.459 267.149 329.442 269.557 331.03 272.22C332.366 274.681 332.723 277.556 332.03 280.27C331.571 282.193 330.69 283.989 329.452 285.53C328.214 287.071 326.649 288.317 324.87 289.18C323.903 289.617 322.874 289.904 321.82 290.03C321.455 290.083 321.085 290.083 320.72 290.03C322.071 289.731 323.388 289.296 324.65 288.73C326.283 287.828 327.705 286.588 328.82 285.093C329.936 283.598 330.72 281.882 331.12 280.06C331.702 277.577 331.346 274.966 330.12 272.73C328.551 270.194 326.609 267.908 324.36 265.95C322.1 263.72 319.47 261.32 318.07 257.86C317.377 256.101 317.146 254.194 317.4 252.32C317.688 250.455 318.219 248.636 318.98 246.91C320.39 243.46 322.13 240.25 322.39 236.91C322.65 233.57 320.98 230.64 319.09 228.13C317.133 225.752 315.48 223.138 314.17 220.35C311.487 214.283 310.989 207.473 312.76 201.08C313.035 200.053 313.393 199.049 313.83 198.08C313.936 197.755 314.091 197.448 314.29 197.17Z" fill="#455A64"/>
<path d="M164.25 228.56C164.25 228.56 164.03 228.44 163.68 228.14C163.149 227.697 162.66 227.204 162.22 226.67C160.531 224.619 159.388 222.172 158.9 219.56C158.477 217.519 158.476 215.413 158.898 213.372C159.319 211.33 160.154 209.397 161.35 207.69C162.941 205.466 165.059 203.671 167.515 202.469C169.971 201.266 172.688 200.693 175.42 200.8L174.87 201.54C173.583 198.227 173.007 194.68 173.18 191.13C173.283 189.173 173.816 187.262 174.74 185.534C175.665 183.805 176.959 182.302 178.53 181.13C180.22 179.862 182.268 179.162 184.38 179.13C186.496 179.258 188.56 179.841 190.43 180.84C192.187 181.795 194.059 182.52 196 183C196.943 183.181 197.916 183.132 198.836 182.859C199.757 182.586 200.598 182.096 201.29 181.43C203.334 179.313 204.506 176.503 204.57 173.56C204.8 170.62 204.52 167.63 204.83 164.64C205.455 158.887 208.056 153.529 212.19 149.48C215.876 145.886 220.626 143.581 225.73 142.91C230.033 142.305 234.419 142.854 238.44 144.5L237.88 144.73C239.32 141.851 241.769 139.601 244.76 138.41C246.952 137.51 249.333 137.166 251.69 137.41C253.156 137.557 254.583 137.971 255.9 138.63C256.358 138.854 256.785 139.137 257.17 139.47C255.447 138.597 253.574 138.061 251.65 137.89C249.38 137.751 247.11 138.159 245.03 139.08C242.247 140.256 239.989 142.407 238.68 145.13L238.5 145.5L238.11 145.35C234.222 143.838 230.007 143.366 225.88 143.98C221.026 144.682 216.524 146.918 213.03 150.36C209.127 154.228 206.679 159.325 206.1 164.79C205.81 167.62 206.1 170.6 205.87 173.7C205.786 176.968 204.468 180.084 202.18 182.42C201.339 183.217 200.322 183.804 199.212 184.134C198.102 184.464 196.93 184.528 195.79 184.32C193.723 183.824 191.73 183.061 189.86 182.05C188.163 181.125 186.288 180.576 184.36 180.44C182.516 180.47 180.729 181.078 179.25 182.18C177.81 183.243 176.623 184.612 175.775 186.19C174.928 187.767 174.441 189.512 174.35 191.3C174.168 194.684 174.688 198.068 175.88 201.24L176.16 202.02H175.33C172.77 201.899 170.219 202.412 167.904 203.512C165.59 204.613 163.582 206.268 162.06 208.33C160.898 209.934 160.073 211.757 159.635 213.689C159.197 215.621 159.154 217.621 159.51 219.57C159.932 222.111 160.961 224.512 162.51 226.57C163.56 227.88 164.3 228.5 164.25 228.56Z" fill="#455A64"/>
<path d="M257.55 143.43C257.61 143.66 255.55 143.33 253.04 145.18C250.53 147.03 248.27 151.36 247.62 156.92L247.57 157.39H247.09C244.328 157.21 241.562 157.672 239.009 158.739C236.455 159.806 234.183 161.449 232.37 163.54C231.361 164.731 230.559 166.083 230 167.54C229.521 169.12 229.186 170.74 229 172.38C228.789 174.145 228.455 175.892 228 177.61C227.504 179.493 226.396 181.157 224.85 182.34C221.53 184.93 217.45 185.34 213.85 185.94C210.396 186.242 207.016 187.118 203.85 188.53C198.552 191.07 194.416 195.527 192.28 201C190.874 204.716 190.403 208.72 190.91 212.66C191.27 215.46 191.91 216.94 191.74 216.98C191.523 216.658 191.358 216.303 191.25 215.93C190.886 214.891 190.605 213.824 190.41 212.74C189.687 208.702 190.031 204.544 191.41 200.68C193.509 194.873 197.778 190.105 203.32 187.38C206.584 185.885 210.076 184.949 213.65 184.61C217.21 184.04 221.08 183.54 223.98 181.25C226.84 179.25 227.15 175.45 227.7 172.12C227.916 170.4 228.288 168.703 228.81 167.05C229.437 165.465 230.322 163.995 231.43 162.7C233.378 160.488 235.818 158.763 238.553 157.664C241.288 156.565 244.243 156.122 247.18 156.37L246.65 156.81C247.45 151.02 249.89 146.54 252.73 144.72C253.774 144.001 254.98 143.551 256.24 143.41C256.675 143.351 257.117 143.357 257.55 143.43Z" fill="#455A64"/>
<path d="M223.06 196.87C225.91 191.29 222.06 184.26 215.81 184.27C212.36 184.27 208.66 186.15 205.58 192.05C197.37 207.79 214.87 212.79 215.13 212.35C215.29 212.08 219.72 203.42 223.06 196.87Z" fill="#EF9D78"/>
<path d="M213.43 203.88C213.43 203.79 213.06 203.93 212.43 203.88C211.637 203.827 210.895 203.468 210.36 202.88C209.02 201.4 208.99 198.03 210.36 195.16C211.016 193.785 211.977 192.578 213.17 191.63C213.577 191.221 214.077 190.916 214.627 190.741C215.177 190.567 215.762 190.529 216.33 190.63C216.689 190.712 217.009 190.916 217.234 191.208C217.458 191.501 217.574 191.862 217.56 192.23C217.56 192.78 217.28 193.04 217.34 193.11C217.4 193.18 217.82 193.02 218.03 192.31C218.167 191.883 218.157 191.421 218 191C217.871 190.726 217.688 190.479 217.464 190.275C217.239 190.071 216.976 189.913 216.69 189.81C215.977 189.599 215.222 189.575 214.497 189.74C213.772 189.904 213.102 190.252 212.55 190.75C211.172 191.767 210.061 193.101 209.31 194.64C207.76 197.87 207.84 201.64 209.77 203.53C210.129 203.871 210.559 204.127 211.03 204.281C211.5 204.435 211.999 204.483 212.49 204.42C213.21 204.24 213.47 203.94 213.43 203.88Z" fill="#D37A57"/>
<path d="M207.38 415.49C205.98 412.91 202.38 411.32 202.38 411.32L199.38 403.97C200.098 402.114 200.098 400.057 199.38 398.2C198.19 395.02 189.44 376.55 189.64 375.95L187.38 375.82C187.38 375.82 195.44 395.37 196.23 396.37C197.02 397.37 198.23 403.18 196.23 403.97C194.23 404.76 190.02 402.62 188.23 400.83C186.44 399.04 180.75 385.59 179.76 382.83C178.77 380.07 180.53 376.18 180.53 376.18L182.12 372.41H180C179.129 374.948 178.398 377.532 177.81 380.15C177.02 383.93 185.96 400.42 187.35 402.21C188.74 404 193.51 405.39 196.09 407.21C198.67 409.03 198.28 414.57 198.28 414.57C196.935 416.513 196.112 418.768 195.89 421.12C195.69 424.7 203.64 441.59 209 445.12C214.36 448.65 220.73 446.12 221.32 446.32C221.91 446.52 223.32 443.53 223.32 443.53C223.32 443.53 208.77 418.07 207.38 415.49ZM214.7 445C211.773 444.605 209.121 443.071 207.32 440.73C206.67 439.87 199.71 427.73 198.81 425.51C197.25 421.58 198.33 419.4 198.9 417.1C199.73 413.75 204.9 415.71 204.9 415.71C204.9 415.71 220.12 442.01 219.77 442.81C219.42 443.61 217.56 445.25 214.7 445Z" fill="#263238"/>
<path d="M223.27 443.5C223.27 443.5 267.58 426.64 269.65 424.73C271.72 422.82 279.2 411.84 279.2 411.84C279.2 411.84 282.86 412.47 282.38 413.43C281.9 414.39 274.9 425.37 267.38 428.55C259.86 431.73 221.24 446.29 221.24 446.29L223.27 443.5Z" fill="#263238"/>
<path d="M83.05 304.55L64.8 409.81C64.8 409.81 58.08 430.29 59.04 434.81C60 439.33 63.39 458.61 73.63 464.69C83.87 470.77 104.15 466.8 108.31 462.69C112.47 458.58 120.67 450.91 121.63 447.39C122.59 443.87 129.32 390.39 129.32 390.39L131.99 375.39C131.99 375.39 122.07 378.59 115.99 374.39C109.91 370.19 101.91 352.31 101.91 352.31L93 366L83.05 304.55Z" fill="#FF725E"/>
<path d="M101.91 352.21C101.82 352.419 101.706 352.617 101.57 352.8L100.48 354.45C99.5401 355.87 98.18 357.94 96.55 360.52C93.27 365.68 88.89 372.89 84.1 380.9C79.31 388.91 75 396.16 71.77 401.37C70.17 403.97 68.85 406.06 67.92 407.5C67.47 408.17 67.1 408.72 66.83 409.14C66.7078 409.334 66.5707 409.517 66.42 409.69C66.5 409.474 66.6076 409.269 66.74 409.08L67.74 407.39L71.46 401.18L83.65 380.63C88.44 372.63 92.88 365.43 96.24 360.32C97.92 357.76 99.32 355.72 100.32 354.32L101.48 352.73C101.608 352.544 101.751 352.37 101.91 352.21Z" fill="#263238"/>
<path d="M129.7 388.16C129.589 388.316 129.461 388.46 129.32 388.59C129.05 388.86 128.69 389.29 128.15 389.76C126.648 391.144 124.945 392.294 123.1 393.17C121.829 393.769 120.484 394.196 119.1 394.44C117.497 394.742 115.856 394.783 114.24 394.56C112.458 394.331 110.715 393.86 109.06 393.16C107.304 392.401 105.629 391.466 104.06 390.37C102.514 389.226 101.096 387.918 99.8301 386.47C96.6995 382.775 94.6019 378.318 93.7501 373.55C93.3777 371.55 93.2401 369.513 93.34 367.48C93.34 366.76 93.46 366.21 93.49 365.83C93.5076 365.638 93.541 365.447 93.59 365.26C93.6277 366.003 93.6277 366.747 93.59 367.49C93.5727 369.505 93.7637 371.515 94.1601 373.49C94.7436 376.418 95.7829 379.235 97.24 381.84C98.1082 383.361 99.1123 384.8 100.24 386.14C101.49 387.555 102.885 388.835 104.4 389.96C105.945 391.035 107.593 391.953 109.32 392.7C110.918 393.385 112.599 393.856 114.32 394.1C115.876 394.308 117.455 394.275 119 394C120.378 393.779 121.723 393.383 123 392.82C124.83 391.986 126.533 390.899 128.06 389.59C129.1 388.68 129.67 388.12 129.7 388.16Z" fill="#263238"/>
<path d="M101.91 352.21L115.57 343.43C115.57 343.43 151.97 328.64 155.67 327.79C159.37 326.94 163.67 325.23 165.67 327.79C167.67 330.35 188.42 345.42 188.42 345.42C188.42 345.42 200.65 368.42 200.65 371.59C200.65 374.76 204.06 378.72 200.65 379.85L197.2 381C197.2 381 196.06 386.58 191.79 387.2C187.52 387.82 186.1 387.2 186.1 387.2C186.1 387.2 185.82 392.78 182.41 392.44C179 392.1 173.31 387.2 173.31 387.2C173.31 387.2 170.75 390.1 168.76 390.1C166.77 390.1 160.51 385.84 160.51 385.84L148.41 375.31L137.75 371.62L132 375.25C132 375.25 119.7 376.3 117.85 375.25C116 374.2 101.91 352.21 101.91 352.21Z" fill="#EF9D78"/>
<path d="M171.82 388.16C171.564 387.639 171.353 387.097 171.19 386.54C171.01 386.02 170.78 385.38 170.47 384.65C170.16 383.92 169.86 383.08 169.42 382.19C168.98 381.3 168.55 380.3 167.99 379.29C167.43 378.28 166.8 377.19 166.13 376.06C164.613 373.66 162.918 371.377 161.06 369.23C159.169 367.112 157.127 365.134 154.95 363.31C153.95 362.5 152.95 361.7 151.95 361.05C150.95 360.4 150.1 359.77 149.26 359.25C148.42 358.73 147.63 358.25 146.95 357.89C146.27 357.53 145.67 357.17 145.17 356.89C144.643 356.652 144.135 356.374 143.65 356.06C144.205 356.228 144.744 356.446 145.26 356.71C145.885 356.971 146.496 357.265 147.09 357.59C147.79 357.96 148.6 358.36 149.45 358.89C150.3 359.42 151.24 359.97 152.2 360.66C153.16 361.35 154.2 362.09 155.2 362.9C159.674 366.51 163.493 370.864 166.49 375.77C167.16 376.91 167.81 377.98 168.32 379.05C168.83 380.12 169.32 381.05 169.71 382.05C170.1 383.05 170.42 383.82 170.71 384.56C171 385.3 171.19 385.95 171.34 386.49C171.544 387.033 171.704 387.592 171.82 388.16Z" fill="#D37A57"/>
<path d="M186.08 387.81C186.08 387.81 185.96 387.67 185.77 387.37C185.58 387.07 185.3 386.64 184.99 386.05C184.121 384.382 183.379 382.65 182.77 380.87C181.98 378.63 181.21 375.87 180.31 372.87C179.411 369.61 178.122 366.471 176.47 363.52C174.719 360.629 172.39 358.131 169.63 356.18C167.11 354.35 164.68 352.87 162.83 351.35C161.328 350.204 160.024 348.819 158.97 347.25C158.695 346.816 158.455 346.361 158.25 345.89C158.163 345.733 158.099 345.565 158.06 345.39C158.11 345.39 158.39 346.05 159.14 347.14C160.24 348.638 161.562 349.96 163.06 351.06C164.92 352.52 167.35 353.96 169.91 355.8C172.743 357.761 175.129 360.3 176.91 363.25C178.586 366.237 179.883 369.422 180.77 372.73C181.65 375.73 182.38 378.47 183.12 380.73C183.679 382.503 184.347 384.24 185.12 385.93C185.475 386.539 185.795 387.166 186.08 387.81Z" fill="#D37A57"/>
<path d="M196.34 381.21C196.265 381.055 196.211 380.89 196.18 380.72C196.09 380.33 195.98 379.86 195.84 379.28C195.7 378.7 195.53 377.89 195.28 377.02C195.03 376.15 194.79 375.13 194.4 374.02C194.01 372.91 193.66 371.75 193.15 370.5C192.64 369.25 192.08 367.93 191.47 366.55C188.684 360.605 184.971 355.14 180.47 350.36C179.41 349.28 178.42 348.23 177.41 347.36C176.4 346.49 175.48 345.63 174.59 344.9C173.7 344.17 172.88 343.56 172.16 343C171.44 342.44 170.8 342 170.27 341.64L169.05 340.8C168.78 340.6 168.64 340.49 168.65 340.47C168.812 340.533 168.966 340.613 169.11 340.71L170.38 341.48C170.93 341.81 171.59 342.23 172.33 342.77C173.07 343.31 173.94 343.88 174.83 344.62C175.72 345.36 176.71 346.12 177.7 347.05C178.69 347.98 179.7 348.97 180.81 350.05C183.081 352.456 185.167 355.03 187.05 357.75C188.888 360.495 190.513 363.377 191.91 366.37C192.52 367.77 193.12 369.09 193.56 370.37C194 371.65 194.43 372.83 194.76 373.94C195.09 375.05 195.34 376.05 195.57 376.94C195.768 377.695 195.929 378.459 196.05 379.23C196.15 379.81 196.23 380.3 196.3 380.69C196.339 380.861 196.352 381.036 196.34 381.21Z" fill="#D37A57"/>
<path d="M142.76 342.39C142.76 342.47 142.05 342.58 141 343.04C139.63 343.614 138.436 344.539 137.539 345.723C136.641 346.906 136.073 348.306 135.89 349.78C135.74 350.92 135.83 351.64 135.75 351.65C135.509 351.048 135.433 350.392 135.53 349.75C135.617 348.176 136.172 346.663 137.123 345.406C138.074 344.148 139.379 343.203 140.87 342.69C141.464 342.43 142.115 342.327 142.76 342.39Z" fill="#D37A57"/>
<path d="M152.9 332.75C152.98 332.89 151.22 334 149.48 335.86C147.74 337.72 146.7 339.52 146.56 339.45C147.756 336.499 150.019 334.107 152.9 332.75Z" fill="#D37A57"/>
<path d="M295.61 214C293.88 214.72 293.53 216.79 293.56 218.66C293.56 221 294.18 221.38 296.09 225.3C299.22 231.71 302.96 243.87 302.96 243.87C302.96 243.87 299.89 274.57 301.96 281.78C302.525 283.692 303.549 285.436 304.944 286.86C306.338 288.285 308.061 289.345 309.96 289.95L307.16 313.66H340.65C340.65 313.66 339.46 290.66 338.74 283.66C337.98 276.26 338.48 231.51 338.48 231.51L335.19 207.62L327.44 194.2C326.264 194.969 325.393 196.123 324.975 197.464C324.557 198.805 324.619 200.249 325.15 201.55C326.9 206.46 328.05 215.89 328.05 215.89L308.66 186.71C308.66 186.71 304.85 187.62 304.66 194.71C304.66 194.71 299.02 198.38 302.66 204.34C306.58 211 310.8 231 309.32 231L297.32 213.33L295.61 214Z" fill="#EF9D78"/>
<path d="M307.08 313.66C307.08 313.66 307.08 313.13 307.23 312.09C307.38 311.05 307.52 309.5 307.74 307.5C308.2 303.45 308.88 297.5 309.74 289.93L309.83 290.07C308.271 289.566 306.824 288.765 305.57 287.71C304.19 286.568 303.094 285.119 302.37 283.48C301.65 281.701 301.25 279.809 301.19 277.89C301.077 275.89 301.03 273.857 301.05 271.79C301.14 263.41 301.79 254.03 302.74 243.85V243.93C301.17 238.99 299.43 233.78 297.25 228.5C296.7 227.18 296.12 225.87 295.46 224.57C294.727 223.283 294.086 221.947 293.54 220.57C293.356 219.821 293.275 219.051 293.3 218.28C293.301 217.501 293.415 216.726 293.64 215.98C293.86 215.19 294.357 214.505 295.04 214.05C295.382 213.853 295.74 213.686 296.11 213.55L297.17 213.11L297.35 213.04L297.46 213.2L310 231.59L309.54 231.69C309.705 230.15 309.685 228.596 309.48 227.06C309.307 225.486 309.04 223.923 308.68 222.38C307.955 219.225 307.02 216.121 305.88 213.09C304.78 210 303.39 207 302.04 203.91C301.323 202.314 301.134 200.531 301.5 198.82C301.911 197.087 302.924 195.555 304.36 194.5L304.25 194.69C304.413 193.148 304.77 191.633 305.31 190.18C305.608 189.421 306.005 188.705 306.49 188.05C306.983 187.342 307.681 186.801 308.49 186.5L308.65 186.45L308.76 186.61L308.99 186.95L328.15 215.8L327.68 215.97C327.212 212.125 326.528 208.309 325.63 204.54C325.4 203.61 325.14 202.7 324.84 201.81C324.5 200.889 324.337 199.912 324.36 198.93C324.415 197.95 324.7 196.997 325.192 196.148C325.684 195.298 326.368 194.576 327.19 194.04L327.4 193.9L327.53 194.13L335.28 207.55C336.42 215.91 337.51 223.877 338.55 231.45C338.41 243.83 338.34 255.16 338.36 265.18C338.36 270.18 338.36 274.88 338.51 279.18C338.57 281.34 338.69 283.4 338.89 285.38C339.09 287.36 339.18 289.25 339.3 291.04C339.77 298.2 340.05 303.82 340.25 307.65C340.34 309.56 340.41 311.02 340.45 312.02C340.49 313.02 340.5 313.52 340.5 313.52C340.5 313.52 340.45 313.01 340.39 312.02C340.33 311.03 340.23 309.56 340.12 307.66C339.88 303.83 339.55 298.21 339.05 291.05C338.92 289.26 338.79 287.38 338.62 285.4C338.45 283.42 338.27 281.35 338.21 279.19C338.07 274.85 338.03 270.19 338 265.19C337.95 255.19 338 243.84 338.12 231.46C337.073 223.9 335.97 215.937 334.81 207.57V207.65L327.04 194.25L327.38 194.34C326.632 194.837 326.009 195.499 325.56 196.277C325.11 197.054 324.847 197.924 324.79 198.82C324.78 199.741 324.936 200.655 325.25 201.52C325.563 202.427 325.833 203.347 326.06 204.28C326.963 208.072 327.654 211.911 328.13 215.78L328.27 216.87L327.66 215.95L308.49 187.11L308.27 186.77L308.54 186.88C307.853 187.159 307.262 187.631 306.84 188.24C306.385 188.854 306.015 189.527 305.74 190.24C305.226 191.653 304.89 193.124 304.74 194.62V194.73L304.64 194.81C303.313 195.79 302.375 197.206 301.99 198.81C301.656 200.419 301.838 202.091 302.51 203.59C303.84 206.64 305.25 209.68 306.35 212.78C307.498 215.834 308.44 218.961 309.17 222.14C309.545 223.742 309.822 225.365 310 227C310.21 228.582 310.23 230.184 310.06 231.77L309.97 232.41L309.6 231.87C305.27 225.49 301.05 219.29 297.07 213.44L297.36 213.52C296.67 213.83 295.88 214.09 295.29 214.42C294.699 214.815 294.272 215.413 294.09 216.1C293.878 216.801 293.77 217.528 293.77 218.26C293.746 218.984 293.82 219.707 293.99 220.41C294.525 221.785 295.153 223.121 295.87 224.41C296.53 225.72 297.12 227.05 297.67 228.41C299.85 233.72 301.58 238.93 303.14 243.89V243.97C302.14 254.14 301.5 263.51 301.38 271.88C301.38 273.967 301.42 275.99 301.5 277.95C301.546 279.833 301.929 281.692 302.63 283.44C303.322 284.963 304.324 286.324 305.572 287.436C306.821 288.549 308.288 289.388 309.88 289.9H309.99V290C309.06 297.59 308.34 303.51 307.85 307.55L307.28 312.14C307.17 313.13 307.08 313.66 307.08 313.66Z" fill="#D37A57"/>
<path d="M321.88 233.55C321.713 233.012 321.593 232.459 321.52 231.9C321.33 230.83 321.01 229.29 320.58 227.39C319.412 222.47 317.754 217.679 315.63 213.09C313.461 208.513 310.936 204.113 308.08 199.93C307 198.32 306.08 197.03 305.47 196.14C305.129 195.688 304.818 195.214 304.54 194.72C304.94 195.121 305.305 195.556 305.63 196.02C306.31 196.87 307.26 198.13 308.39 199.72C311.351 203.862 313.931 208.264 316.1 212.87C318.247 217.488 319.871 222.331 320.94 227.31C321.32 229.22 321.6 230.78 321.72 231.87C321.823 232.424 321.877 232.987 321.88 233.55Z" fill="#D37A57"/>
<path d="M332.28 226.1C331.308 224.445 330.488 222.704 329.83 220.9C328.996 219.17 328.326 217.366 327.83 215.51C328.795 217.165 329.612 218.901 330.27 220.7C331.1 222.437 331.773 224.244 332.28 226.1Z" fill="#D37A57"/>
<path d="M304.41 303.84C298.53 355.72 290.88 410.94 282.08 468.3H350.25C363.07 439.92 355.25 415.16 351.81 379.87L340.57 299.74L304.41 303.84Z" fill="#FF725E"/>
<path d="M282.08 468.3C282.069 468.19 282.069 468.08 282.08 467.97L282.2 466.97C282.33 466.08 282.5 464.81 282.72 463.2C283.2 459.89 283.89 455.2 284.72 449.32C286.44 437.58 288.82 421.42 291.44 403.56C294.06 385.7 296.19 369.48 297.62 357.73C298.35 351.85 298.9 347.1 299.27 343.81C299.46 342.19 299.61 340.92 299.72 340.02L299.84 339.02C299.853 338.908 299.876 338.797 299.91 338.69C299.91 338.69 299.91 338.8 299.91 339.02L299.83 340.02C299.75 340.92 299.63 342.2 299.48 343.82C299.17 347.11 298.68 351.88 297.99 357.76C296.66 369.52 294.54 385.76 291.99 403.63C289.44 421.5 286.93 437.63 285.11 449.37C284.2 455.19 283.45 459.91 282.93 463.22C282.67 464.82 282.46 466.08 282.32 466.98C282.25 467.38 282.19 467.71 282.15 467.98C282.136 468.088 282.113 468.196 282.08 468.3Z" fill="#263238"/>
<path d="M429.78 467.85H235.39L260.47 331.42C260.901 329.08 262.137 326.965 263.963 325.44C265.789 323.916 268.091 323.077 270.47 323.07H445.17C446.67 323.073 448.15 323.406 449.506 324.047C450.862 324.687 452.061 325.619 453.015 326.775C453.97 327.932 454.659 329.284 455.031 330.737C455.403 332.19 455.451 333.707 455.17 335.18L429.78 467.85Z" fill="#455A64"/>
<path d="M235.39 467.85H161.65L161.95 467.63C168.527 462.688 176.468 459.895 184.69 459.63L237.41 458.08L235.39 467.85Z" fill="#455A64"/>
<path d="M282.08 323.25C282.08 323.3 281.54 323.15 280.51 323.14C279.006 323.163 277.528 323.532 276.19 324.22C274.071 325.296 272.282 326.923 271.01 328.93C269.403 331.643 268.324 334.636 267.83 337.75C267.2 341.2 266.64 345.03 265.95 349.12C265.26 353.21 264.5 357.57 263.64 362.12C261.95 371.29 259.94 381.35 257.76 391.88C253.37 412.95 249.3 432 246.65 445.88C245.31 452.8 244.28 458.41 243.58 462.29C243.23 464.19 242.96 465.68 242.77 466.75C242.67 467.23 242.6 467.61 242.54 467.91C242.519 468.043 242.486 468.173 242.44 468.3C242.44 468.3 242.44 468.17 242.44 467.9C242.44 467.63 242.54 467.21 242.6 466.73C242.77 465.65 242.99 464.15 243.28 462.24C243.89 458.35 244.85 452.72 246.12 445.78C248.65 431.91 252.64 412.83 257.03 391.78C259.21 381.25 261.23 371.21 262.96 362.05C263.84 357.48 264.61 353.12 265.34 349.05C266.07 344.98 266.64 341.16 267.34 337.68C267.87 334.513 269.004 331.478 270.68 328.74C272.014 326.694 273.881 325.052 276.08 323.99C277.456 323.297 278.98 322.954 280.52 322.99C281.05 323.002 281.575 323.089 282.08 323.25Z" fill="#263238"/>
<path d="M364.18 392.39C364.18 394.249 363.629 396.066 362.596 397.612C361.563 399.158 360.095 400.363 358.377 401.074C356.66 401.786 354.77 401.972 352.946 401.609C351.123 401.246 349.448 400.351 348.133 399.037C346.819 397.722 345.923 396.047 345.561 394.224C345.198 392.4 345.384 390.51 346.096 388.793C346.807 387.075 348.012 385.607 349.558 384.574C351.103 383.541 352.921 382.99 354.78 382.99C357.273 382.99 359.664 383.98 361.427 385.743C363.19 387.506 364.18 389.897 364.18 392.39Z" fill="#F5F5F5"/>
<path d="M477.62 468C477.62 468.14 375.25 468.26 249.01 468.26C122.77 468.26 20.38 468.15 20.38 468C20.38 467.85 122.72 467.74 249.01 467.74C375.3 467.74 477.62 467.86 477.62 468Z" fill="#263238"/>
<path d="M206.58 109.81L203.91 84.6998L191.1 87.5898L180.06 68.0898L186.94 94.4498L199.93 91.4698L206.58 109.81Z" fill="#FF725E"/>
<path d="M201.36 114.55L189.46 102.3L183.85 109.19L169.84 103.42L184.5 114.58L190.17 107.57L201.36 114.55Z" fill="#FF725E"/>
<path d="M330 125.38L340.82 105.7L350.33 112.47L366.08 100.27L351.39 119.53L341.75 112.63L330 125.38Z" fill="#FF725E"/>
<path d="M349.85 136.61L361.04 131.84L362.83 137.9L373.62 137.97L360.92 141.26L359.12 135.1L349.85 136.61Z" fill="#FF725E"/>
<path d="M272.23 60.1502C272.23 60.1502 272.68 59.8602 273.58 59.3202C274.924 58.5355 276.317 57.8374 277.75 57.2302C283.33 54.8395 289.376 53.7355 295.44 54.0002C296.46 54.0308 297.478 54.1143 298.49 54.2502C299.564 54.3539 300.628 54.5479 301.67 54.8302C302.772 55.1171 303.831 55.5474 304.82 56.1102C305.876 56.6979 306.761 57.5489 307.39 58.5802C308.024 59.688 308.244 60.9853 308.01 62.2402C307.717 63.5306 307.077 64.7165 306.16 65.6702C304.208 67.6361 301.805 69.0951 299.16 69.9202C293.386 72.0439 287.228 72.9264 281.09 72.5102C274.144 72.0836 267.395 70.0282 261.39 66.5102L261.25 66.4202L261.34 66.2802C263.904 62.2453 267.484 58.9554 271.72 56.7402C276.203 54.368 281.131 52.9579 286.19 52.6002C291.521 52.2644 296.873 52.6988 302.08 53.8902C304.76 54.4602 307.44 55.1702 310.08 56.0002C312.835 56.7464 315.514 57.7509 318.08 59.0002C320.735 60.3017 322.96 62.3394 324.49 64.8702C325.249 66.1726 325.722 67.6212 325.88 69.1202C326.017 70.6456 325.762 72.1807 325.14 73.5802C323.735 76.3366 321.451 78.5463 318.65 79.8602C315.874 81.2556 312.93 82.2874 309.89 82.9302C297.26 85.9969 284.122 86.3378 271.35 83.9302C270.52 83.7902 269.71 83.5902 268.88 83.4202C268.05 83.2502 267.24 83.0602 266.42 82.8502C264.761 82.4787 263.133 81.9806 261.55 81.3602C259.939 80.7287 258.437 79.848 257.1 78.7502C255.71 77.6276 254.758 76.0527 254.41 74.3002C254.115 72.5163 254.516 70.6873 255.53 69.1902C256.527 67.723 257.793 66.4574 259.26 65.4602C260.716 64.4575 262.263 63.5937 263.88 62.8802C264.66 62.4802 265.48 62.1302 266.29 61.7902C267.1 61.4502 267.92 61.1002 268.76 60.7902C275.512 58.2554 282.649 56.9023 289.86 56.7902C293.522 56.7292 297.182 56.9835 300.8 57.5502C301.71 57.6902 302.62 57.8402 303.53 58.0502C304.44 58.2602 305.34 58.4102 306.23 58.6602C308.048 59.0744 309.825 59.65 311.54 60.3802C313.287 61.1015 314.907 62.0974 316.34 63.3302C317.809 64.58 318.857 66.2528 319.34 68.1202L319.49 68.8302L319.55 69.5602C319.585 70.0429 319.585 70.5275 319.55 71.0102C319.423 71.97 319.139 72.9024 318.71 73.7702C317.831 75.4892 316.597 77.0025 315.09 78.2102C313.616 79.441 312.006 80.498 310.29 81.3602C309.44 81.8102 308.56 82.1902 307.68 82.5602C306.8 82.9302 305.92 83.3102 305.02 83.6502C301.434 85.0348 297.75 86.1545 294 87.0002C286.391 88.762 278.565 89.4087 270.77 88.9202C266.786 88.7728 262.883 87.7485 259.34 85.9202C257.546 84.9714 256.011 83.5982 254.87 81.9202C253.776 80.1783 253.271 78.1309 253.43 76.0802C253.58 74.4188 254.117 72.8157 255 71.4002C255.888 70.0084 256.973 68.7521 258.22 67.6702C260.702 65.5552 263.516 63.8657 266.55 62.6702C272.48 60.1544 278.785 58.634 285.21 58.1702C288.38 57.9384 291.564 57.9618 294.73 58.2402C296.31 58.3802 297.88 58.5802 299.44 58.8502C301.009 59.0897 302.552 59.4747 304.05 60.0002C305.56 60.495 306.988 61.2093 308.29 62.1202C309.633 63.0158 310.695 64.2747 311.35 65.7502C311.983 67.2505 312.037 68.9326 311.5 70.4702C310.966 71.9732 310.053 73.3131 308.85 74.3602C306.45 76.4802 303.35 77.3602 300.4 78.0902C297.45 78.8202 294.47 79.5002 291.51 80.1502C285.66 81.5106 279.722 82.4629 273.74 83.0002C267.856 83.5348 261.926 83.2521 256.12 82.1602C250.422 81.087 245 78.8727 240.18 75.6502L239.92 75.4802L240.15 75.2702C248.285 68.2514 258.277 63.7365 268.92 62.2702C279.017 60.7101 289.348 62.002 298.75 66.0002C299.87 66.5323 300.919 67.2043 301.87 68.0002C302.841 68.7955 303.589 69.8292 304.04 71.0002C304.437 72.2137 304.373 73.531 303.86 74.7002C303.319 75.818 302.508 76.7837 301.5 77.5102C299.518 78.8564 297.329 79.8697 295.02 80.5102C292.789 81.2254 290.505 81.767 288.19 82.1302C283.664 82.8351 279.056 82.8351 274.53 82.1302C273.398 82.0264 272.311 81.6376 271.37 81.0002C270.916 80.6244 270.57 80.1346 270.368 79.581C270.166 79.0275 270.115 78.43 270.22 77.8502C270.516 76.7439 271.136 75.7514 272 75.0002C272.807 74.2461 273.716 73.6099 274.7 73.1102C282.318 69.7026 290.702 68.3742 299 69.2602C300.975 69.4415 302.915 69.8889 304.77 70.5902C306.616 71.2664 308.234 72.448 309.44 74.0002C310.62 75.5442 311.177 77.475 311 79.4102C310.7 81.2737 309.698 82.9518 308.2 84.1002C306.808 85.2057 305.315 86.1767 303.74 87.0002C302.207 87.8432 300.624 88.5912 299 89.2402C295.907 90.474 292.688 91.3627 289.4 91.8902C283.41 92.8636 277.284 92.5982 271.4 91.1102H271.21L271.32 90.9602C273.846 87.5412 277.325 84.9429 281.32 83.4902C284.803 82.1813 288.568 81.8089 292.24 82.4102C293.891 82.6383 295.469 83.2329 296.86 84.1502C297.505 84.5942 298.058 85.1577 298.49 85.8102C298.893 86.4486 299.146 87.17 299.23 87.9202C299.336 89.3218 298.947 90.7162 298.13 91.8602C297.428 92.8899 296.555 93.7928 295.55 94.5302C293.842 95.679 291.98 96.5812 290.02 97.2102C288.638 97.7078 287.294 98.3061 286 99.0002C285.214 99.4355 284.482 99.9625 283.82 100.57C283.6 100.77 283.45 100.94 283.34 101.05L283.18 101.21C283.375 100.976 283.582 100.753 283.8 100.54C284.452 99.9211 285.178 99.3838 285.96 98.9402C287.245 98.2267 288.582 97.6116 289.96 97.1002C291.904 96.4538 293.751 95.5454 295.45 94.4002C296.44 93.669 297.296 92.7725 297.98 91.7502C298.776 90.6393 299.151 89.2821 299.04 87.9202C298.958 87.2068 298.712 86.5221 298.32 85.9202C297.904 85.2821 297.363 84.7346 296.73 84.3102C295.363 83.4134 293.811 82.8358 292.19 82.6202C288.553 82.0323 284.826 82.4081 281.38 83.7102C277.431 85.1571 273.995 87.7342 271.5 91.1202L271.43 90.9202C277.277 92.3823 283.362 92.6341 289.31 91.6602C292.598 91.1273 295.817 90.2353 298.91 89.0002C300.512 88.359 302.074 87.6244 303.59 86.8002C305.156 85.9774 306.64 85.0063 308.02 83.9002C309.448 82.8 310.406 81.199 310.7 79.4202C310.844 77.5749 310.295 75.7423 309.16 74.2802C308.004 72.7772 306.448 71.6301 304.67 70.9702C302.851 70.2641 300.943 69.8131 299 69.6302C290.755 68.7335 282.419 70.0486 274.85 73.4402C273.9 73.9188 273.025 74.5318 272.25 75.2602C271.458 75.9641 270.891 76.8858 270.62 77.9102C270.526 78.4176 270.569 78.9409 270.745 79.4261C270.921 79.9112 271.223 80.3407 271.62 80.6702C272.501 81.3186 273.534 81.7285 274.62 81.8602C279.1 82.5551 283.66 82.5551 288.14 81.8602C290.434 81.4919 292.698 80.9504 294.91 80.2402C297.177 79.5963 299.323 78.5827 301.26 77.2402C302.207 76.557 302.969 75.65 303.48 74.6002C303.947 73.5316 304.004 72.3282 303.64 71.2202C303.236 70.1162 302.546 69.1395 301.64 68.3902C300.732 67.5949 299.723 66.9225 298.64 66.3902C289.302 62.4034 279.035 61.108 269 62.6502C258.441 64.1387 248.538 68.6539 240.49 75.6502V75.2602C245.263 78.4367 250.626 80.62 256.26 81.6802C262.02 82.7672 267.903 83.0499 273.74 82.5202C279.7 81.9705 285.614 81.0082 291.44 79.6402C294.44 78.9902 297.36 78.2902 300.32 77.5802C303.28 76.8702 306.32 75.9902 308.55 73.9702C309.673 72.9651 310.516 71.6872 311 70.2602C311.487 68.8343 311.434 67.2793 310.85 65.8902C310.231 64.507 309.233 63.3279 307.97 62.4902C306.706 61.6127 305.321 60.9223 303.86 60.4402C302.388 59.9351 300.871 59.5701 299.33 59.3502C297.79 59.0802 296.23 58.8802 294.67 58.7402C291.527 58.4701 288.367 58.4501 285.22 58.6802C278.857 59.1414 272.613 60.6483 266.74 63.1402C263.752 64.3129 260.981 65.9757 258.54 68.0602C256.18 70.1602 254.14 72.9302 253.88 76.1302C253.732 78.0651 254.208 79.9966 255.24 81.6402C256.336 83.2445 257.804 84.5588 259.52 85.4702C262.996 87.2606 266.823 88.2644 270.73 88.4102C278.478 88.8953 286.256 88.2554 293.82 86.5102C297.563 85.6544 301.24 84.5281 304.82 83.1402C305.707 82.8002 306.587 82.4402 307.46 82.0602C308.34 81.6902 309.2 81.3102 310.04 80.8702C311.718 80.0242 313.295 78.991 314.74 77.7902C316.189 76.6265 317.378 75.1719 318.23 73.5202C318.631 72.7014 318.898 71.8236 319.02 70.9202C319.055 70.4675 319.055 70.0128 319.02 69.5602L318.96 68.8802L318.82 68.2102C318.368 66.446 317.384 64.8641 316 63.6802C314.605 62.4856 313.028 61.5203 311.33 60.8202C309.641 60.0997 307.89 59.5308 306.1 59.1202C305.21 58.8802 304.31 58.7002 303.41 58.5102C302.51 58.3202 301.62 58.1602 300.71 58.0202C290.015 56.3324 279.065 57.4346 268.92 61.2202C268.09 61.5102 267.28 61.8402 266.47 62.2202C265.66 62.6002 264.86 62.9002 264.08 63.3002C262.488 64.0036 260.964 64.8539 259.53 65.8402C258.114 66.7982 256.892 68.0165 255.93 69.4302C254.979 70.826 254.6 72.5331 254.87 74.2002C255.204 75.8416 256.099 77.3157 257.4 78.3702C258.697 79.4368 260.155 80.2907 261.72 80.9002C263.282 81.5163 264.89 82.0079 266.53 82.3702C267.34 82.5802 268.15 82.7802 268.97 82.9402C269.79 83.1002 270.6 83.3102 271.42 83.4502C284.129 85.8427 297.203 85.5018 309.77 82.4502C312.774 81.8293 315.685 80.8209 318.43 79.4502C321.08 78.0502 323.55 76.0902 324.75 73.3802C325.338 72.0487 325.579 70.59 325.45 69.1402C325.3 67.6785 324.836 66.2664 324.09 65.0002C322.595 62.5427 320.43 60.562 317.85 59.2902C315.321 58.051 312.683 57.0468 309.97 56.2902C307.3 55.4602 304.63 54.7502 301.97 54.1802C296.796 52.9907 291.478 52.5528 286.18 52.8802C281.172 53.2398 276.294 54.6432 271.86 57.0002C267.671 59.1784 264.13 62.4202 261.59 66.4002L261.53 66.1702C267.14 69.4805 273.413 71.5108 279.899 72.1158C286.385 72.7208 292.924 71.8857 299.05 69.6702C301.674 68.8621 304.06 67.4235 306 65.4802C306.888 64.5579 307.513 63.4151 307.81 62.1702C308.039 60.9673 307.829 59.7223 307.22 58.6602C306.613 57.6572 305.755 56.83 304.73 56.2602C303.758 55.7005 302.715 55.2734 301.63 54.9902C300.598 54.7078 299.544 54.5104 298.48 54.4002C297.48 54.2602 296.48 54.1902 295.48 54.1402C289.434 53.8722 283.405 54.9551 277.83 57.3102C276.399 57.8957 275.004 58.5635 273.65 59.3102C272.7 59.8902 272.23 60.1502 272.23 60.1502Z" fill="#263238"/>
</svg>
