<svg width="754" height="500" viewBox="0 0 754 500" fill="none" xmlns="http://www.w3.org/2000/svg">
<g clip-path="url(#clip0)">
<path d="M11.4881 341.793C-5.47947 290.095 -4.85383 224.565 21.4793 180.94C30.2892 241.433 54.349 295.684 89.4017 334.094C102.959 348.84 119.153 363.296 122.856 386.538C125.161 400.999 121.894 416.295 116.247 428.892C110.6 441.49 102.728 451.852 94.945 462.065L94.0719 465.56C60.2078 433.264 28.4558 393.491 11.4881 341.793Z" fill="#F0F0F0"/>
<path d="M22.2123 181.57C16.1521 227.281 20.6541 275.955 35.3843 317.835C38.5689 326.889 42.3715 335.693 47.4627 342.975C52.4648 350.02 58.7453 355.093 65.6518 357.664C72.0564 360.24 78.8241 361.853 84.6627 366.528C90.8168 371.457 94.636 379.726 96.1238 389.209C97.9441 400.811 96.6294 412.623 95.0523 424.112C93.3012 436.868 91.3357 450.08 93.8731 462.904C94.1806 464.458 92.4124 465.024 92.1054 463.473C87.6906 441.162 96.2741 419.157 95.0743 396.726C94.5144 386.259 91.6612 375.961 85.146 369.896C79.4487 364.593 72.4707 362.922 65.9695 360.391C59.1432 357.733 53.0127 353.674 47.7961 346.941C42.4598 340.053 38.3993 331.436 35.0606 322.533C27.5989 302.268 22.4969 280.513 19.9413 258.065C16.9215 232.467 17.1029 206.346 20.4776 180.832C20.6869 179.253 22.4203 180.002 22.2123 181.57L22.2123 181.57Z" fill="white"/>
<path d="M30.075 304.57C24.578 306.997 18.6338 306.653 13.3039 303.6C7.97393 300.547 3.60539 294.984 0.978402 287.903C0.450423 286.468 2.04461 285.271 2.57329 286.708C5.0107 293.307 9.08038 298.489 14.0478 301.318C19.0153 304.147 24.5532 304.437 29.6622 302.135C30.7729 301.637 31.1793 304.075 30.075 304.57L30.075 304.57Z" fill="white"/>
<path d="M62.2794 356.947C67.7723 342.562 69.1271 325.853 66.0736 310.152C65.7701 308.597 67.5383 308.03 67.8414 309.584C70.9967 325.93 69.5612 343.314 63.8213 358.267C63.2735 359.692 61.7346 358.364 62.2794 356.947Z" fill="white"/>
<path d="M19.255 233.279C21.524 232.951 23.6982 231.851 25.5824 230.079C27.4666 228.307 29.0018 225.918 30.0501 223.127C30.5845 221.694 32.1229 223.023 31.592 224.447C30.4233 227.523 28.7256 230.159 26.647 232.123C24.5684 234.087 22.1722 235.32 19.6678 235.714C19.4341 235.779 19.1912 235.718 18.9887 235.545C18.7862 235.371 18.6392 235.098 18.5776 234.781C18.5241 234.458 18.5652 234.119 18.6921 233.838C18.819 233.557 19.0213 233.356 19.255 233.279Z" fill="white"/>
<path d="M160.935 181.446C160.619 182.354 160.304 183.263 159.996 184.189C155.804 196.43 152.341 209.119 149.641 222.132C149.42 223.134 149.208 224.153 149.009 225.161C142.746 256.608 140.776 289.383 143.199 321.821C144.172 334.727 145.857 347.513 148.238 360.067C151.527 377.405 156.094 395.843 155.064 413.155C154.971 414.963 154.797 416.762 154.543 418.54L97.2349 466.756C97.0647 466.775 96.9018 466.813 96.731 466.833L94.5068 468.903C94.3512 468.267 94.1997 467.603 94.0441 466.967C93.9527 466.599 93.874 466.22 93.7826 465.852C93.7257 465.603 93.6694 465.354 93.6078 465.133C93.5886 465.051 93.5701 464.967 93.5589 464.903C93.4972 464.683 93.4569 464.469 93.4033 464.267C92.549 460.559 91.7122 456.837 90.8927 453.099C90.8847 453.081 90.8847 453.081 90.8895 453.053C84.6988 424.555 80.1808 395.095 79.0526 365.627C79.0189 364.74 78.9765 363.836 78.969 362.927C78.5139 349.641 78.848 336.325 79.9679 323.113C80.598 315.882 81.4935 308.699 82.6509 301.592C85.6671 283.236 90.7604 265.649 97.7443 249.474C111.67 217.232 132.926 191.484 158.942 182.134C159.607 181.895 160.261 181.667 160.935 181.446Z" fill="#F0F0F0"/>
<path d="M161.25 182.557C136.432 214.028 118.752 256.625 112.208 302.28C110.793 312.151 109.982 322.333 110.864 332.37C111.778 342.144 114.576 351.402 118.966 359.183C122.954 366.551 127.653 373.452 130.271 382.027C133.031 391.066 132.466 400.836 129.509 409.641C125.891 420.415 119.679 428.755 113.398 436.621C106.424 445.354 99.0798 454.273 95.5009 466.616C95.0672 468.112 93.4078 467.098 93.8408 465.604C100.068 444.129 116.539 433.678 125.385 414.773C129.513 405.951 131.736 395.363 129.185 385.117C126.954 376.158 122.113 369.036 118.028 361.624C113.739 353.841 110.619 345.515 109.396 335.813C108.146 325.888 108.671 315.64 109.896 305.763C112.796 283.394 118.231 261.793 126.002 241.749C134.78 218.807 146.341 198.101 160.187 180.528C161.045 179.441 162.102 181.476 161.25 182.556L161.25 182.557Z" fill="white"/>
<path d="M113.766 287.286C108.317 284.665 103.721 279.46 100.8 272.602C97.8785 265.744 96.8221 257.679 97.8192 249.848C98.025 248.264 99.8212 248.63 99.6153 250.216C98.677 257.506 99.6615 265.019 102.391 271.397C105.121 277.776 109.416 282.6 114.501 284.999C115.606 285.522 114.865 287.806 113.767 287.286H113.766Z" fill="white"/>
<path d="M116.587 355.814C127.261 348.883 135.645 336.666 140.07 321.598C140.507 320.104 142.167 321.118 141.73 322.61C137.104 338.278 128.36 350.968 117.241 358.147C116.181 358.83 115.533 356.494 116.587 355.814H116.587Z" fill="white"/>
<path d="M136.288 221.391C138.243 223.01 140.46 223.935 142.739 224.083C145.017 224.231 147.287 223.597 149.344 222.237C150.398 221.536 151.045 223.873 149.999 224.57C147.721 226.057 145.213 226.753 142.695 226.598C140.177 226.442 137.725 225.439 135.553 223.677C135.338 223.535 135.171 223.285 135.085 222.979C134.999 222.672 135.001 222.332 135.091 222.028C135.189 221.726 135.37 221.489 135.594 221.37C135.818 221.251 136.068 221.258 136.288 221.391H136.288Z" fill="white"/>
<path d="M503.045 170.898L502.801 170.208C502.727 169.998 495.428 148.978 499.497 128.259C503.566 107.54 517.561 94.4553 517.701 94.3257L518.163 93.8999L518.407 94.5899C518.481 94.7997 525.78 115.82 521.711 136.539C517.642 157.258 503.646 170.344 503.505 170.472L503.045 170.898ZM521.125 134.196C523.856 116.529 504.828 109.478 500.844 126.688C500.698 127.319 500.562 127.957 500.434 128.604C496.881 146.693 502.219 165.077 503.436 168.897C505.886 166.442 517.222 154.278 520.776 136.188C520.905 135.529 521.022 134.865 521.125 134.196Z" fill="#3F3D56"/>
<path d="M484.224 136.365C488.293 157.085 502.235 169.917 502.235 169.917C502.235 169.917 509.575 149.156 505.506 128.436C501.437 107.716 487.495 94.8838 487.495 94.8838C487.495 94.8838 480.155 115.645 484.224 136.365Z" fill="#6C63FF"/>
<path d="M503.266 170.609L502.71 170.567C502.541 170.554 485.66 169.121 474.492 154.15C463.325 139.18 461.832 115.97 461.818 115.736L461.772 114.974L462.328 115.016C462.497 115.028 479.378 116.461 490.545 131.432C501.711 146.403 503.206 169.612 503.219 169.846L503.266 170.609ZM475.17 153.194C484.921 166.277 499.174 168.779 502.191 169.173C501.824 165.03 499.62 145.474 489.868 132.391C489.519 131.923 489.165 131.469 488.806 131.029C479.012 119.018 465.249 138.436 474.132 151.722C474.468 152.226 474.814 152.716 475.17 153.194Z" fill="#3F3D56"/>
<path d="M515.263 131.911C504.097 146.884 502.733 169.9 502.733 169.9C502.733 169.9 519.472 168.641 530.638 153.668C541.804 138.696 543.17 115.679 543.17 115.679C543.17 115.679 526.428 116.938 515.263 131.911Z" fill="#3F3D56"/>
<path d="M502.5 91.4637C506.521 91.4637 509.781 86.9731 509.781 81.4337C509.781 75.8944 506.521 71.4038 502.5 71.4038C498.479 71.4038 495.219 75.8944 495.219 81.4337C495.219 86.9731 498.479 91.4637 502.5 91.4637Z" fill="#6C63FF"/>
<path d="M489.288 165.78H517.066C520.393 165.78 523.584 167.6 525.936 170.841C528.289 174.082 529.61 178.477 529.61 183.06C529.61 192.604 525.684 227.219 518.756 227.219L484.705 228.454C477.777 228.454 476.743 192.604 476.743 183.06C476.743 178.477 478.064 174.082 480.417 170.841C482.77 167.6 485.96 165.78 489.288 165.78Z" fill="#E6E6E6"/>
<path d="M430.006 165.279C429.59 165.65 429.196 166.065 428.827 166.521L385.768 151.4L382.83 137.091L366.572 140.375L369.985 166.404C370.261 168.507 371.025 170.43 372.161 171.884C373.298 173.338 374.746 174.245 376.289 174.469L426.568 181.763C427.388 184.14 428.713 186.118 430.369 187.433C432.024 188.748 433.931 189.337 435.835 189.122C437.74 188.908 439.551 187.899 441.03 186.231C442.508 184.564 443.583 182.315 444.11 179.786C444.638 177.256 444.595 174.565 443.985 172.07C443.375 169.576 442.229 167.396 440.698 165.821C439.167 164.246 437.324 163.351 435.414 163.254C433.505 163.157 431.619 163.863 430.008 165.279H430.006Z" fill="#FFB6B6"/>
<path d="M363.666 153.364L374.76 166.546L390.279 184.974L397.134 136.663L397.851 131.64L398.416 127.653L382.69 89.9204L369.58 90.9572L368.684 91.0313L368.666 91.3028L368.46 93.8332L365.772 127.135L365.709 127.937L363.666 153.364Z" fill="#E6E6E6"/>
<path d="M436.174 483.755H447.16L452.387 425.388H436.172L436.174 483.755Z" fill="#FFB6B6"/>
<path d="M321.478 484.99H332.464L337.69 426.622H321.476L321.478 484.99Z" fill="#FFB6B6"/>
<path d="M312.697 459.286L342.267 465.457L385.287 264.908L430.978 466.692L464.132 460.52L421.121 226.003V207.488L415.297 179.717L415.906 172.2L420.144 119.631L421.981 96.8332L422.1 95.3607C422.2 94.1248 421.963 92.8819 421.434 91.8742C420.905 90.8664 420.123 90.1658 419.239 89.9088L405.44 85.9097H382.89L369.583 90.958L368.669 91.3036L368.257 91.464L368.463 93.8339L371.581 129.851L371.752 131.826L374.762 166.547L375.425 174.162C349.44 200.083 348.544 226.003 348.544 226.003L312.697 459.286Z" fill="#2F2E41"/>
<path d="M396.89 70.2954C409.045 70.2954 418.898 56.7226 418.898 39.9797C418.898 23.2369 409.045 9.66406 396.89 9.66406C384.735 9.66406 374.882 23.2369 374.882 39.9797C374.882 56.7226 384.735 70.2954 396.89 70.2954Z" fill="#FFB6B6"/>
<path d="M373.773 167.197L372.96 175.764L416.496 183.607L417.31 175.04L373.773 167.197Z" fill="#6C63FF"/>
<path d="M475.706 177.622C475.289 177.993 474.895 178.408 474.526 178.865L431.467 163.743L428.53 149.434L412.271 152.719L415.685 178.747C415.96 180.85 416.724 182.773 417.861 184.227C418.997 185.682 420.446 186.589 421.988 186.812L472.267 194.106C473.087 196.484 474.412 198.461 476.068 199.776C477.723 201.091 479.63 201.68 481.534 201.465C483.439 201.251 485.251 200.242 486.729 198.575C488.207 196.907 489.282 194.659 489.81 192.129C490.338 189.599 490.294 186.908 489.684 184.414C489.075 181.919 487.928 179.739 486.397 178.164C484.866 176.589 483.023 175.694 481.114 175.597C479.204 175.5 477.318 176.206 475.707 177.622H475.706Z" fill="#FFB6B6"/>
<path d="M409.472 97.6352L417.089 89.6122C419.15 88.5359 421.969 91.5933 422.465 94.5494L433.218 155.03L410.816 177.248L407.68 170.459L409.472 97.6352Z" fill="#E6E6E6"/>
<path d="M413.754 14.8801C417.869 14.1852 422.386 14.6765 425.594 18.2954C428.802 21.9144 429.838 29.4387 426.8 33.3268C424.112 36.7692 419.907 35.9595 416.305 36.9383C413.202 37.8961 410.422 40.2602 408.41 43.652C406.398 47.0439 405.271 51.2674 405.208 55.6466C405.262 68.2044 414.011 77.7147 415.582 90.0836C416.658 98.5263 414.07 107.411 409.601 113.375C405.133 119.339 398.989 122.562 392.799 123.434C386.609 124.307 380.35 122.974 374.335 120.783C368.294 118.584 362.347 115.462 357.279 110.43C352.211 105.398 348.056 98.3016 346.429 89.9923C344.801 81.683 345.97 72.1554 350.163 65.7753C354.965 58.4695 362.954 55.9576 367.108 47.9322C371.768 38.9366 370.041 26.1271 373.81 16.3749C376.326 9.86391 381.09 5.4229 386.168 3.08267C391.246 0.74243 396.669 0.280797 402.021 0.0549203C404.835 -0.0685098 407.734 -0.104297 410.355 1.30898C412.976 2.72225 415.283 5.9413 415.416 9.81454C415.548 13.6878 413.754 14.8801 413.754 14.8801Z" fill="#2F2E41"/>
<path d="M168.031 498.361H76.4966C74.8597 498.358 73.2904 497.461 72.133 495.867C70.9757 494.272 70.3247 492.111 70.323 489.856V411.246C70.3292 403.707 72.5063 396.478 76.3766 391.147C80.247 385.816 85.4945 382.817 90.9679 382.809H168.031C169.668 382.812 171.237 383.708 172.394 385.303C173.551 386.897 174.202 389.058 174.204 391.313V489.856C174.203 492.111 173.552 494.272 172.394 495.867C171.237 497.461 169.668 498.358 168.031 498.361ZM90.9679 385.278C85.9697 385.286 81.1778 388.024 77.6434 392.892C74.1091 397.761 72.1209 404.361 72.1151 411.246V489.856C72.1164 491.456 72.5784 492.99 73.3997 494.122C74.2211 495.254 75.3348 495.89 76.4966 495.892H168.031C169.192 495.89 170.306 495.254 171.128 494.122C171.949 492.99 172.411 491.456 172.412 489.856V391.313C172.411 389.713 171.949 388.179 171.128 387.047C170.306 385.916 169.192 385.279 168.031 385.278H90.9679Z" fill="#3F3D56"/>
<path d="M93.9963 388.402C88.9718 388.41 84.1548 391.162 80.602 396.056C77.0492 400.95 75.0507 407.586 75.045 414.507V486.596C75.0464 488.233 75.5189 489.801 76.3588 490.958C77.1988 492.115 78.3375 492.766 79.5254 492.768H165.003C166.191 492.766 167.329 492.115 168.169 490.958C169.009 489.801 169.482 488.233 169.483 486.596V394.573C169.482 392.937 169.009 391.369 168.169 390.212C167.329 389.055 166.191 388.404 165.003 388.402H93.9963Z" fill="#6C63FF"/>
<path d="M128.85 411.949H116.156C115.562 411.948 114.993 411.623 114.573 411.044C114.153 410.466 113.917 409.681 113.916 408.863V380.379H131.09V408.863C131.089 409.681 130.853 410.466 130.433 411.044C130.013 411.623 129.444 411.948 128.85 411.949Z" fill="#3F3D56"/>
<path d="M637.196 355.943L641.115 341.55L641.255 341.439L672.831 316.586C673.171 316.319 673.539 316.126 673.922 316.015C674.801 315.76 675.718 315.948 676.505 316.544C677.293 317.139 677.9 318.104 678.216 319.263C678.531 320.422 678.535 321.699 678.226 322.862C677.917 324.024 677.317 324.996 676.532 325.601L637.196 355.943Z" fill="#3F3D56"/>
<path d="M521.081 355.943L481.749 325.603C480.965 324.998 480.363 324.026 480.055 322.863C479.746 321.7 479.75 320.424 480.065 319.264C480.381 318.105 480.988 317.14 481.776 316.544C482.564 315.948 483.481 315.76 484.361 316.015C484.743 316.126 485.111 316.319 485.451 316.586L517.167 341.55L521.081 355.943Z" fill="#3F3D56"/>
<path d="M640.334 357.731H517.944L507.65 291.556H650.628L640.334 357.731Z" fill="#3F3D56"/>
<path d="M644.365 352.519H513.914L504.941 296.208C504.668 294.494 504.677 292.717 504.968 291.009C505.26 289.301 505.825 287.704 506.624 286.337C507.422 284.969 508.433 283.866 509.582 283.108C510.731 282.349 511.988 281.956 513.262 281.956H645.017C646.291 281.956 647.549 282.349 648.698 283.107C649.847 283.866 650.857 284.969 651.656 286.337C652.454 287.704 653.02 289.301 653.311 291.009C653.602 292.717 653.611 294.494 653.338 296.208L644.365 352.519ZM515.355 350.051H642.924L651.588 295.678C651.804 294.324 651.796 292.921 651.567 291.572C651.337 290.223 650.89 288.963 650.26 287.883C649.629 286.803 648.831 285.932 647.924 285.333C647.016 284.735 646.023 284.424 645.017 284.424H513.262C512.256 284.424 511.263 284.735 510.356 285.334C509.448 285.932 508.65 286.804 508.019 287.883C507.389 288.963 506.942 290.224 506.712 291.573C506.482 292.922 506.475 294.325 506.691 295.679L515.355 350.051Z" fill="#3F3D56"/>
<path opacity="0.1" d="M640.334 357.731H517.944L507.65 291.556H650.628L640.334 357.731Z" fill="black"/>
<path d="M639.149 498.547H519.13C517.502 498.544 515.941 497.652 514.79 496.067C513.639 494.481 512.991 492.331 512.99 490.089V348.731H645.289V490.089C645.287 492.331 644.64 494.481 643.489 496.067C642.337 497.652 640.777 498.544 639.149 498.547ZM514.782 351.2V490.089C514.783 491.677 515.242 493.199 516.057 494.322C516.872 495.445 517.977 496.076 519.13 496.078H639.149C640.301 496.076 641.407 495.445 642.222 494.322C643.037 493.199 643.496 491.677 643.497 490.089V351.2H514.782Z" fill="#3F3D56"/>
<path d="M517.821 354.408V486.08C517.823 487.88 518.342 489.606 519.266 490.878C520.19 492.151 521.443 492.867 522.749 492.869H635.53C636.836 492.867 638.089 492.151 639.013 490.878C639.937 489.606 640.456 487.88 640.458 486.08V354.408H517.821Z" fill="#3F3D56"/>
<path d="M651.076 292.173H507.202V291.556C507.204 289.453 507.812 287.436 508.891 285.949C509.971 284.462 511.435 283.625 512.962 283.623H645.316C646.843 283.625 648.307 284.462 649.387 285.949C650.467 287.436 651.074 289.453 651.076 291.556V292.173Z" fill="#6C63FF"/>
<path d="M198.753 411.011C194.337 411.018 190.104 413.437 186.982 417.738C183.859 422.039 182.103 427.87 182.098 433.952V486.599C182.099 488.235 182.572 489.804 183.412 490.961C184.252 492.118 185.391 492.768 186.578 492.77H251.693C252.88 492.768 254.019 492.118 254.859 490.961C255.699 489.804 256.172 488.235 256.173 486.599V417.183C256.172 415.547 255.699 413.978 254.859 412.821C254.019 411.664 252.88 411.013 251.693 411.011H198.753Z" fill="#3F3D56"/>
<path d="M266.283 405.745H200.472C198.802 405.743 197.201 404.828 196.02 403.202C194.839 401.575 194.175 399.37 194.173 397.07V320.976C194.175 318.676 194.839 316.47 196.02 314.844C197.201 313.217 198.802 312.302 200.472 312.3H259.2C264.224 312.308 269.04 315.06 272.592 319.953C276.144 324.846 278.142 331.48 278.148 338.4V389.403C278.144 393.736 276.893 397.889 274.669 400.953C272.445 404.017 269.429 405.74 266.283 405.745ZM200.472 314.768C199.277 314.77 198.131 315.425 197.287 316.589C196.442 317.752 195.966 319.33 195.965 320.976V397.07C195.967 398.716 196.442 400.293 197.287 401.457C198.132 402.62 199.277 403.275 200.472 403.276H266.283C268.954 403.272 271.514 401.81 273.402 399.209C275.291 396.608 276.353 393.081 276.356 389.403V338.4C276.351 332.135 274.541 326.128 271.325 321.698C268.109 317.268 263.749 314.776 259.2 314.768L200.472 314.768Z" fill="#3F3D56"/>
<path d="M254.824 498.613H183.446C181.777 498.61 180.176 497.696 178.995 496.069C177.814 494.443 177.15 492.238 177.148 489.938V430.614C177.153 423.868 179.101 417.4 182.564 412.629C186.027 407.859 190.723 405.175 195.621 405.167H254.824C256.494 405.17 258.095 406.085 259.276 407.712C260.457 409.338 261.121 411.543 261.123 413.844V489.938C261.121 492.238 260.456 494.443 259.276 496.069C258.095 497.696 256.494 498.61 254.824 498.613ZM195.621 407.636C191.198 407.643 186.958 410.066 183.831 414.374C180.704 418.682 178.945 424.522 178.94 430.614V489.938C178.941 491.583 179.417 493.161 180.262 494.324C181.106 495.488 182.252 496.142 183.446 496.144H254.824C256.019 496.142 257.164 495.488 258.009 494.324C258.854 493.161 259.329 491.583 259.331 489.938V413.844C259.329 412.198 258.854 410.62 258.009 409.456C257.164 408.293 256.019 407.638 254.824 407.636H195.621Z" fill="#3F3D56"/>
<path d="M203.603 318.144C202.416 318.145 201.277 318.796 200.437 319.953C199.597 321.11 199.125 322.679 199.123 324.315V393.731C199.125 395.367 199.597 396.936 200.437 398.093C201.277 399.25 202.416 399.901 203.603 399.903H263.152C265.815 399.899 268.369 398.439 270.252 395.845C272.136 393.25 273.195 389.733 273.198 386.064V341.739C273.193 335.483 271.387 329.485 268.175 325.062C264.964 320.639 260.61 318.15 256.068 318.144H203.603Z" fill="#E6E6E6"/>
<path d="M240.974 336.505H231.724C231.13 336.504 230.561 336.178 230.141 335.6C229.721 335.021 229.485 334.237 229.484 333.419V311.354H243.214V333.419C243.213 334.237 242.977 335.021 242.557 335.6C242.137 336.178 241.568 336.504 240.974 336.505Z" fill="#3F3D56"/>
<path d="M435.72 471.372L448.862 470.292V478.048L461.357 489.934C461.974 490.521 462.439 491.364 462.684 492.341C462.928 493.318 462.94 494.376 462.716 495.363C462.493 496.349 462.047 497.211 461.443 497.823C460.839 498.435 460.108 498.766 459.358 498.766H443.712L441.015 491.094L439.962 498.766H434.063L435.72 471.372Z" fill="#2F2E41"/>
<path d="M321.024 471.372L334.166 470.292V478.048L346.661 489.934C347.278 490.521 347.743 491.364 347.987 492.341C348.232 493.318 348.243 494.376 348.02 495.363C347.797 496.349 347.351 497.211 346.747 497.823C346.143 498.435 345.412 498.766 344.662 498.766H329.016L326.319 491.094L325.266 498.766H319.367L321.024 471.372Z" fill="#2F2E41"/>
<path d="M98.5013 474.731H74.1488C73.9111 474.731 73.6832 474.601 73.5151 474.369C73.3471 474.138 73.2527 473.824 73.2527 473.496C73.2527 473.169 73.3471 472.855 73.5151 472.624C73.6832 472.392 73.9111 472.262 74.1488 472.262H98.5013C98.739 472.262 98.9669 472.392 99.1349 472.624C99.303 472.855 99.3974 473.169 99.3974 473.496C99.3974 473.824 99.303 474.138 99.1349 474.369C98.9669 474.601 98.739 474.731 98.5013 474.731Z" fill="#3F3D56"/>
<path d="M206.029 472.262H181.676C181.439 472.262 181.211 472.132 181.043 471.901C180.875 471.669 180.78 471.355 180.78 471.028C180.78 470.7 180.875 470.386 181.043 470.155C181.211 469.924 181.439 469.793 181.676 469.793H206.029C206.267 469.793 206.495 469.924 206.663 470.155C206.831 470.386 206.925 470.7 206.925 471.028C206.925 471.355 206.831 471.669 206.663 471.901C206.495 472.132 206.267 472.262 206.029 472.262Z" fill="#6C63FF"/>
<path d="M542.949 462.971H518.597C518.359 462.971 518.131 462.841 517.963 462.61C517.795 462.378 517.701 462.064 517.701 461.737C517.701 461.409 517.795 461.095 517.963 460.864C518.131 460.633 518.359 460.502 518.597 460.502H542.949C543.187 460.502 543.415 460.633 543.583 460.864C543.751 461.095 543.845 461.409 543.845 461.737C543.845 462.064 543.751 462.378 543.583 462.61C543.415 462.841 543.187 462.971 542.949 462.971Z" fill="#6C63FF"/>
<path d="M552.806 450.628H528.453C528.216 450.628 527.988 450.498 527.82 450.267C527.652 450.035 527.557 449.721 527.557 449.394C527.557 449.067 527.652 448.753 527.82 448.521C527.988 448.29 528.216 448.16 528.453 448.16H552.806C553.043 448.16 553.271 448.29 553.439 448.521C553.607 448.753 553.702 449.067 553.702 449.394C553.702 449.721 553.607 450.035 553.439 450.267C553.271 450.498 553.043 450.628 552.806 450.628Z" fill="#6C63FF"/>
<path d="M507.107 211.174H482.754C482.516 211.174 482.288 211.044 482.12 210.812C481.952 210.581 481.858 210.267 481.858 209.939C481.858 209.612 481.952 209.298 482.12 209.067C482.288 208.835 482.516 208.705 482.754 208.705H507.107C507.344 208.705 507.572 208.835 507.74 209.067C507.908 209.298 508.003 209.612 508.003 209.939C508.003 210.267 507.908 210.581 507.74 210.812C507.572 211.044 507.344 211.174 507.107 211.174Z" fill="#6C63FF"/>
<path d="M223.054 383.392H198.702C198.464 383.392 198.236 383.262 198.068 383.031C197.9 382.799 197.806 382.485 197.806 382.158C197.806 381.831 197.9 381.517 198.068 381.285C198.236 381.054 198.464 380.924 198.702 380.924H223.054C223.292 380.924 223.52 381.054 223.688 381.285C223.856 381.517 223.95 381.831 223.95 382.158C223.95 382.485 223.856 382.799 223.688 383.031C223.52 383.262 223.292 383.392 223.054 383.392Z" fill="#3F3D56"/>
<path d="M223.054 373.518H198.702C198.464 373.518 198.236 373.388 198.068 373.156C197.9 372.925 197.806 372.611 197.806 372.284C197.806 371.956 197.9 371.642 198.068 371.411C198.236 371.179 198.464 371.049 198.702 371.049H223.054C223.292 371.049 223.52 371.179 223.688 371.411C223.856 371.642 223.95 371.956 223.95 372.284C223.95 372.611 223.856 372.925 223.688 373.156C223.52 373.388 223.292 373.518 223.054 373.518Z" fill="#3F3D56"/>
<path d="M584.122 312.667H574.872C574.279 312.666 573.709 312.34 573.289 311.762C572.869 311.183 572.633 310.399 572.632 309.581V287.517H586.362V309.581C586.361 310.399 586.125 311.183 585.705 311.762C585.285 312.34 584.716 312.666 584.122 312.667Z" fill="#6C63FF"/>
<path d="M754 497.531H4.89026V500H754V497.531Z" fill="#CCCCCC"/>
<path d="M223.949 428.808H214.699C214.105 428.808 213.536 428.482 213.116 427.904C212.696 427.325 212.46 426.541 212.459 425.723V403.658H226.189V425.723C226.188 426.541 225.952 427.325 225.532 427.904C225.112 428.482 224.542 428.808 223.949 428.808Z" fill="#6C63FF"/>
</g>
<defs>
<clipPath id="clip0">
<rect width="754" height="500" fill="white"/>
</clipPath>
</defs>
</svg>
