<svg width="49" height="48" viewBox="0 0 49 48" fill="none" xmlns="http://www.w3.org/2000/svg">
<path d="M34.4026 0H14.5974C6.54834 0 0 6.4147 0 14.2995V33.7005C0 41.5853 6.54834 48 14.5974 48H34.4026C42.4517 48 49 41.5853 49 33.7005V14.2995C48.9999 6.4147 42.4516 0 34.4026 0ZM44.0706 33.7005C44.0706 38.931 39.7421 43.1712 34.4026 43.1712H14.5974C9.25794 43.1712 4.9294 38.931 4.9294 33.7005V14.2995C4.9294 9.06891 9.25794 4.8288 14.5974 4.8288H34.4026C39.7421 4.8288 44.0706 9.06891 44.0706 14.2995V33.7005Z" fill="url(#paint0_linear)"/>
<path d="M24.4999 11.5854C17.5119 11.5854 11.8268 17.1546 11.8268 23.9999C11.8268 30.8452 17.5119 36.4144 24.4999 36.4144C31.4879 36.4144 37.1731 30.8452 37.1731 23.9999C37.1731 17.1545 31.4879 11.5854 24.4999 11.5854ZM24.4999 31.5857C20.2231 31.5857 16.7562 28.1895 16.7562 24C16.7562 19.8105 20.2232 16.4142 24.4999 16.4142C28.7767 16.4142 32.2437 19.8105 32.2437 24C32.2437 28.1894 28.7766 31.5857 24.4999 31.5857Z" fill="url(#paint1_linear)"/>
<path d="M37.1976 14.6536C38.8748 14.6536 40.2344 13.3218 40.2344 11.6789C40.2344 10.036 38.8748 8.7041 37.1976 8.7041C35.5205 8.7041 34.1609 10.036 34.1609 11.6789C34.1609 13.3218 35.5205 14.6536 37.1976 14.6536Z" fill="url(#paint2_linear)"/>
<defs>
<linearGradient id="paint0_linear" x1="24.5" y1="47.8603" x2="24.5" y2="0.372824" gradientUnits="userSpaceOnUse">
<stop stop-color="#E09B3D"/>
<stop offset="0.3" stop-color="#C74C4D"/>
<stop offset="0.6" stop-color="#C21975"/>
<stop offset="1" stop-color="#7024C4"/>
</linearGradient>
<linearGradient id="paint1_linear" x1="24.4999" y1="47.8602" x2="24.4999" y2="0.372783" gradientUnits="userSpaceOnUse">
<stop stop-color="#E09B3D"/>
<stop offset="0.3" stop-color="#C74C4D"/>
<stop offset="0.6" stop-color="#C21975"/>
<stop offset="1" stop-color="#7024C4"/>
</linearGradient>
<linearGradient id="paint2_linear" x1="37.1976" y1="47.8605" x2="37.1976" y2="0.372999" gradientUnits="userSpaceOnUse">
<stop stop-color="#E09B3D"/>
<stop offset="0.3" stop-color="#C74C4D"/>
<stop offset="0.6" stop-color="#C21975"/>
<stop offset="1" stop-color="#7024C4"/>
</linearGradient>
</defs>
</svg>
