<svg width="49" height="48" viewBox="0 0 49 48" fill="none" xmlns="http://www.w3.org/2000/svg">
<g clip-path="url(#clip0)">
<path d="M24.5008 47.9996C38.0316 47.9996 49.0005 37.2545 49.0005 23.9998C49.0005 10.7451 38.0316 0 24.5008 0C10.9699 0 0.000976562 10.7451 0.000976562 23.9998C0.000976562 37.2545 10.9699 47.9996 24.5008 47.9996Z" fill="#55ACEE"/>
<path d="M39.5071 17.2482C38.4571 17.7043 37.3278 18.0127 36.1433 18.1505C37.3527 17.4407 38.2807 16.3177 38.7188 14.9774C37.5872 15.6349 36.3333 16.1119 35 16.3691C33.9317 15.2546 32.4097 14.5581 30.7244 14.5581C27.4908 14.5581 24.8682 17.1272 24.8682 20.2947C24.8682 20.7444 24.9202 21.182 25.0207 21.6021C20.1537 21.363 15.8384 19.0793 12.9498 15.6075C12.4458 16.4546 12.1567 17.4407 12.1567 18.4919C12.1567 20.4817 13.1913 22.2383 14.7618 23.2668C13.8023 23.2373 12.8987 22.9793 12.1096 22.5485C12.1091 22.5729 12.1091 22.5973 12.1091 22.6212C12.1091 25.4008 14.1286 27.7191 16.807 28.2457C16.3162 28.3775 15.7978 28.4472 15.2645 28.4472C14.8863 28.4472 14.5199 28.4117 14.1626 28.345C14.9077 30.6236 17.07 32.2822 19.6331 32.3289C17.6285 33.8677 15.1038 34.7845 12.3594 34.7845C11.8877 34.7845 11.4204 34.7576 10.9631 34.7041C13.5534 36.3324 16.6323 37.2817 19.9393 37.2817C30.7108 37.2817 36.6015 28.5405 36.6015 20.9591C36.6015 20.7106 36.5958 20.4629 36.5844 20.2173C37.7296 19.4087 38.7222 18.3986 39.5071 17.2482Z" fill="#F1F2F2"/>
</g>
<defs>
<clipPath id="clip0">
<rect width="49" height="48" fill="white"/>
</clipPath>
</defs>
</svg>
