<svg width="500" height="500" viewBox="0 0 500 500" fill="none" xmlns="http://www.w3.org/2000/svg">
<g clip-path="url(#clip0)">
<path d="M161.726 316.055C188.817 316.055 210.779 294.093 210.779 267.001C210.779 239.909 188.817 217.947 161.726 217.947C134.634 217.947 112.672 239.909 112.672 267.001C112.672 294.093 134.634 316.055 161.726 316.055Z" fill="#365E7D"/>
<path d="M171.641 315.048C168.439 315.712 165.129 316.059 161.729 316.059C134.634 316.059 112.671 294.097 112.671 267C112.671 239.903 134.633 217.941 161.729 217.941C165.129 217.941 168.439 218.288 171.641 218.952C149.302 223.521 132.493 243.293 132.493 267C132.493 290.707 149.302 310.479 171.641 315.048Z" fill="#2B4D66"/>
<path d="M152.744 339.729C207.542 339.729 251.964 322.541 251.964 301.34C251.964 280.138 207.542 262.951 152.744 262.951C97.9466 262.951 53.5244 280.138 53.5244 301.34C53.5244 322.541 97.9466 339.729 152.744 339.729Z" fill="#F9F6F9"/>
<path d="M251.961 301.345C239.771 323.495 199.969 341.258 152.744 341.258C105.52 341.258 65.718 323.496 53.5276 301.345C65.718 307.351 105.52 311.761 152.744 311.761C199.969 311.761 239.772 307.351 251.961 301.345Z" fill="#DDDAEC"/>
<path d="M38.1172 339.729H454.45V381.967H38.1172V339.729Z" fill="#F9F6F9"/>
<path d="M25.7705 360.491H466.797V455.773H25.7705V360.491Z" fill="#9D6B6B"/>
<path d="M25.7705 360.491H65.4824V455.773H25.7705V360.491Z" fill="#8B5E5E"/>
<path d="M35.6369 499.913H17.8878C8.00882 499.913 0 491.904 0 482.025V197.432C0 187.553 8.00882 179.544 17.8878 179.544H35.6369C45.5158 179.544 53.5246 187.553 53.5246 197.432V482.025C53.5246 491.904 45.5158 499.913 35.6369 499.913Z" fill="#9D6B6B"/>
<path d="M38.1173 499.737C37.3048 499.856 36.4826 499.915 35.6398 499.915H17.8887C8.00784 499.914 0 491.907 0 482.026V197.427C0 187.556 8.00784 179.548 17.8887 179.548H35.6388C36.4816 179.548 37.3039 179.607 38.1164 179.727C29.4151 180.916 22.6954 188.389 22.6954 197.428V482.027C22.6954 491.065 29.4152 498.547 38.1173 499.737Z" fill="#8B5E5E"/>
<path d="M210.855 186.024H180.973C178.245 186.024 175.737 184.531 174.438 182.132C173.138 179.735 173.256 176.818 174.744 174.533L196.443 141.231H181.891C177.785 141.231 174.458 137.903 174.458 133.798C174.458 129.693 177.785 126.366 181.891 126.366H210.158C212.886 126.366 215.394 127.859 216.693 130.257C217.993 132.655 217.875 135.572 216.387 137.857L194.688 171.159H210.855C214.96 171.159 218.287 174.487 218.287 178.591C218.287 182.696 214.96 186.024 210.855 186.024Z" fill="#DDDAEC"/>
<path d="M172.337 118.169H129.275C126.548 118.169 124.04 116.676 122.74 114.278C121.441 111.879 121.559 108.963 123.047 106.678L157.618 53.6196H130.598C126.492 53.6196 123.165 50.2915 123.165 46.187C123.165 42.0825 126.492 38.7544 130.598 38.7544H171.332C174.06 38.7544 176.567 40.2476 177.867 42.646C179.167 45.0435 179.049 47.9604 177.561 50.2456L142.989 103.304H172.336C176.441 103.304 179.769 106.632 179.769 110.737C179.769 114.841 176.442 118.169 172.337 118.169Z" fill="#DDDAEC"/>
<path d="M439.038 304.941L454.449 339.729L439.038 366.843L347.661 427.745L152.745 339.727C152.745 311.084 156.233 288.468 160.268 271.898C165.49 250.431 183.756 234.613 205.768 232.681C209.078 232.394 212.596 232.136 216.313 231.937C221.942 231.641 228.028 231.462 234.499 231.481C251.757 231.539 268.751 255.438 290.513 259.488C313.942 263.85 342.411 248.78 368.504 260.769C391.793 271.462 415.619 285.822 439.038 304.941Z" fill="#9DC6FB"/>
<path d="M347.66 427.743L152.745 339.726C152.745 311.083 156.233 288.467 160.268 271.896C165.49 250.43 183.756 234.612 205.768 232.68C209.078 232.393 212.596 232.135 216.312 231.937C206.401 270.886 205.629 355.484 347.66 427.743Z" fill="#698ED5"/>
<path d="M368.502 260.767L304.912 306.012C298.537 310.548 289.691 309.057 285.155 302.682L234.498 231.48C270.336 231.6 318.175 237.645 368.502 260.767Z" fill="#F9F6F9"/>
<path d="M379.741 233.692C442.342 233.692 493.091 182.944 493.091 120.343C493.091 57.7415 442.342 6.99316 379.741 6.99316C317.14 6.99316 266.392 57.7415 266.392 120.343C266.392 182.944 317.14 233.692 379.741 233.692Z" fill="#D3EFFB"/>
<path d="M399.547 232.051C393.271 233.139 386.811 233.697 380.227 233.697C317.625 233.697 266.873 182.945 266.873 120.344C266.873 57.7422 317.625 6.99023 380.227 6.99023C386.812 6.99023 393.271 7.54883 399.547 8.63672C346.157 17.8008 305.523 64.3272 305.523 120.344C305.523 176.36 346.158 222.886 399.547 232.051Z" fill="#9DC6FB"/>
<path d="M379.741 134.783H327.079C319.105 134.783 312.64 128.318 312.64 120.344C312.64 112.369 319.105 105.904 327.079 105.904H379.741C387.716 105.904 379.741 112.369 379.741 120.344C379.741 128.318 379.741 130.022 379.741 134.783Z" fill="#365E7D"/>
<path d="M379.741 134.784C371.767 134.784 365.302 128.319 365.302 120.344V83.4731C365.302 75.4985 371.767 69.0337 379.741 69.0337C387.716 69.0337 394.181 75.4985 394.181 83.4731V120.344C394.182 128.319 387.716 134.784 379.741 134.784Z" fill="#2B4D66"/>
<path d="M379.742 40.3242C375.927 40.3242 372.835 37.2314 372.835 33.417V10.5664C372.835 6.75195 375.927 3.65918 379.742 3.65918C383.558 3.65918 386.65 6.75195 386.65 10.5664V33.417C386.65 37.2314 383.557 40.3242 379.742 40.3242Z" fill="#365E7D"/>
<path d="M379.742 237.026C375.927 237.026 372.835 233.934 372.835 230.119V207.269C372.835 203.454 375.927 200.361 379.742 200.361C383.558 200.361 386.65 203.454 386.65 207.269V230.119C386.65 233.934 383.557 237.026 379.742 237.026Z" fill="#365E7D"/>
<path d="M489.518 127.25H466.668C462.852 127.25 459.76 124.157 459.76 120.343C459.76 116.528 462.852 113.436 466.668 113.436H489.518C493.334 113.436 496.426 116.528 496.426 120.343C496.426 124.157 493.334 127.25 489.518 127.25Z" fill="#365E7D"/>
<path d="M292.815 127.25H269.965C266.15 127.25 263.058 124.157 263.058 120.343C263.058 116.528 266.15 113.436 269.965 113.436H292.815C296.631 113.436 299.723 116.528 299.723 120.343C299.723 124.157 296.631 127.25 292.815 127.25Z" fill="#365E7D"/>
<path d="M463.137 79.1057C460.75 79.1057 458.428 77.8665 457.148 75.6506C455.241 72.3469 456.373 68.1223 459.677 66.2151L471.358 59.4709C474.66 57.5647 478.887 58.6956 480.794 61.9993C482.701 65.303 481.569 69.5276 478.266 71.4348L466.584 78.179C465.497 78.8069 464.309 79.1057 463.137 79.1057Z" fill="#365E7D"/>
<path d="M284.679 182.139C282.292 182.139 279.971 180.901 278.691 178.684C276.783 175.38 277.915 171.156 281.219 169.248L292.9 162.504C296.202 160.597 300.427 161.728 302.335 165.033C304.242 168.336 303.111 172.561 299.807 174.468L288.126 181.212C287.039 181.841 285.851 182.139 284.679 182.139Z" fill="#365E7D"/>
<path d="M427.881 43.861C426.709 43.861 425.52 43.5622 424.433 42.9343C421.13 41.0271 419.998 36.8024 421.905 33.4987L428.649 21.8181C430.556 18.5144 434.781 17.3825 438.085 19.2897C441.388 21.197 442.52 25.4216 440.613 28.7253L433.869 40.406C432.589 42.6228 430.267 43.861 427.881 43.861Z" fill="#365E7D"/>
<path d="M324.848 222.32C323.676 222.32 322.488 222.021 321.401 221.393C318.097 219.486 316.965 215.261 318.872 211.957L325.615 200.277C327.522 196.973 331.745 195.84 335.051 197.748C338.355 199.655 339.486 203.88 337.579 207.184L330.836 218.864C329.557 221.081 327.235 222.32 324.848 222.32Z" fill="#365E7D"/>
<path d="M331.604 43.863C329.217 43.863 326.895 42.6238 325.615 40.408L318.872 28.7273C316.965 25.4236 318.097 21.199 321.401 19.2917C324.703 17.3855 328.929 18.5164 330.836 21.8201L337.579 33.5007C339.486 36.8044 338.355 41.0291 335.051 42.9363C333.964 43.5642 332.776 43.863 331.604 43.863Z" fill="#365E7D"/>
<path d="M434.637 222.321C432.251 222.321 429.929 221.082 428.649 218.867L421.905 207.186C419.998 203.882 421.129 199.658 424.433 197.75C427.736 195.843 431.961 196.974 433.869 200.279L440.613 211.959C442.52 215.263 441.389 219.488 438.085 221.395C436.997 222.023 435.809 222.321 434.637 222.321Z" fill="#365E7D"/>
<path d="M296.347 79.1061C295.175 79.1061 293.987 78.8073 292.9 78.1793L281.219 71.4352C277.915 69.528 276.783 65.3034 278.691 61.9997C280.597 58.6959 284.823 57.5631 288.126 59.4713L299.807 66.2155C303.111 68.1227 304.242 72.3473 302.335 75.651C301.056 77.8668 298.734 79.1061 296.347 79.1061Z" fill="#365E7D"/>
<path d="M474.806 182.139C473.634 182.139 472.446 181.84 471.358 181.212L459.677 174.468C456.373 172.561 455.241 168.336 457.148 165.033C459.055 161.728 463.278 160.596 466.584 162.504L478.266 169.248C481.569 171.156 482.701 175.38 480.794 178.684C479.515 180.9 477.192 182.139 474.806 182.139Z" fill="#365E7D"/>
<path d="M379.742 240.601C313.432 240.601 259.485 186.653 259.485 120.344C259.485 54.0342 313.432 0.0869141 379.742 0.0869141C446.053 0.0869141 499.999 54.0342 499.999 120.344C499.999 186.653 446.053 240.601 379.742 240.601ZM379.742 13.9014C321.05 13.9014 273.3 61.6514 273.3 120.344C273.3 179.036 321.05 226.786 379.742 226.786C438.435 226.786 486.185 179.036 486.185 120.344C486.185 61.6504 438.435 13.9014 379.742 13.9014Z" fill="#95D6A4"/>
<path d="M474.678 499.912H456.929C447.051 499.912 439.042 491.903 439.042 482.024V304.936C439.042 295.057 447.051 287.048 456.929 287.048H474.678C484.557 287.048 492.566 295.057 492.566 304.936V482.024C492.566 491.903 484.558 499.912 474.678 499.912Z" fill="#9D6B6B"/>
<path d="M476.435 499.825C475.86 499.884 475.265 499.914 474.671 499.914H456.93C447.05 499.914 439.042 491.906 439.042 482.025V304.94C439.042 295.059 447.05 287.051 456.93 287.051H474.671C475.265 287.051 475.86 287.081 476.435 287.14C467.386 288.022 460.32 295.653 460.32 304.94V482.026C460.32 491.312 467.386 498.943 476.435 499.825Z" fill="#8B5E5E"/>
</g>
<defs>
<clipPath id="clip0">
<rect width="500" height="500" fill="white"/>
</clipPath>
</defs>
</svg>
