<svg width="64" height="63" viewBox="0 0 64 63" fill="none" xmlns="http://www.w3.org/2000/svg">
<path d="M32 49.6494C33.7259 49.6494 35.125 48.2722 35.125 46.5732C35.125 44.8743 33.7259 43.4971 32 43.4971C30.2741 43.4971 28.875 44.8743 28.875 46.5732C28.875 48.2722 30.2741 49.6494 32 49.6494Z" fill="#333435"/>
<path d="M32 0C14.3145 0 0 14.0885 0 31.5C0 48.9092 14.3121 63 32 63C49.6855 63 64 48.9115 64 31.5C64 14.0908 49.6879 0 32 0ZM32 58.0781C17.0779 58.0781 5 46.1909 5 31.5C5 16.811 17.0759 4.92188 32 4.92188C46.9221 4.92188 59 16.8091 59 31.5C59 46.189 46.9241 58.0781 32 58.0781Z" fill="#333435"/>
<path d="M32 15.8115C26.486 15.8115 22 20.2274 22 25.6553C22 27.0144 23.1193 28.1162 24.5 28.1162C25.8807 28.1162 27 27.0144 27 25.6553C27 22.9414 29.243 20.7334 32 20.7334C34.757 20.7334 37 22.9414 37 25.6553C37 28.3692 34.757 30.5771 32 30.5771C30.6193 30.5771 29.5 31.6789 29.5 33.0381V39.1904C29.5 40.5496 30.6193 41.6514 32 41.6514C33.3807 41.6514 34.5 40.5496 34.5 39.1904V35.1876C38.8083 34.0921 42 30.2337 42 25.6553C42 20.2274 37.514 15.8115 32 15.8115Z" fill="#333435"/>
</svg>
